<?xml version="1.0" encoding="utf-8"?>
<!-- Generator: Adobe Illustrator 18.1.1, SVG Export Plug-In . SVG Version: 6.00 Build 0)  -->
<svg version="1.1" id="Слой_1" xmlns="http://www.w3.org/2000/svg" xmlns:xlink="http://www.w3.org/1999/xlink" x="0px" y="0px"
	 viewBox="2 0 110 172" enable-background="new 2 0 110 172" xml:space="preserve">
<g id="Shape_41_1_">
	<g>
		<path fill="#FFFFFF" d="M39.5,50.4c-2.8,5.6-2.3,12.1,0,17.7c1.3,3,3,6.1,5.1,8.8c2,3.3,10.9,12.4,7.6,16.4c-0.5,0.5-1,1-1,1.8
			c0.3,0.8,1,0.8,1.8,0.8c1,0,2,0,2.5-0.8c0.5-0.5,0.5-1.5,0-2c-0.3-0.5-1-1-1.5-1.3c2.8-3.5,5.3-7.3,8.1-10.9
			c3.8-4.5,7.6-9.3,9.6-14.9c2-5.6,2-12.1-1.8-16.9c-7.6-9.3-24-10.9-30.1,0.3C39.7,49.9,39.7,50.2,39.5,50.4z M71.6,48.1
			c3.3,4,4.3,9.9,3,15.7h0.3c2.8-1.3,5.3-2.8,7.6-4.5C87,55.7,91,51.2,92,45.4S91.5,33.2,87,29.7c-3.5-2.5-9.1-4.5-13.4-3.3
			c-5.1,1.5-8.8,4.5-10.9,8.6c-1,1.8-1.8,3.8-2,6.1C64.8,42.1,68.8,44.6,71.6,48.1z M87.2,68.8c-3.3-2.5-8.8-4.3-13.1-3.3
			c-0.3,0.5-0.3,0.8-0.5,1.3c-2.3,5.8-6.3,10.9-9.9,15.4c-1,1.5-2.3,3-3.3,4.3c0.3,2.3,0.8,4.5,1.5,6.6l-10.1,36.6l1.5-32.1l0,0
			c-0.3,0-0.5,0-0.8-0.3L51.1,131L41,82.2c0.8-2,1.3-4,1.5-6.1c-1.5-2.5-3-5.1-4.3-7.8c-1.3-3-1.8-6.1-2-8.8l-1.8-8.3
			c0.3-0.3,0.5-0.3,0.8-0.8c0.3-0.5,0-1-0.3-1.5c-0.3-0.5-0.8-0.5-1.3-0.8c1.3-3,2.5-6.1,4-9.1c2-3.8,3.8-7.8,4.3-12.1
			c0.5-4.3-0.8-8.8-4-11.6c-6.8-5.3-18.7-3.5-21.2,5.3c0,0.3,0,0.5-0.3,0.5c-1,4.3,0.5,8.8,3,12.4c1.5,2,3.3,3.8,5.1,5.3
			c2,2,9.6,7.1,8.1,10.4c-0.3,0.5-0.5,1-0.3,1.3c0.3,0.5,1,0.5,1.5,0.3l0,0L36.2,61c-1.3-0.8-2.5-1.5-4-1.8c-3.5-0.8-8.8,0-11.4,2.5
			c-3.3,3-4.8,6.6-5.1,10.6c0,1.8,0.3,3.8,1,5.8c1.3,4,4,7.6,7.3,10.4c2,1.8,8.1,3.3,8.6,5.8l0,0l0,0c0,0.5,0,0.8-0.3,1.3l0.8-0.3
			l17.9,37.9v20.2c0,0.5,2.5,0.5,2.5,0v-20.2l16.2-27c0.8,0,1.5,0.3,2.5,0.3c-0.3-0.5-1-0.8-1.3-1.5c-0.8-1.5,4-2.5,5.1-3
			c2.8-1.3,5.3-2.8,7.6-4.5c4.5-3.5,8.6-8.1,9.6-13.9C93.3,78.9,91.8,72.6,87.2,68.8z M33.2,96.4l1.5-0.5c-0.3-0.3-1-0.3-1.5-0.8
			c-1.3-0.8,2-3.5,2.5-4.3c1.5-2,2.8-4,4-6.3c0-0.3,0.3-0.3,0.3-0.5l9.9,47.2L33.2,96.4z M67.5,107.2c0.3,0,0.3,0,0.5,0l-15.9,25.5
			l10.4-38.1c0,0.3,0.3,0.5,0.3,0.5C64,98.6,71.3,104.5,67.5,107.2z"/>
	</g>
</g>
</svg>
