<?xml version="1.0" encoding="utf-8"?>
<!-- Generator: Adobe Illustrator 18.1.1, SVG Export Plug-In . SVG Version: 6.00 Build 0)  -->
<svg version="1.1" xmlns="http://www.w3.org/2000/svg" xmlns:xlink="http://www.w3.org/1999/xlink" x="0px" y="0px" width="939px"
	 height="268px" viewBox="0 0 939 268" enable-background="new 0 0 939 268" xml:space="preserve">
<g id="Fon" display="none">
	<rect y="-111.5" display="inline" fill="#F0EEEC" width="939" height="433"/>
</g>
<g id="Line">
	<path fill-rule="evenodd" clip-rule="evenodd" fill="none" stroke="#A4D05F" stroke-miterlimit="10" d="M808.7,160.1
		c-16,25-48.6,53.3-80.3,53.3c-3.9,0-15.5,0-22,0c-59.1,0-86.1-40-99-62c-36.7-62.4-28.7-128-60-128"/>
	<path fill-rule="evenodd" clip-rule="evenodd" fill="none" stroke="#F58220" stroke-width="2" stroke-miterlimit="10" d="
		M700.2,24.2c17.8,0.3,36.8-0.7,54.8,4.3c28,15,55,38,63.1,69.9"/>
	<path fill-rule="evenodd" clip-rule="evenodd" fill="none" stroke="#F58220" stroke-width="2" stroke-miterlimit="10" d="M536,23.3
		c21.4,0.1,42.8,0.1,64.3,0.2"/>
	<path fill-rule="evenodd" clip-rule="evenodd" fill="none" stroke="#F58220" stroke-width="2" stroke-miterlimit="10" d="
		M104.1,121.4C111,104.5,120,89.5,133,76.5c1-1,1-3,2-4c28-28,65-46,105-48c62-3,125,0,187.1-1.1"/>
	<path fill-rule="evenodd" clip-rule="evenodd" fill="none" stroke="#724C9F" stroke-miterlimit="10" d="M104.7,97
		c28,66.8,89.9,98,149,98c44.2,0,72,0,72,0"/>
</g>
<g id="Icon">
	<g>
		<g>
			<path fill="#FFFFFF" stroke="#808283" stroke-miterlimit="10" d="M341.1,70.5c0,0.8-0.7,1.5-1.5,1.5h-76c-0.8,0-1.5-0.7-1.5-1.5
				v-53c0-0.8,0.7-1.5,1.5-1.5h76c0.8,0,1.5,0.7,1.5,1.5V70.5z"/>
			<path fill="#FFFFFF" stroke="#808283" stroke-miterlimit="10" d="M338.1,64.5c0,0.8-0.7,1.5-1.5,1.5h-70c-0.8,0-1.5-0.7-1.5-1.5
				v-44c0-0.8,0.7-1.5,1.5-1.5h70c0.8,0,1.5,0.7,1.5,1.5V64.5z"/>
			<path fill="#FFFFFF" stroke="#808283" stroke-miterlimit="10" d="M359.2,85.8c0,0.7-0.5,1.2-1.2,1.2H246.4
				c-0.7,0-1.2-0.5-1.2-1.2v-0.6c0-0.7,0.5-1.2,1.2-1.2H358c0.7,0,1.2,0.5,1.2,1.2V85.8z"/>
			<polygon fill="#FFFFFF" stroke="#808283" stroke-linecap="round" stroke-linejoin="round" stroke-miterlimit="10" points="
				358.7,84.4 245.6,84.4 262.5,70 341.3,70 			"/>
			<g>
				<polygon fill="#D1D2D3" points="313.8,82.5 289.2,82.5 290.6,79.5 312.2,79.5 				"/>
				<polygon fill="#D1D2D3" points="338.7,71.5 266.3,71.5 258.7,78.5 345.8,78.5 				"/>
				<path fill="none" stroke="#FFFFFF" stroke-width="0.3" stroke-miterlimit="10" d="M343.5,76"/>
				<path fill="none" stroke="#FFFFFF" stroke-width="0.3" stroke-miterlimit="10" d="M260.5,76"/>
				<line fill="none" stroke="#FFFFFF" stroke-width="0.3" stroke-miterlimit="10" x1="264.5" y1="72.7" x2="340.5" y2="72.7"/>
				<line fill="none" stroke="#FFFFFF" stroke-width="0.3" stroke-miterlimit="10" x1="262.3" y1="74.2" x2="342.6" y2="74.2"/>
				<line fill="none" stroke="#FFFFFF" stroke-width="0.3" stroke-miterlimit="10" x1="260.8" y1="76.3" x2="344.3" y2="76.3"/>
				<line fill="none" stroke="#FFFFFF" stroke-width="0.3" stroke-miterlimit="10" x1="270" y1="70.9" x2="264" y2="78.8"/>
				<line fill="none" stroke="#FFFFFF" stroke-width="0.3" stroke-miterlimit="10" x1="273.1" y1="71.2" x2="268.2" y2="78.8"/>
				<line fill="none" stroke="#FFFFFF" stroke-width="0.3" stroke-miterlimit="10" x1="276.8" y1="70.9" x2="272.3" y2="78.8"/>
				<line fill="none" stroke="#FFFFFF" stroke-width="0.3" stroke-miterlimit="10" x1="279.6" y1="70.9" x2="276.1" y2="79"/>
				<line fill="none" stroke="#FFFFFF" stroke-width="0.3" stroke-miterlimit="10" x1="283" y1="70.9" x2="280" y2="79"/>
				<line fill="none" stroke="#FFFFFF" stroke-width="0.3" stroke-miterlimit="10" x1="286.3" y1="71.2" x2="284.1" y2="78.8"/>
				<line fill="none" stroke="#FFFFFF" stroke-width="0.3" stroke-miterlimit="10" x1="289.6" y1="71.2" x2="288.1" y2="78.8"/>
				<line fill="none" stroke="#FFFFFF" stroke-width="0.3" stroke-miterlimit="10" x1="293" y1="71.2" x2="291.8" y2="78.8"/>
				<line fill="none" stroke="#FFFFFF" stroke-width="0.3" stroke-miterlimit="10" x1="296.1" y1="71.2" x2="295.1" y2="78.8"/>
				<line fill="none" stroke="#FFFFFF" stroke-width="0.3" stroke-miterlimit="10" x1="299.2" y1="71.2" x2="298.7" y2="78.8"/>
				<line fill="none" stroke="#FFFFFF" stroke-width="0.3" stroke-miterlimit="10" x1="334.5" y1="70.9" x2="340.5" y2="78.8"/>
				<line fill="none" stroke="#FFFFFF" stroke-width="0.3" stroke-miterlimit="10" x1="331.4" y1="71.2" x2="336.3" y2="78.8"/>
				<line fill="none" stroke="#FFFFFF" stroke-width="0.3" stroke-miterlimit="10" x1="327.7" y1="70.9" x2="332.2" y2="78.8"/>
				<line fill="none" stroke="#FFFFFF" stroke-width="0.3" stroke-miterlimit="10" x1="324.9" y1="70.9" x2="328.4" y2="79"/>
				<line fill="none" stroke="#FFFFFF" stroke-width="0.3" stroke-miterlimit="10" x1="321.5" y1="70.9" x2="324.5" y2="79"/>
				<line fill="none" stroke="#FFFFFF" stroke-width="0.3" stroke-miterlimit="10" x1="318.2" y1="71.2" x2="320.4" y2="78.8"/>
				<line fill="none" stroke="#FFFFFF" stroke-width="0.3" stroke-miterlimit="10" x1="314.9" y1="71.2" x2="316.4" y2="78.8"/>
				<line fill="none" stroke="#FFFFFF" stroke-width="0.3" stroke-miterlimit="10" x1="311.5" y1="71.2" x2="312.8" y2="78.8"/>
				<line fill="none" stroke="#FFFFFF" stroke-width="0.3" stroke-miterlimit="10" x1="308.4" y1="71.2" x2="309.5" y2="78.8"/>
				<line fill="none" stroke="#FFFFFF" stroke-width="0.3" stroke-miterlimit="10" x1="305.3" y1="71.2" x2="305.8" y2="78.8"/>
				<line fill="none" stroke="#FFFFFF" stroke-width="0.3" stroke-miterlimit="10" x1="302.3" y1="71.5" x2="302.3" y2="78.5"/>
			</g>
		</g>
		<g>
			<path fill="#F38020" d="M308.5,32.3c0.2-0.3,0.2-0.7-0.2-1.1l-2.4-3l-0.1-0.1l-2-0.4l-0.1-0.5l0,0l0,0c-0.1-0.1-0.2-0.1-0.2-0.1
				v-0.1l0.2-0.7l0.1-0.2l0.1-0.3v-0.1l0-0.1l-0.1-0.1l0-0.3l-0.1-0.4l0-0.3l-0.1-0.1l-0.1-0.1c-0.1-0.2-0.1-0.2-0.2-0.2l-0.1,0
				c0,0-0.1,0-0.1-0.1h-0.1l-0.1,0l-0.1,0l-0.3-0.1c-0.1,0-0.1,0-0.2,0.1l-0.2,0.1l-0.2-0.1c0,0-0.1,0-0.1,0.1l-0.1,0.1l-0.1,0
				l-0.2,0.1l-0.1,0.1l-0.1-0.1c-0.1,0.1-0.2,0.2-0.2,0.2c-0.1,0-0.1,0-0.1-0.1v0.1c0,0.2,0.1,0.3,0.3,0.4h0l0,0.1
				c-0.1,0.2-0.1,0.3-0.1,0.4l0.1,0.2l0.1,0.2l0,0.3V26l0.2,0.4l0,0.2c0.1,0.3,0.2,0.5,0.3,0.5h0l0,0.1l-0.1,0c0,0-0.1,0.1-0.3,0.2
				l0,0c0,0,0,0.1,0,0.1l-0.1,0l-1.6-0.1l-0.2,0.4c-1.5,2.2-2.3,3.3-2.5,3.5c-0.2,1-0.1,1.5,0.2,1.4c-0.1,0.1-0.2,0.1-0.2,0.1l0,0.1
				c0,0.1,0.1,0.1,0.4,0.2l0,0c-0.2,0-0.3,0.1-0.3,0.1l0,0.1l0,0l0.1,0.1l0,0l0.1,0l0.1,0l0.1,0c-0.2,0.8-0.4,1.7-0.5,2.7l0,0.1
				l0.3,0l2.9-0.5c-0.1,0.5-0.2,1-0.4,1.5l0,0l0,0c0,0,0,0,0,0l0,0.1l0,0c-0.3,1.8-0.7,3.7-1.2,5.6l-0.6,2.3l-0.3,0.1l-0.1,0.8
				l-0.6,0.6v0.9l-1,0.8c-0.1,0.3,0.2,0.4,0.8,0.4l1.9-0.6v-0.4l0.7-0.6l0-0.1c1.2-3.3,2.1-5.7,2.6-7.4l0.4-1.3l0.4,0v0.2l0.5,8.7
				l0.4,0.4l0.1,0.4c0,0.1,0.1,0.2,0.3,0.3l0.3,0.3l0.4,0.6c0.8,0.2,1.2,0.2,1.4-0.1l-0.8-1.8l0-0.1l0.4-0.9l-0.6-7.6l0-0.2
				l-0.2-2.4l0-0.2l1.3,0.3h0v0.5c0.5-0.2,0.9-0.4,1.4-0.6l-0.4-1.8l0.1-0.1c0.3-0.2,0.4-0.3,0.4-0.4c-0.2-0.1-0.3-0.1-0.4-0.1
				c0.2,0,0.3-0.1,0.2-0.3v0l-0.1,0l0,0L308.5,32.3z"/>
		</g>
		<g>
			<g>
				<path fill="#F38020" d="M280.6,58.6c-0.3,0.1-0.9,0.3-1.7,0.3c-0.8,0-1.5-0.2-2-0.7c-0.5-0.4-0.8-1.2-0.8-2
					c0-1.6,1.1-2.8,2.9-2.8c0.6,0,1.1,0.1,1.3,0.2l-0.2,0.6c-0.3-0.1-0.6-0.2-1.2-0.2c-1.3,0-2.2,0.8-2.2,2.2c0,1.4,0.8,2.2,2.1,2.2
					c0.5,0,0.8-0.1,0.9-0.1v-1.6h-1.1V56h1.8V58.6z"/>
				<path fill="#F38020" d="M281.9,56.2c0-0.5,0-0.8,0-1.2h0.6l0,0.8h0c0.2-0.5,0.6-0.8,1.1-0.8c0.1,0,0.1,0,0.2,0v0.7
					c-0.1,0-0.1,0-0.2,0c-0.5,0-0.8,0.4-0.9,0.9c0,0.1,0,0.2,0,0.3v2.1h-0.7V56.2z"/>
				<path fill="#F38020" d="M285,57.1c0,1,0.6,1.3,1.3,1.3c0.5,0,0.8-0.1,1.1-0.2l0.1,0.5c-0.2,0.1-0.7,0.2-1.3,0.2
					c-1.2,0-1.9-0.8-1.9-2c0-1.2,0.7-2.1,1.8-2.1c1.3,0,1.6,1.1,1.6,1.8c0,0.1,0,0.3,0,0.3H285z M287.1,56.6c0-0.4-0.2-1.1-1-1.1
					c-0.7,0-1,0.7-1.1,1.1H287.1z"/>
				<path fill="#F38020" d="M291,58.9l-0.1-0.5h0c-0.2,0.3-0.6,0.6-1.2,0.6c-0.8,0-1.2-0.6-1.2-1.1c0-0.9,0.8-1.4,2.3-1.4v-0.1
					c0-0.3-0.1-0.9-0.9-0.9c-0.4,0-0.7,0.1-1,0.3l-0.2-0.5c0.3-0.2,0.8-0.3,1.3-0.3c1.2,0,1.5,0.8,1.5,1.6v1.4c0,0.3,0,0.7,0.1,0.9
					H291z M290.9,56.9c-0.8,0-1.6,0.1-1.6,0.9c0,0.5,0.3,0.7,0.7,0.7c0.5,0,0.8-0.3,0.9-0.6c0-0.1,0-0.2,0-0.2V56.9z"/>
				<path fill="#F38020" d="M293.7,53.9V55h1v0.5h-1v2.1c0,0.5,0.1,0.8,0.5,0.8c0.2,0,0.3,0,0.4,0l0,0.5c-0.1,0.1-0.4,0.1-0.6,0.1
					c-0.3,0-0.6-0.1-0.8-0.3c-0.2-0.2-0.3-0.6-0.3-1v-2.1h-0.6V55h0.6v-0.9L293.7,53.9z"/>
				<path fill="#F38020" d="M297.5,58.1c0.2,0.1,0.7,0.3,1.2,0.3c0.9,0,1.2-0.6,1.2-1c0-0.7-0.7-1-1.3-1h-0.4v-0.5h0.4
					c0.5,0,1.2-0.3,1.2-0.9c0-0.4-0.3-0.8-0.9-0.8c-0.4,0-0.8,0.2-1,0.3l-0.2-0.5c0.3-0.2,0.8-0.4,1.4-0.4c1,0,1.5,0.6,1.5,1.2
					c0,0.5-0.3,1-1,1.2v0c0.6,0.1,1.2,0.6,1.2,1.3c0,0.8-0.6,1.6-1.9,1.6c-0.6,0-1.1-0.2-1.4-0.4L297.5,58.1z"/>
				<path fill="#F38020" d="M301.9,53.5c0.4-0.1,0.9-0.1,1.5-0.1c1,0,1.7,0.2,2.2,0.7c0.5,0.4,0.8,1.1,0.8,1.9
					c0,0.9-0.3,1.6-0.8,2.1c-0.5,0.5-1.3,0.8-2.4,0.8c-0.5,0-0.9,0-1.3-0.1V53.5z M302.6,58.3c0.2,0,0.4,0,0.7,0
					c1.5,0,2.3-0.8,2.3-2.3c0-1.3-0.7-2.1-2.2-2.1c-0.4,0-0.6,0-0.8,0.1V58.3z"/>
				<path fill="#F38020" d="M309.3,56c0-0.4,0-0.7,0-1h0.6l0,0.6h0c0.2-0.4,0.6-0.7,1.2-0.7c0.5,0,0.9,0.3,1.1,0.8h0
					c0.1-0.2,0.3-0.4,0.4-0.5c0.2-0.2,0.5-0.3,0.9-0.3c0.5,0,1.3,0.3,1.3,1.7v2.3h-0.7v-2.2c0-0.7-0.3-1.2-0.8-1.2
					c-0.4,0-0.7,0.3-0.8,0.6c0,0.1-0.1,0.2-0.1,0.4v2.4h-0.7v-2.3c0-0.6-0.3-1.1-0.8-1.1c-0.4,0-0.8,0.4-0.9,0.7
					c0,0.1-0.1,0.2-0.1,0.3v2.3h-0.7V56z"/>
				<path fill="#F38020" d="M319.7,56.9c0,1.4-1,2.1-1.9,2.1c-1,0-1.9-0.8-1.9-2c0-1.3,0.8-2.1,1.9-2.1
					C318.9,54.9,319.7,55.7,319.7,56.9z M316.6,56.9c0,0.8,0.5,1.5,1.2,1.5c0.7,0,1.2-0.6,1.2-1.5c0-0.7-0.3-1.5-1.2-1.5
					C317,55.4,316.6,56.2,316.6,56.9z"/>
				<path fill="#F38020" d="M324.1,53.2v4.7c0,0.3,0,0.7,0,1h-0.6l0-0.7h0c-0.2,0.4-0.7,0.8-1.3,0.8c-0.9,0-1.7-0.8-1.7-2
					c0-1.3,0.8-2.1,1.7-2.1c0.6,0,1,0.3,1.2,0.6h0v-2.3H324.1z M323.4,56.6c0-0.1,0-0.2,0-0.3c-0.1-0.4-0.5-0.8-1-0.8
					c-0.7,0-1.2,0.6-1.2,1.5c0,0.8,0.4,1.4,1.1,1.4c0.5,0,0.9-0.3,1-0.8c0-0.1,0-0.2,0-0.3V56.6z"/>
				<path fill="#F38020" d="M325.9,57.1c0,1,0.6,1.3,1.3,1.3c0.5,0,0.8-0.1,1.1-0.2l0.1,0.5c-0.2,0.1-0.7,0.2-1.3,0.2
					c-1.2,0-1.9-0.8-1.9-2c0-1.2,0.7-2.1,1.8-2.1c1.3,0,1.6,1.1,1.6,1.8c0,0.1,0,0.3,0,0.3H325.9z M327.9,56.6c0-0.4-0.2-1.1-1-1.1
					c-0.7,0-1,0.7-1.1,1.1H327.9z"/>
				<path fill="#F38020" d="M329.7,53.2h0.7v5.7h-0.7V53.2z"/>
			</g>
		</g>
	</g>
	<g>
		<g>
			<path fill="#FFFFFF" stroke="#808283" stroke-miterlimit="10" d="M341.1,240.2c0,0.8-0.7,1.5-1.5,1.5h-76c-0.8,0-1.5-0.7-1.5-1.5
				v-53c0-0.8,0.7-1.5,1.5-1.5h76c0.8,0,1.5,0.7,1.5,1.5V240.2z"/>
			<path fill="#FFFFFF" stroke="#808283" stroke-miterlimit="10" d="M338.1,234.2c0,0.8-0.7,1.5-1.5,1.5h-70c-0.8,0-1.5-0.7-1.5-1.5
				v-44c0-0.8,0.7-1.5,1.5-1.5h70c0.8,0,1.5,0.7,1.5,1.5V234.2z"/>
			<path fill="#FFFFFF" stroke="#808283" stroke-miterlimit="10" d="M359.2,255.5c0,0.7-0.5,1.2-1.2,1.2H246.4
				c-0.7,0-1.2-0.5-1.2-1.2V255c0-0.7,0.5-1.2,1.2-1.2H358c0.7,0,1.2,0.5,1.2,1.2V255.5z"/>
			<polygon fill="#FFFFFF" stroke="#808283" stroke-linecap="round" stroke-linejoin="round" stroke-miterlimit="10" points="
				358.7,254.1 245.6,254.1 262.5,239.8 341.3,239.8 			"/>
			<g>
				<polygon fill="#D1D2D3" points="313.8,252.3 289.2,252.3 290.6,249.3 312.2,249.3 				"/>
				<polygon fill="#D1D2D3" points="338.7,241.3 266.3,241.3 258.7,248.3 345.8,248.3 				"/>
				<path fill="none" stroke="#FFFFFF" stroke-width="0.3" stroke-miterlimit="10" d="M343.5,245.8"/>
				<path fill="none" stroke="#FFFFFF" stroke-width="0.3" stroke-miterlimit="10" d="M260.5,245.8"/>
				<line fill="none" stroke="#FFFFFF" stroke-width="0.3" stroke-miterlimit="10" x1="264.5" y1="242.5" x2="340.5" y2="242.5"/>
				<line fill="none" stroke="#FFFFFF" stroke-width="0.3" stroke-miterlimit="10" x1="262.3" y1="244" x2="342.6" y2="244"/>
				<line fill="none" stroke="#FFFFFF" stroke-width="0.3" stroke-miterlimit="10" x1="260.8" y1="246" x2="344.3" y2="246"/>
				<line fill="none" stroke="#FFFFFF" stroke-width="0.3" stroke-miterlimit="10" x1="270" y1="240.6" x2="264" y2="248.6"/>
				<line fill="none" stroke="#FFFFFF" stroke-width="0.3" stroke-miterlimit="10" x1="273.1" y1="240.9" x2="268.2" y2="248.6"/>
				<line fill="none" stroke="#FFFFFF" stroke-width="0.3" stroke-miterlimit="10" x1="276.8" y1="240.6" x2="272.3" y2="248.6"/>
				<line fill="none" stroke="#FFFFFF" stroke-width="0.3" stroke-miterlimit="10" x1="279.6" y1="240.6" x2="276.1" y2="248.7"/>
				<line fill="none" stroke="#FFFFFF" stroke-width="0.3" stroke-miterlimit="10" x1="283" y1="240.6" x2="280" y2="248.7"/>
				<line fill="none" stroke="#FFFFFF" stroke-width="0.3" stroke-miterlimit="10" x1="286.3" y1="240.9" x2="284.1" y2="248.6"/>
				<line fill="none" stroke="#FFFFFF" stroke-width="0.3" stroke-miterlimit="10" x1="289.6" y1="240.9" x2="288.1" y2="248.6"/>
				<line fill="none" stroke="#FFFFFF" stroke-width="0.3" stroke-miterlimit="10" x1="293" y1="240.9" x2="291.8" y2="248.6"/>
				<line fill="none" stroke="#FFFFFF" stroke-width="0.3" stroke-miterlimit="10" x1="296.1" y1="240.9" x2="295.1" y2="248.6"/>
				<line fill="none" stroke="#FFFFFF" stroke-width="0.3" stroke-miterlimit="10" x1="299.2" y1="240.9" x2="298.7" y2="248.6"/>
				<line fill="none" stroke="#FFFFFF" stroke-width="0.3" stroke-miterlimit="10" x1="334.5" y1="240.6" x2="340.5" y2="248.6"/>
				<line fill="none" stroke="#FFFFFF" stroke-width="0.3" stroke-miterlimit="10" x1="331.4" y1="240.9" x2="336.3" y2="248.6"/>
				<line fill="none" stroke="#FFFFFF" stroke-width="0.3" stroke-miterlimit="10" x1="327.7" y1="240.6" x2="332.2" y2="248.6"/>
				<line fill="none" stroke="#FFFFFF" stroke-width="0.3" stroke-miterlimit="10" x1="324.9" y1="240.6" x2="328.4" y2="248.7"/>
				<line fill="none" stroke="#FFFFFF" stroke-width="0.3" stroke-miterlimit="10" x1="321.5" y1="240.6" x2="324.5" y2="248.7"/>
				<line fill="none" stroke="#FFFFFF" stroke-width="0.3" stroke-miterlimit="10" x1="318.2" y1="240.9" x2="320.4" y2="248.6"/>
				<line fill="none" stroke="#FFFFFF" stroke-width="0.3" stroke-miterlimit="10" x1="314.9" y1="240.9" x2="316.4" y2="248.6"/>
				<line fill="none" stroke="#FFFFFF" stroke-width="0.3" stroke-miterlimit="10" x1="311.5" y1="240.9" x2="312.8" y2="248.6"/>
				<line fill="none" stroke="#FFFFFF" stroke-width="0.3" stroke-miterlimit="10" x1="308.4" y1="240.9" x2="309.5" y2="248.6"/>
				<line fill="none" stroke="#FFFFFF" stroke-width="0.3" stroke-miterlimit="10" x1="305.3" y1="240.9" x2="305.8" y2="248.6"/>
				<line fill="none" stroke="#FFFFFF" stroke-width="0.3" stroke-miterlimit="10" x1="302.3" y1="241.3" x2="302.3" y2="248.3"/>
			</g>
		</g>
		<g>
			<path fill="#724C9D" d="M308.5,202.1c0.2-0.3,0.2-0.7-0.2-1.1l-2.4-3l-0.1-0.1l-2-0.4l-0.1-0.5l0,0l0,0c-0.1-0.1-0.2-0.1-0.2-0.1
				v-0.1l0.2-0.7l0.1-0.2l0.1-0.3v-0.1l0-0.1l-0.1-0.1l0-0.3l-0.1-0.4l0-0.3l-0.1-0.1l-0.1-0.1c-0.1-0.2-0.1-0.2-0.2-0.2l-0.1,0
				c0,0-0.1,0-0.1-0.1h-0.1l-0.1,0l-0.1,0l-0.3-0.1c-0.1,0-0.1,0-0.2,0.1l-0.2,0.1l-0.2-0.1c0,0-0.1,0-0.1,0.1l-0.1,0.1l-0.1,0
				l-0.2,0.1l-0.1,0.1l-0.1-0.1c-0.1,0.1-0.2,0.2-0.2,0.2c-0.1,0-0.1,0-0.1-0.1v0.1c0,0.2,0.1,0.3,0.3,0.4h0l0,0.1
				c-0.1,0.2-0.1,0.3-0.1,0.4l0.1,0.2l0.1,0.2l0,0.3v0.1l0.2,0.4l0,0.2c0.1,0.3,0.2,0.5,0.3,0.5h0l0,0.1l-0.1,0c0,0-0.1,0.1-0.3,0.2
				l0,0c0,0,0,0.1,0,0.1l-0.1,0l-1.6-0.1l-0.2,0.4c-1.5,2.2-2.3,3.3-2.5,3.5c-0.2,1-0.1,1.5,0.2,1.4c-0.1,0.1-0.2,0.1-0.2,0.1l0,0.1
				c0,0.1,0.1,0.1,0.4,0.2l0,0c-0.2,0-0.3,0.1-0.3,0.1l0,0.1l0,0l0.1,0.1l0,0l0.1,0l0.1,0l0.1,0c-0.2,0.8-0.4,1.7-0.5,2.7l0,0.1
				l0.3,0l2.9-0.5c-0.1,0.5-0.2,1-0.4,1.5l0,0l0,0c0,0,0,0,0,0l0,0.1l0,0c-0.3,1.8-0.7,3.7-1.2,5.6l-0.6,2.3l-0.3,0.1l-0.1,0.8
				l-0.6,0.6v0.9l-1,0.8c-0.1,0.3,0.2,0.4,0.8,0.4l1.9-0.6v-0.4l0.7-0.6l0-0.1c1.2-3.3,2.1-5.7,2.6-7.4l0.4-1.3l0.4,0v0.2l0.5,8.7
				l0.4,0.4l0.1,0.4c0,0.1,0.1,0.2,0.3,0.3l0.3,0.3l0.4,0.6c0.8,0.2,1.2,0.2,1.4-0.1l-0.8-1.8l0-0.1l0.4-0.9l-0.6-7.6l0-0.2
				l-0.2-2.4l0-0.2l1.3,0.3h0v0.5c0.5-0.2,0.9-0.4,1.4-0.6l-0.4-1.8l0.1-0.1c0.3-0.2,0.4-0.3,0.4-0.4c-0.2-0.1-0.3-0.1-0.4-0.1
				c0.2,0,0.3-0.1,0.2-0.3v0l-0.1,0l0,0L308.5,202.1z"/>
		</g>
		<g>
			<g>
				<path fill="#724C9D" d="M287.6,223.2h0.7v3.6c0,1.4-0.7,1.9-1.6,1.9c-0.3,0-0.6-0.1-0.7-0.1l0.1-0.6c0.1,0.1,0.4,0.1,0.6,0.1
					c0.6,0,1-0.3,1-1.3V223.2z"/>
				<path fill="#724C9D" d="M292.9,227.5c0,0.4,0,0.8,0,1.1h-0.6l0-0.6h0c-0.2,0.3-0.6,0.7-1.3,0.7c-0.6,0-1.3-0.3-1.3-1.7v-2.3h0.7
					v2.1c0,0.7,0.2,1.2,0.9,1.2c0.5,0,0.8-0.3,0.9-0.6c0-0.1,0.1-0.2,0.1-0.4v-2.4h0.7V227.5z"/>
				<path fill="#724C9D" d="M294.1,227.9c0.2,0.1,0.6,0.3,0.9,0.3c0.5,0,0.8-0.3,0.8-0.6c0-0.3-0.2-0.5-0.7-0.7
					c-0.7-0.2-1-0.6-1-1.1c0-0.6,0.5-1.1,1.3-1.1c0.4,0,0.7,0.1,1,0.2l-0.2,0.5c-0.2-0.1-0.4-0.2-0.8-0.2c-0.4,0-0.6,0.2-0.6,0.5
					c0,0.3,0.2,0.5,0.7,0.7c0.7,0.3,1,0.6,1,1.2c0,0.7-0.5,1.2-1.4,1.2c-0.4,0-0.8-0.1-1.1-0.3L294.1,227.9z"/>
				<path fill="#724C9D" d="M298.4,223.6v1.1h1v0.5h-1v2.1c0,0.5,0.1,0.8,0.5,0.8c0.2,0,0.3,0,0.4,0l0,0.5c-0.1,0.1-0.4,0.1-0.6,0.1
					c-0.3,0-0.6-0.1-0.8-0.3c-0.2-0.2-0.3-0.6-0.3-1v-2.1h-0.6v-0.5h0.6v-0.9L298.4,223.6z"/>
				<path fill="#724C9D" d="M303.2,223.6v1.1h1v0.5h-1v2.1c0,0.5,0.1,0.8,0.5,0.8c0.2,0,0.3,0,0.4,0l0,0.5c-0.1,0.1-0.4,0.1-0.6,0.1
					c-0.3,0-0.6-0.1-0.8-0.3c-0.2-0.2-0.3-0.6-0.3-1v-2.1h-0.6v-0.5h0.6v-0.9L303.2,223.6z"/>
				<path fill="#724C9D" d="M305.5,226.8c0,1,0.6,1.3,1.3,1.3c0.5,0,0.8-0.1,1.1-0.2l0.1,0.5c-0.2,0.1-0.7,0.2-1.3,0.2
					c-1.2,0-1.9-0.8-1.9-2c0-1.2,0.7-2.1,1.8-2.1c1.3,0,1.6,1.1,1.6,1.8c0,0.1,0,0.3,0,0.3H305.5z M307.6,226.3c0-0.4-0.2-1.1-1-1.1
					c-0.7,0-1,0.7-1.1,1.1H307.6z"/>
				<path fill="#724C9D" d="M309.3,227.9c0.2,0.1,0.6,0.3,0.9,0.3c0.5,0,0.8-0.3,0.8-0.6c0-0.3-0.2-0.5-0.7-0.7
					c-0.7-0.2-1-0.6-1-1.1c0-0.6,0.5-1.1,1.3-1.1c0.4,0,0.7,0.1,1,0.2l-0.2,0.5c-0.2-0.1-0.4-0.2-0.8-0.2c-0.4,0-0.6,0.2-0.6,0.5
					c0,0.3,0.2,0.5,0.7,0.7c0.7,0.3,1,0.6,1,1.2c0,0.7-0.5,1.2-1.4,1.2c-0.4,0-0.8-0.1-1.1-0.3L309.3,227.9z"/>
				<path fill="#724C9D" d="M313.6,223.6v1.1h1v0.5h-1v2.1c0,0.5,0.1,0.8,0.5,0.8c0.2,0,0.3,0,0.4,0l0,0.5c-0.1,0.1-0.4,0.1-0.6,0.1
					c-0.3,0-0.6-0.1-0.8-0.3c-0.2-0.2-0.3-0.6-0.3-1v-2.1h-0.6v-0.5h0.6v-0.9L313.6,223.6z"/>
				<path fill="#724C9D" d="M316.4,223.6c0,0.2-0.2,0.4-0.4,0.4c-0.2,0-0.4-0.2-0.4-0.4c0-0.2,0.2-0.4,0.4-0.4
					C316.2,223.2,316.4,223.4,316.4,223.6z M315.6,228.6v-3.9h0.7v3.9H315.6z"/>
				<path fill="#724C9D" d="M317.6,225.8c0-0.4,0-0.7,0-1h0.6l0,0.6h0c0.2-0.4,0.6-0.7,1.3-0.7c0.5,0,1.4,0.3,1.4,1.6v2.3h-0.7v-2.2
					c0-0.6-0.2-1.1-0.9-1.1c-0.5,0-0.8,0.3-0.9,0.7c0,0.1,0,0.2,0,0.3v2.3h-0.7V225.8z"/>
				<path fill="#724C9D" d="M325.6,224.7c0,0.3,0,0.6,0,1.1v2.2c0,0.9-0.2,1.4-0.6,1.8c-0.4,0.4-0.9,0.5-1.4,0.5
					c-0.5,0-1-0.1-1.3-0.3l0.2-0.5c0.3,0.2,0.7,0.3,1.1,0.3c0.7,0,1.2-0.4,1.2-1.4v-0.4h0c-0.2,0.4-0.6,0.6-1.2,0.6
					c-1,0-1.6-0.8-1.6-1.9c0-1.3,0.9-2.1,1.7-2.1c0.7,0,1,0.4,1.2,0.7h0l0-0.6H325.6z M324.9,226.2c0-0.1,0-0.2,0-0.3
					c-0.1-0.4-0.5-0.7-1-0.7c-0.7,0-1.2,0.6-1.2,1.5c0,0.8,0.4,1.4,1.1,1.4c0.4,0,0.8-0.3,1-0.7c0-0.1,0.1-0.3,0.1-0.4V226.2z"/>
			</g>
		</g>
	</g>
	<g>
		<g>
			
				<polygon fill="#FFFFFF" stroke="#808283" stroke-width="0.7384" stroke-linecap="round" stroke-linejoin="round" stroke-miterlimit="10" points="
				748.9,152.2 695.4,152.2 680.8,157.8 760.9,157.8 			"/>
			
				<rect x="688.1" y="170" fill="#FFFFFF" stroke="#808283" stroke-width="0.7566" stroke-linecap="round" stroke-linejoin="round" stroke-miterlimit="10" width="65.4" height="0"/>
			<path fill="#808283" d="M714.1,169.5c0,0.6-0.5,1.1-1.1,1.1h-5.7c-0.6,0-1.1-0.5-1.1-1.1v-2.3c0-0.6,0.5-1.1,1.1-1.1h5.7
				c0.6,0,1.1,0.5,1.1,1.1V169.5z"/>
			<rect x="708.6" y="169.4" fill="#808283" width="1.1" height="5.6"/>
			<polygon fill="#808283" points="747.5,210.6 720.8,210.5 694.2,210.6 684.6,221.7 720.8,221.7 757,221.7 			"/>
			<g>
				<rect x="687.5" y="161.7" fill="#808283" width="2.2" height="51.2"/>
				<rect x="692.5" y="161.2" fill="#808283" width="3.3" height="47.1"/>
				<rect x="751.9" y="161.7" fill="#808283" width="2.2" height="51.2"/>
				<rect x="745.8" y="161.2" fill="#808283" width="3.3" height="47.1"/>
			</g>
			
				<polygon fill="#FFFFFF" stroke="#808283" stroke-width="0.7384" stroke-linecap="round" stroke-linejoin="round" stroke-miterlimit="10" points="
				747.5,205.1 720.8,205.1 694.2,205.1 684.6,213.4 720.8,213.4 757,213.4 			"/>
			
				<path fill="#FFFFFF" stroke="#808283" stroke-width="0.7384" stroke-linecap="round" stroke-linejoin="round" stroke-miterlimit="10" d="
				M680.8,157.8v74.5h80.1v-74.5H680.8z M757,222.3h-72.3v-61.2H757V222.3z"/>
			<g>
				<path fill="#A3CE5E" d="M717,188.3c0.3-0.4,0.2-0.8-0.2-1.4l-3-3.8l-0.1-0.1l-2.5-0.5l-0.2-0.6l0,0l0,0
					c-0.1-0.1-0.2-0.1-0.3-0.2v-0.2l0.2-0.9l0.2-0.2l0.1-0.3v-0.1l0-0.1l-0.1-0.1l0-0.3l-0.1-0.5l0-0.3l-0.1-0.2l-0.2-0.2
					c-0.1-0.2-0.2-0.3-0.3-0.3l-0.1,0c0,0-0.1-0.1-0.1-0.2H710l-0.1,0l-0.2-0.1l-0.3-0.1c-0.1,0-0.2,0-0.2,0.1l-0.2,0.1l-0.2-0.1
					c0,0-0.1,0-0.1,0.1l-0.1,0.1l-0.1-0.1l-0.3,0.1l-0.2,0.1l-0.1-0.1c-0.2,0.1-0.3,0.2-0.3,0.3c-0.1,0-0.1,0-0.2-0.1v0.1
					c0.1,0.2,0.2,0.4,0.4,0.5h0l0,0.2c-0.1,0.2-0.1,0.4-0.1,0.5l0.1,0.2l0.1,0.3l-0.1,0.4v0.1l0.3,0.5l0,0.2
					c0.1,0.4,0.2,0.6,0.3,0.6h0.1l0,0.1l-0.1,0c-0.1,0-0.2,0.1-0.3,0.3l0,0c0,0,0,0.1,0,0.1l-0.2,0l-2-0.1l-0.3,0.5
					c-1.9,2.7-2.9,4.1-3.2,4.4c-0.2,1.3-0.1,1.8,0.2,1.7c-0.2,0.1-0.3,0.1-0.3,0.1l0,0.2c0,0.1,0.2,0.1,0.4,0.2l0,0
					c-0.2,0-0.4,0.1-0.4,0.1l0,0.1l0,0.1l0.1,0.1l0,0l0.1,0l0.1,0l0.1,0c-0.3,1.1-0.5,2.2-0.7,3.3l0,0.1l0.4-0.1l3.6-0.7
					c-0.1,0.6-0.2,1.2-0.4,1.9l0,0l0,0c0,0,0,0,0,0l-0.1,0.2l0,0c-0.3,2.2-0.8,4.5-1.5,7l-0.8,2.9l-0.4,0.2l-0.1,1l-0.7,0.8v1.1
					l-1.2,0.9c-0.1,0.4,0.2,0.5,1,0.5l2.3-0.8v-0.5l0.9-0.7l0.1-0.1c1.5-4.1,2.6-7.2,3.3-9.3l0.5-1.7l0.5,0v0.2l0.6,10.8l0.5,0.5
					l0.1,0.5c0,0.1,0.1,0.2,0.3,0.4l0.4,0.3l0.4,0.8c0.9,0.3,1.5,0.3,1.7-0.1l-0.9-2.2l0.1-0.1l0.5-1.2l-0.7-9.4l0-0.2l-0.2-3l0-0.3
					l1.6,0.4h0v0.6c0.6-0.3,1.1-0.5,1.7-0.8l-0.4-2.2l0.1-0.1c0.4-0.2,0.5-0.4,0.4-0.4c-0.2-0.1-0.3-0.2-0.5-0.2
					c0.2,0,0.3-0.2,0.3-0.3v0l-0.1-0.1l0,0L717,188.3z"/>
			</g>
		</g>
		<g>
			<g>
				<path fill="#FFFFFF" stroke="#808283" stroke-width="0.6642" stroke-miterlimit="10" d="M697.6,240.7c0,0.8-0.7,1.5-1.5,1.5h-76
					c-0.8,0-1.5-0.7-1.5-1.5v-53c0-0.8,0.7-1.5,1.5-1.5h76c0.8,0,1.5,0.7,1.5,1.5V240.7z"/>
				<path fill="#FFFFFF" stroke="#808283" stroke-width="0.6642" stroke-miterlimit="10" d="M694.6,234.7c0,0.8-0.7,1.5-1.5,1.5h-70
					c-0.8,0-1.5-0.7-1.5-1.5v-44c0-0.8,0.7-1.5,1.5-1.5h70c0.8,0,1.5,0.7,1.5,1.5V234.7z"/>
				<path fill="#FFFFFF" stroke="#808283" stroke-width="0.6642" stroke-miterlimit="10" d="M715.6,256c0,0.7-0.5,1.2-1.2,1.2H602.8
					c-0.7,0-1.2-0.5-1.2-1.2v-0.6c0-0.7,0.5-1.2,1.2-1.2h111.6c0.7,0,1.2,0.5,1.2,1.2V256z"/>
				
					<polygon fill="#FFFFFF" stroke="#808283" stroke-width="0.6642" stroke-linecap="round" stroke-linejoin="round" stroke-miterlimit="10" points="
					715.1,254.6 602,254.6 618.9,240.2 697.8,240.2 				"/>
				<g>
					<polygon fill="#D1D2D3" points="670.2,252.8 645.6,252.8 647,249.7 668.6,249.7 					"/>
					<polygon fill="#D1D2D3" points="695.1,241.7 622.7,241.7 615.2,248.7 702.3,248.7 					"/>
					<path fill="none" stroke="#FFFFFF" stroke-width="0.1993" stroke-miterlimit="10" d="M699.9,246.2"/>
					<path fill="none" stroke="#FFFFFF" stroke-width="0.1993" stroke-miterlimit="10" d="M616.9,246.2"/>
					<line fill="none" stroke="#FFFFFF" stroke-width="0.1993" stroke-miterlimit="10" x1="621" y1="243" x2="697" y2="243"/>
					<line fill="none" stroke="#FFFFFF" stroke-width="0.1993" stroke-miterlimit="10" x1="618.7" y1="244.5" x2="699" y2="244.5"/>
					
						<line fill="none" stroke="#FFFFFF" stroke-width="0.1993" stroke-miterlimit="10" x1="617.3" y1="246.5" x2="700.8" y2="246.5"/>
					
						<line fill="none" stroke="#FFFFFF" stroke-width="0.1993" stroke-miterlimit="10" x1="626.4" y1="241.1" x2="620.4" y2="249.1"/>
					
						<line fill="none" stroke="#FFFFFF" stroke-width="0.1993" stroke-miterlimit="10" x1="629.6" y1="241.4" x2="624.7" y2="249.1"/>
					
						<line fill="none" stroke="#FFFFFF" stroke-width="0.1993" stroke-miterlimit="10" x1="633.3" y1="241.1" x2="628.7" y2="249.1"/>
					
						<line fill="none" stroke="#FFFFFF" stroke-width="0.1993" stroke-miterlimit="10" x1="636.1" y1="241.1" x2="632.6" y2="249.2"/>
					
						<line fill="none" stroke="#FFFFFF" stroke-width="0.1993" stroke-miterlimit="10" x1="639.4" y1="241.1" x2="636.5" y2="249.2"/>
					
						<line fill="none" stroke="#FFFFFF" stroke-width="0.1993" stroke-miterlimit="10" x1="642.8" y1="241.4" x2="640.6" y2="249.1"/>
					
						<line fill="none" stroke="#FFFFFF" stroke-width="0.1993" stroke-miterlimit="10" x1="646.1" y1="241.4" x2="644.6" y2="249.1"/>
					
						<line fill="none" stroke="#FFFFFF" stroke-width="0.1993" stroke-miterlimit="10" x1="649.4" y1="241.4" x2="648.2" y2="249.1"/>
					
						<line fill="none" stroke="#FFFFFF" stroke-width="0.1993" stroke-miterlimit="10" x1="652.6" y1="241.4" x2="651.5" y2="249.1"/>
					
						<line fill="none" stroke="#FFFFFF" stroke-width="0.1993" stroke-miterlimit="10" x1="655.7" y1="241.4" x2="655.2" y2="249.1"/>
					<line fill="none" stroke="#FFFFFF" stroke-width="0.1993" stroke-miterlimit="10" x1="691" y1="241.1" x2="697" y2="249.1"/>
					
						<line fill="none" stroke="#FFFFFF" stroke-width="0.1993" stroke-miterlimit="10" x1="687.8" y1="241.4" x2="692.8" y2="249.1"/>
					
						<line fill="none" stroke="#FFFFFF" stroke-width="0.1993" stroke-miterlimit="10" x1="684.2" y1="241.1" x2="688.7" y2="249.1"/>
					
						<line fill="none" stroke="#FFFFFF" stroke-width="0.1993" stroke-miterlimit="10" x1="681.3" y1="241.1" x2="684.8" y2="249.2"/>
					<line fill="none" stroke="#FFFFFF" stroke-width="0.1993" stroke-miterlimit="10" x1="678" y1="241.1" x2="681" y2="249.2"/>
					
						<line fill="none" stroke="#FFFFFF" stroke-width="0.1993" stroke-miterlimit="10" x1="674.7" y1="241.4" x2="676.8" y2="249.1"/>
					
						<line fill="none" stroke="#FFFFFF" stroke-width="0.1993" stroke-miterlimit="10" x1="671.3" y1="241.4" x2="672.8" y2="249.1"/>
					<line fill="none" stroke="#FFFFFF" stroke-width="0.1993" stroke-miterlimit="10" x1="668" y1="241.4" x2="669.2" y2="249.1"/>
					
						<line fill="none" stroke="#FFFFFF" stroke-width="0.1993" stroke-miterlimit="10" x1="664.8" y1="241.4" x2="665.9" y2="249.1"/>
					
						<line fill="none" stroke="#FFFFFF" stroke-width="0.1993" stroke-miterlimit="10" x1="661.8" y1="241.4" x2="662.2" y2="249.1"/>
					
						<line fill="none" stroke="#FFFFFF" stroke-width="0.1993" stroke-miterlimit="10" x1="658.7" y1="241.7" x2="658.7" y2="248.7"/>
				</g>
				<polygon fill="#A3CE5E" points="665.4,215.8 665.4,200.1 651,200.1 651,215.8 645,215.8 658.2,225.7 671.3,215.8 				"/>
			</g>
		</g>
	</g>
	<g>
		<g>
			<path fill="#F38020" d="M841.1,102.5c0.7-1,0.5-2.3-0.6-3.6l-8.1-10l-0.3-0.2l-6.8-1.4l-0.4-1.7l0-0.1l-0.1-0.1
				c-0.3-0.2-0.6-0.3-0.8-0.4v-0.5l0.6-2.5l0.4-0.6l0.3-0.9v-0.3l-0.1-0.3l-0.2-0.2l0-0.8l-0.3-1.3l0.1-0.9l-0.2-0.4l-0.4-0.5
				c-0.2-0.5-0.5-0.8-0.8-0.8l-0.4,0c-0.1,0-0.2-0.2-0.3-0.4h-0.3l-0.2,0.1l-0.4-0.2l-0.8-0.2c-0.2,0-0.4,0.1-0.7,0.2l-0.5,0.2
				l-0.5-0.3c-0.1,0-0.2,0.1-0.4,0.2l-0.3,0.2l-0.2-0.2l-0.7,0.3l-0.5,0.3l-0.4-0.2c-0.5,0.4-0.7,0.6-0.7,0.7
				c-0.2,0-0.3-0.1-0.4-0.2v0.2c0.2,0.7,0.5,1.1,1,1.3h0.1l0,0.5c-0.3,0.5-0.4,1-0.4,1.3l0.2,0.7l0.2,0.8l-0.2,1v0.4l0.8,1.5l0,0.6
				c0.3,1,0.6,1.6,0.9,1.7h0.2l0,0.2l-0.2,0c-0.2,0-0.5,0.3-0.9,0.8l-0.1,0.1c-0.1,0.1-0.1,0.2,0,0.3l-0.4-0.1l-5.3-0.3l-0.7,1.3
				c-5,7.2-7.8,11.1-8.4,11.7c-0.5,3.4-0.3,4.9,0.7,4.6c-0.4,0.2-0.7,0.3-0.8,0.3l0.1,0.5c0.1,0.2,0.5,0.4,1.2,0.6l0,0
				c-0.7,0.1-1,0.2-1,0.3l0,0.2l0.1,0.2l0.3,0.2l0.1,0l0.2,0.1l0.4,0.1l0.3,0.1c-0.7,2.8-1.3,5.8-1.8,8.9l-0.1,0.3l1-0.2l9.7-1.8
				c-0.2,1.5-0.6,3.2-1.2,5l0,0l0,0c0,0,0,0,0,0l-0.2,0.5l0.1,0c-0.9,5.9-2.3,12.2-4.1,18.7l-2.1,7.7l-1.1,0.5l-0.4,2.6l-1.9,2v3
				l-3.2,2.5c-0.3,1,0.6,1.4,2.8,1.4l6.2-2.1v-1.4l2.3-1.8l0.2-0.3c4-10.9,6.9-19.1,8.7-24.8l1.3-4.5l1.4,0.1v0.5l1.6,28.8l1.2,1.2
				l0.4,1.4c0.1,0.3,0.4,0.6,0.9,1l1.1,0.9l1.2,2.1c2.5,0.8,4,0.7,4.6-0.2l-2.5-6l0.2-0.4l1.2-3.1l-1.9-25.2l-0.1-0.7l-0.6-8.1
				l0-0.8l4.2,1.1h0.1v1.6c1.5-0.7,3.1-1.4,4.6-2.1l-1.2-5.9l0.3-0.2c0.9-0.7,1.3-1.1,1.2-1.2c-0.5-0.3-0.9-0.4-1.2-0.4
				c0.6-0.1,0.9-0.4,0.7-0.9v0l-0.4-0.2l0.1,0L841.1,102.5z"/>
		</g>
		<path fill="#FFFFFF" stroke="#D3D1CC" stroke-miterlimit="10" d="M939,125.6c-0.1,0-0.3,0-0.5,0.1c-13.9,2.1-69.8,11.4-75.9,4.9
			c0,0-0.1-0.1-0.1-0.1c-1.4-1.8-3.1-3.5-5.2-4.6c-1.3-0.7-9.5-3.1-12.7-3.6c-1.9-0.3-3.7,0.4-5.6,0.2c-6.4-0.2-12.7-1.1-18.9-2.6
			c0,0-0.1,0-0.1,0c-5.5-2.6-11.1-5.6-17.3-6.4c-3.9-0.8-6.9,4.2-4.8,7.5c0.1,0.1,0.1,0.1,0.2,0.2c0.2,0.1,0.3,0.5,0.3,0.5
			c1.6,2.6,4.3,4.3,6.7,6c0.1,0.1,0.1,0.1,0.2,0.2c2.6,0.7,4.9,2.7,7.3,3.9c2.2,1.1,6.8,3,6.8,3c2,0.6,4.1,1.1,5.8,2.3c0,0,0,0,0,0
			c0.2,0.1,2.5,1.4,3.9,2.6c0.1,0.1,0.2,0.3,0.1,0.4c-0.4,2.3-2.3,4.1-3.5,5.9c0,0-0.1,0.1-0.1,0.1c-0.6,0.4-6.3,2.5-8.4,3.4
			c-2,0.9-5.8,1.8-5.9,1.9c-0.1,0.1-0.2,0.2-0.4,0.2c-0.7,0-1.5-0.2-2.1-0.7c-2-1.5-4.6-1.9-7-2.2c-0.2,0-0.3-0.2-0.4-0.4
			c-0.5-1.9-1.7-3.6-3.6-4.2c-1-0.3-1.8-1.2-2.1-2.2c-1.3-4.4-4.1-8.5-8.2-10.8c-0.9-0.5-1.9-1-2.9-0.8c-1.8,0.1-4,0.7-4.6,2.7
			c-0.4,1.5-0.1,3,0.5,4.4c0.2,0.5-0.4,0.9-0.8,0.5c-2-2-4.2-3.7-7-4c-2-0.2-3.6,2-3.1,3.8c0.5,2.1,1.7,4,3.1,5.7
			c2.4,2.9,5.1,5.4,7.8,7.9c3.7,3.4,7.7,6.6,12.3,8.5c3.6,1.5,6.4,4.3,9.5,6.5c4.1,2.7,8.5,4.9,13.2,6.2c1.9,0.6,4,0.8,5.6,2.1
			c2.6,2,6,2.4,9.1,1.8c2.6-0.5,4,2.5,6.4,2.7c3.1,0.7,5.8-1.4,8.4-2.8c5.3-2.7,10.8-5,16.4-6.9c0,0,0,0,0,0
			c7.7-3.6,16.3-4.4,24.6-4.7c1.6,0,41.6,0.7,52.6,1c0.1,0,0.3,0,0.4,0"/>
	</g>
	<g>
		<defs>
			<rect id="SVGID_1_" y="16" width="198" height="234.7"/>
		</defs>
		<clipPath id="SVGID_2_">
			<use xlink:href="#SVGID_1_"  overflow="visible"/>
		</clipPath>
		<g clip-path="url(#SVGID_2_)">
			<path fill="none" stroke="#D3D1CC" stroke-width="2" stroke-miterlimit="10" d="M191.3,209.3c0,4.6-3.9,8.2-8.6,8l-175-7.7
				c-4.7-0.2-8.6-4.1-8.6-8.7l0.4-149.6c0-4.6,3.9-8.2,8.6-8l175,7.7c4.7,0.2,8.6,4.1,8.6,8.7"/>
			<path fill="#FFFFFF" d="M185.9,198.7c-12.5-8.7-38.5-12.4-70.6-14.4V39.9c44.9,2.9,77.5,11.9,77.5,22.4c0,3.1-2.6,6-6.9,8.7l0,0
				v144.3l0,0c4.3-2,6.4-5.6,6.9-7.9v-145"/>
			<path fill="#FFFFFF" stroke="#D3D1CC" stroke-miterlimit="10" d="M188.8,205.2c0,2.3,0.4,3.9-2.9,6l-81.9,2.3l11.5-27.8
				C157.6,187.9,188.8,195.8,188.8,205.2z"/>
			<path fill="#FFFFFF" stroke="#D3D1CC" stroke-miterlimit="10" d="M157.7,213.2c0,7.2-24.4,13.1-54.5,13.1
				c-30.1,0-54.5-5.9-54.5-13.1c0-7.3,24.4-13.1,54.5-13.1C133.3,200.1,157.7,206,157.7,213.2z"/>
			<line fill="none" stroke="#D3D1CC" stroke-miterlimit="10" x1="104.6" y1="38.1" x2="104.6" y2="185.5"/>
			<path fill="#FFFFFF" stroke="#D3D1CC" stroke-miterlimit="10" d="M108.9,44.6c0-0.9-2.2-1.3-2.8-1.3h-0.9c-0.6,0-2.7,0.4-2.7,1.3
				v58c0,0.9,2.1,2.7,2.7,2.7h0.9c0.6,0,2.8-1.8,2.8-2.7V44.6z"/>
			<path fill="#FFFFFF" stroke="#D3D1CC" stroke-miterlimit="10" d="M108.9,119.2c0-0.9,0-1.1-0.7-1.1h-3.1c-0.6,0-2.7,0.2-2.7,1.1
				v58c0,0.9,2.1,0.8,2.7,0.8h0.9c0.6,0,2.8,0.1,2.8-0.8V119.2z"/>
			<path fill="#FFFFFF" stroke="#D3D1CC" stroke-miterlimit="10" d="M21.2,144.6c0-0.9,2.6-0.8,2-0.8h-3.1c-0.6,0-1-0.1-1,0.8v41.6
				c0,0.9,0.4,2.6,1,2.6h3.1c0.6,0-2-1.7-2-2.6V144.6z"/>
			<line fill="none" stroke="#D3D1CC" stroke-miterlimit="10" x1="19.1" y1="44.4" x2="19.1" y2="194.1"/>
			<path fill="#FFFFFF" stroke="#D3D1CC" stroke-miterlimit="10" d="M25.5,56.6c0-0.9,0.6-2.6-0.7-2.6h-6.1c-1.3,0-3.9,1.7-3.9,2.6
				v41.6c0,0.9,2.7,0.8,3.9,0.8h6.1c1.3,0,0.7,0.1,0.7-0.8V56.6z"/>
			<path fill="#FFFFFF" stroke="#D3D1CC" stroke-miterlimit="10" d="M185.9,198.7c-12.5-8.7-38.5-12.4-70.6-14.4V39.9
				c44.9,2.9,77.5,11.9,77.5,22.4c0,3.1-2.6,6-6.9,8.7l0,0v144.3l0,0c4.3-2,6.4-5.6,6.9-7.9v-145"/>
			<polygon fill="#FFFFFF" stroke="#D3D1CC" stroke-linecap="round" stroke-linejoin="round" stroke-miterlimit="10" points="
				166.3,65.3 171.3,60.3 169.5,56.5 164.5,61.5 			"/>
			<polygon fill="#FFFFFF" stroke="#D3D1CC" stroke-linecap="round" stroke-linejoin="round" stroke-miterlimit="10" points="
				169.5,56.5 153.2,51.5 148.2,56.5 164.5,61.5 			"/>
			<polygon fill="#FFFFFF" stroke="#D3D1CC" stroke-linecap="round" stroke-linejoin="round" stroke-miterlimit="10" points="
				148.2,56.5 150,60.3 166.3,65.3 164.5,61.5 			"/>
			<polygon fill="#FFFFFF" stroke="#D3D1CC" stroke-linecap="round" stroke-linejoin="round" stroke-miterlimit="10" points="
				166.4,171.4 171.3,166.4 169.5,162.5 164.5,167.5 			"/>
			<polygon fill="#FFFFFF" stroke="#D3D1CC" stroke-linecap="round" stroke-linejoin="round" stroke-miterlimit="10" points="
				169.5,162.5 153.2,157.6 148.2,162.5 164.5,167.5 			"/>
			<polygon fill="#FFFFFF" stroke="#D3D1CC" stroke-linecap="round" stroke-linejoin="round" stroke-miterlimit="10" points="
				148.2,162.5 150,166.4 166.4,171.4 164.5,167.5 			"/>
			<polygon fill="#FFFFFF" stroke="#D3D1CC" stroke-linecap="round" stroke-linejoin="round" stroke-miterlimit="10" points="
				164,153 170.6,150.1 170,145.7 163.3,148.7 			"/>
			<polygon fill="#FFFFFF" stroke="#D3D1CC" stroke-linecap="round" stroke-linejoin="round" stroke-miterlimit="10" points="
				170,145.7 153.7,140.8 147,143.7 163.3,148.7 			"/>
			<polygon fill="#FFFFFF" stroke="#D3D1CC" stroke-linecap="round" stroke-linejoin="round" stroke-miterlimit="10" points="
				147,143.7 147.7,148.1 164,153 163.3,148.7 			"/>
			<polygon fill="#FFFFFF" stroke="#D3D1CC" stroke-linecap="round" stroke-linejoin="round" stroke-miterlimit="10" points="
				164,117 170.6,114 170,109.7 163.3,112.7 			"/>
			<polygon fill="#FFFFFF" stroke="#D3D1CC" stroke-linecap="round" stroke-linejoin="round" stroke-miterlimit="10" points="
				170,109.7 153.7,104.7 147,107.7 163.3,112.7 			"/>
			<polygon fill="#FFFFFF" stroke="#D3D1CC" stroke-linecap="round" stroke-linejoin="round" stroke-miterlimit="10" points="
				147,107.7 147.7,112 164,117 163.3,112.7 			"/>
			<polygon fill="#FFFFFF" stroke="#D3D1CC" stroke-miterlimit="10" points="104.1,214.6 89,230.7 74.7,229.2 74.7,207.5 			"/>
			<path fill="none" stroke="#D3D1CC" stroke-width="2" stroke-miterlimit="10" d="M117.3,192.6c0,4.9-0.9,9.7-2,10.8l-40.8,41.4
				c-1.1,1.1-2-1.9-2-6.8L72,79.9c0-4.9,0.9-9.7,2-10.8l40.8-41.4c1.1-1.1,2,1.9,2,6.8L117.3,192.6z"/>
			<g>
				<defs>
					<polygon id="SVGID_3_" points="182,236.8 71.5,236.8 73,140.6 183.5,140.6 					"/>
				</defs>
				<clipPath id="SVGID_4_">
					<use xlink:href="#SVGID_3_"  overflow="visible"/>
				</clipPath>
				<path clip-path="url(#SVGID_4_)" fill="#FFFFFF" stroke="#D3D1CC" stroke-miterlimit="10" d="M151.7,201.7
					c0-5.9-20.8-10.7-49.2-10.7c-28.4,0-49.2,4.8-49.2,10.7c0,1.4,0,6.6,0,8c0,5.9,20.8,10.7,49.2,10.7c28.4,0,49.2-4.8,49.2-10.7
					C151.7,208.3,151.7,203.1,151.7,201.7z"/>
				<path clip-path="url(#SVGID_4_)" fill="#FFFFFF" stroke="#D3D1CC" stroke-miterlimit="10" d="M157.7,195.7
					c0,7.2-24.4,13.1-54.5,13.1c-30.1,0-54.5-5.9-54.5-13.1c0-7.3,24.4-13.1,54.5-13.1C133.3,182.5,157.7,188.4,157.7,195.7z"/>
			</g>
			<g>
				<path fill="#F58529" d="M133.8,118.2c1-1.5,0.7-3.2-0.8-5.2l-11.5-14.2l-0.4-0.3l-9.6-2L111,94l-0.1-0.1l-0.1-0.1
					c-0.5-0.3-0.9-0.5-1.1-0.6v-0.7l0.8-3.5l0.6-0.9l0.4-1.3v-0.4l-0.2-0.5l-0.3-0.3l-0.1-1.2l-0.4-1.9l0.1-1.2l-0.3-0.6l-0.6-0.7
					c-0.3-0.8-0.7-1.1-1.1-1.1l-0.5,0.1c-0.2,0-0.3-0.2-0.4-0.6h-0.4l-0.3,0.1l-0.6-0.2l-1.2-0.3c-0.3,0-0.6,0.1-0.9,0.3l-0.8,0.3
					l-0.8-0.4c-0.1,0-0.3,0.1-0.5,0.3l-0.5,0.3l-0.3-0.2l-1,0.4l-0.7,0.4l-0.5-0.3c-0.7,0.5-1,0.9-1,1c-0.3,0,0.1,1.6,0.8,1.8H99
					l0.1,0.7c-0.4,0.8-0.5,1.4-0.5,1.8l0.3,0.9l0.3,1.1l-0.2,1.5v0.5l1.1,2.1l0.1,0.8c0.4,1.4,0.8,2.2,1.2,2.4h0.2l-0.1,0.3
					l-0.3-0.1c-0.2,0-0.7,0.4-1.3,1.1l-0.2,0.2c-0.1,0.1-0.1,0.3,0,0.4l-0.6-0.2l-7.5-0.4l-1,1.9c-7.1,10.2-11,15.7-12,16.6
					c-0.7,4.8-0.4,7,0.9,6.5c-0.6,0.3-1,0.4-1.1,0.5l0.1,0.7c0.1,0.3,0.7,0.5,1.7,0.8l-0.1,0.1c-0.9,0.1-1.4,0.3-1.4,0.4l0.1,0.3
					l0.1,0.2l0.4,0.3l0.1,0.1l0.3,0.2l0.5,0.2l0.4,0.1c-1,4-1.8,8.2-2.5,12.7l-0.1,0.4l1.4-0.2l13.8-2.6c-0.3,2.2-0.9,4.5-1.7,7l0,0
					l0,0c0,0,0,0,0,0l-0.2,0.7l0.1-0.1c-1.3,8.4-3.2,17.3-5.8,26.6l-3,11l-1.6,0.7l-0.5,3.7l-2.7,2.9v4.3l-4.6,3.6
					c-0.5,1.4,0.8,2,3.9,2l8.9-2.9v-2l3.3-2.6l0.2-0.5c5.7-15.4,9.8-27.1,12.3-35.2l1.8-6.4l2,0.1v0.8L108,189l1.7,1.7l0.5,2
					c0.1,0.4,0.5,0.9,1.3,1.4l1.6,1.3l1.7,2.9c3.6,1.2,5.7,1.1,6.5-0.3l-3.6-8.5l0.2-0.5l1.7-4.4l-2.7-35.8l-0.1-0.9l-0.9-11.5
					l-0.1-1.1l5.9,1.6h0.2v2.3c2.2-1,4.3-2,6.5-3l-1.7-8.4l0.4-0.3c1.3-0.9,1.9-1.5,1.7-1.7c-0.7-0.4-1.3-0.6-1.7-0.6
					c0.9-0.2,1.2-0.6,1-1.3v-0.1l-0.5-0.2l0.2-0.1L133.8,118.2z"/>
			</g>
			<path fill="#FFFFFF" stroke="#D3D1CC" stroke-miterlimit="10" d="M-0.7,48.6c0,4.1,0.2,17.6,0.2,17.6c12.8,9,39.9,12.4,64.3,13.7
				c5.7,0.3,6.6,2.2,6.6,2.9V229c0,1.2-0.9,1.3-2.1,1.2c-45.6-3.1-75.6-12.2-75.6-22.8c0,0,0-112.8,0-150.2
				C-7.2,49.4-0.7,48.6-0.7,48.6z"/>
			<path fill="none" stroke="#D3D1CC" stroke-miterlimit="10" d="M-0.7,48.6c-6.4,1-6.7,6.2-6.5,9.6c0.6,10.3,29.5,18.9,74.3,22.2"
				/>
			<path fill="none" stroke="#D3D1CC" stroke-miterlimit="10" d="M75.8,66.8L75.8,66.8c5.3,0,7.5,4.5,7.5,10l1.1,151.3
				c0.6,12.6-2.1,11.1-4,11.1"/>
			<path fill="#FFFFFF" stroke="#D3D1CC" stroke-miterlimit="10" d="M81.1,80c0-0.9,0.7-1.7,1.6-1.7h3.2c0.9,0,1.6,0.8,1.6,1.7v61.6
				c0,0.9-0.7,1.7-1.6,1.7h-3.2c-0.9,0-1.6-0.8-1.6-1.7V80z"/>
			<path fill="#FFFFFF" stroke="#D3D1CC" stroke-miterlimit="10" d="M81.1,162.8c0-0.9,0.7-1.7,1.6-1.7h3.2c0.9,0,1.6,0.8,1.6,1.7
				v61.6c0,0.9-0.7,1.7-1.6,1.7h-3.2c-0.9,0-1.6-0.8-1.6-1.7V162.8z"/>
			<path fill="#FFFFFF" stroke="#D3D1CC" stroke-miterlimit="10" d="M166.7,73c0-0.9-0.6-1.9-1.2-1.9h-2c-0.6,0-1,1-1,1.9v58
				c0,0.9-0.1,2.2,0.6,2.2h3.1c0.6,0,0.6-1.3,0.6-2.2V73z"/>
			<path fill="#FFFFFF" stroke="#D3D1CC" stroke-miterlimit="10" d="M166.7,147.6c0-0.9,0-1.6-0.6-1.6H163c-0.6,0-0.6,0.7-0.6,1.6
				v58c0,0.9-0.3,2.4,0.3,2.4h3.1c0.6,0,0.9-1.5,0.9-2.4V147.6z"/>
			<line fill="none" stroke="#D3D1CC" stroke-miterlimit="10" x1="162.4" y1="50.1" x2="162.4" y2="216.4"/>
			
				<line fill="none" stroke="#D3D1CC" stroke-width="2" stroke-linecap="round" stroke-miterlimit="10" x1="8.1" y1="43.3" x2="183.2" y2="51"/>
			<path fill="none" stroke="#D3D1CC" stroke-width="2" stroke-linecap="round" stroke-miterlimit="10" d="M183.2,51
				c0.5,0,2.3,0.3,2.7,0.5"/>
			<path fill="#FFFFFF" stroke="#D3D1CC" stroke-miterlimit="10" d="M192.8,62.4v145c-0.5,2.3-2.6,5.9-6.9,7.9l0,0V71.1l0,0
				C190.2,68.4,192.8,65.5,192.8,62.4"/>
		</g>
	</g>
</g>
<g id="Text" display="none">
	<g display="inline">
		<text transform="matrix(1 0 0 1 19.1667 156.3295)" fill="#665C4F" font-family="'PTSans-Italic'" font-size="14">Booth</text>
		<text transform="matrix(1 0 0 1 255.5289 111.3291)" fill="#655B4E" font-family="'PTSans-Italic'" font-size="14">I want to print it</text>
		<text transform="matrix(1 0 0 1 256.4359 279.9958)"><tspan x="0" y="0" fill="#655B4E" font-family="'PTSans-Italic'" font-size="14">You can scan as many times </tspan><tspan x="0" y="18" fill="#655B4E" font-family="'PTSans-Italic'" font-size="14">as you like for free</tspan></text>
		<text transform="matrix(1 0 0 1 431.5 30.9958)"><tspan x="0" y="0" fill="#655B4E" font-family="'PTSans-Bold'" font-size="14">www.shapify.me</tspan><tspan x="0" y="21" fill="#655B4E" font-family="'PTSans-Italic'" font-size="14">Select your 3D model</tspan></text>
		<text transform="matrix(1 0 0 1 603.5 30.9958)"><tspan x="0" y="0" fill="#655B4E" font-family="'PTSans-Bold'" font-size="14">Order 3D prints</tspan><tspan x="92.6" y="0" fill="#655B4E" font-family="'PTSans-Italic'" font-size="14">  </tspan><tspan x="0" y="18" fill="#655B4E" font-family="'PTSans-Italic'" font-size="14">of your models through  </tspan><tspan x="0" y="36" fill="#655B4E" font-family="'PTSans-Italic'" font-size="14">Artec’s print and  </tspan><tspan x="0" y="54" fill="#655B4E" font-family="'PTSans-Italic'" font-size="14">delivery service</tspan></text>
		<text transform="matrix(1 0 0 1 603.5 279.9958)"><tspan x="0" y="0" fill="#655B4E" font-family="'PTSans-Italic'" font-size="14">Download the file and </tspan><tspan x="0" y="18" fill="#655B4E" font-family="'PTSans-Italic'" font-size="14">print it yourself</tspan></text>
		<text transform="matrix(1 0 0 1 865.5 156.3291)" fill="#665C4F" font-family="'PTSans-Italic'" font-size="14">Customer</text>
		<text transform="matrix(1 0 0 1 328.6111 -78.8375)"><tspan x="0" y="0" fill="#655B4E" font-family="'PTSans-Regular'" font-size="18">Wow! I can’t think of an any subtitle</tspan><tspan x="62.2" y="30" font-family="'PTSans-Regular'" font-size="24">How this works</tspan></text>
	</g>
</g>
</svg>
