<?xml version="1.0" encoding="utf-8"?>
<!-- Generator: Adobe Illustrator 18.1.1, SVG Export Plug-In . SVG Version: 6.00 Build 0)  -->
<svg version="1.1" xmlns="http://www.w3.org/2000/svg" xmlns:xlink="http://www.w3.org/1999/xlink" x="0px" y="0px"
	 viewBox="0 0 625 177" enable-background="new 0 0 625 177" xml:space="preserve">
<g id="Layer_1">
</g>
<g id="Layer_2">
	<g>
		<polygon fill="#EF4123" points="45.5,17.1 5.8,99 60.9,162.3 137.6,162.6 175.6,79 124.5,8.6 		"/>
		<path fill="#FFFFFF" d="M247.5,161.9l-6.6-15.6h-35.8l-6.4,15.6H185l37.2-82.8h2.6l36.9,82.8H247.5z M222.9,104.1l-13.6,32.2H237
			l-13.6-32.2H222.9z"/>
		<path fill="#FFFFFF" d="M283.1,136.6v25.4h-13V107h9.5l1.9,9.2c0.1,0.1,0.2,0.1,0.5,0.1c3.6-7.2,9.3-10.8,17.2-10.8
			c2.4,0,4.2,0.4,5.8,1v12c-2.3-0.9-4.7-1.4-7.2-1.4C289,117.1,283.1,124.8,283.1,136.6z"/>
		<path fill="#FFFFFF" d="M329.3,89.4h2.6v17.4H347v9.9h-15.1v26.4c0,6.3,2,9.3,7.5,9.3c3.1,0,6.4-1.1,9.8-3.2v10.3
			c-3.7,2.5-8.2,3.7-13.2,3.7c-13,0-17.1-7.1-17.1-20.8v-25.6h-8.8v-7.4l9.9-2.8L329.3,89.4z"/>
		<path fill="#FFFFFF" d="M401.6,113.2c4.8,5.3,7.2,12.1,7.2,20.7v3.1h-41.2c0.6,10.8,8,16.2,18.3,16.2c7.3,0,14-2.2,20.3-6.7v10.8
			c-5.8,4.1-13,6.1-21.3,6.1c-9.7,0-17.2-2.7-22.5-8c-5.3-5.3-7.9-12.4-7.9-21c0-8.2,2.6-15,7.8-20.5c5.3-5.6,12-8.4,20-8.4
			C390.5,105.3,396.9,107.9,401.6,113.2z M368,128.4h28.8c-1.4-8.3-6.4-13.4-14-13.4C374.9,115,369.4,120.5,368,128.4z"/>
		<path fill="#FFFFFF" d="M461.2,107.9v11c-3.5-2.1-7.5-3.1-12.2-3.1c-10.5,0-18.3,7.2-18.3,18.9c0,5.6,1.6,9.9,4.8,13.2
			c3.3,3.2,7.7,4.8,13.2,4.8c5.6,0,10.4-1.4,14.5-4v10.8c-4.5,2.5-10.3,3.7-17.4,3.7c-9,0-16-2.6-20.9-7.9
			c-4.9-5.3-7.4-12.1-7.4-20.4c0-8.5,2.7-15.6,8.3-21.2c5.6-5.6,12.7-8.4,21.3-8.4C452.6,105.4,457.4,106.2,461.2,107.9z"/>
		<path fill="#EF4123" d="M500.7,116.5l24.1-30.2l-0.1-0.5h-34.9v-5.7h46.7v1.6l-24.1,29.3c15.4,0,25,9.5,25,25.4
			c0,8-2.7,14.5-8.1,19.3c-5.3,4.8-11.9,7.3-19.5,7.3c-9.4,0-17.2-2.4-23.3-7.2v-7.9c6.7,6.1,14.6,9,23.4,9c6.2,0,11.2-1.9,14.9-5.7
			c3.9-3.8,5.8-8.7,5.8-14.5c0-13.4-8.5-19.9-21-19.9c-2.5,0-5.1,0.4-7.8,1L500.7,116.5z"/>
		<path fill="#EF4123" d="M554,161.9V80h26c11.4,0,20.5,3.7,27.3,11.1c6.8,7.3,10.2,17.2,10.2,29.5c0,12.4-3.3,22.4-9.8,29.9
			c-6.5,7.5-15.4,11.4-26.6,11.4H554z M602.9,96.1c-5.1-6.4-12.7-9.7-22.8-9.7h-19.3v68.9h19.9c19.7,0,30-13.6,30-34.5
			C610.7,110.8,608.1,102.5,602.9,96.1z"/>
		<g>
			<g>
				<polygon fill="#DA4128" points="124.5,8.6 45.5,17.1 60.3,56.9 				"/>
			</g>
			<g>
				<polygon fill="#D1494A" points="124.5,8.6 158.1,92.1 175.6,79 				"/>
			</g>
			<g>
				<polygon fill="#F37860" points="158.1,92.1 60.3,56.9 124.5,8.6 				"/>
			</g>
			<g>
				<polygon fill="#C42127" points="158.1,92.1 137.6,162.6 175.6,79 				"/>
			</g>
			<g>
				<polygon fill="#EF4123" points="158.1,92.1 69.1,146.7 137.6,162.6 				"/>
			</g>
			<g>
				<polygon fill="#EF4123" points="69.1,146.7 60.3,56.9 5.8,99 				"/>
			</g>
			<g>
				<polygon fill="#AA2024" points="60.9,162.3 137.6,162.6 69.1,146.7 				"/>
			</g>
			<g>
				<polygon fill="#C53928" points="5.8,99 45.5,17.1 60.3,56.9 				"/>
			</g>
			<polygon fill="#891A1C" points="69.1,146.7 5.8,99 60.9,162.3 			"/>
			<g>
				<polygon fill="#F8AB98" points="60.3,56.9 158.1,92.1 69.1,146.7 				"/>
			</g>
		</g>
	</g>
</g>
</svg>
