<?xml version="1.0" encoding="utf-8"?>
<!-- Generator: Adobe Illustrator 19.0.0, SVG Export Plug-In . SVG Version: 6.00 Build 0)  -->
<svg version="1.1" xmlns="http://www.w3.org/2000/svg" xmlns:xlink="http://www.w3.org/1999/xlink" x="0px" y="0px"
	 viewBox="0 0 335.1 426.6" style="enable-background:new 0 0 335.1 426.6;" xml:space="preserve">
<style type="text/css">
	.st0{display:none;}
	.st1{display:inline;fill:none;stroke:#D4D2CC;stroke-width:2;stroke-miterlimit:10;}
	.st2{display:inline;fill:#FFFFFF;}
	.st3{display:inline;fill:#FFFFFF;stroke:#D4D2CC;stroke-miterlimit:10;}
	.st4{display:inline;fill:none;stroke:#D4D2CC;stroke-miterlimit:10;}
	.st5{display:inline;fill:#FFFFFF;stroke:#D4D2CC;stroke-linecap:round;stroke-linejoin:round;stroke-miterlimit:10;}
	.st6{display:inline;}
	.st7{clip-path:url(#SVGID_2_);fill:#FFFFFF;stroke:#D4D2CC;stroke-miterlimit:10;}
	.st8{fill:#F6872A;}
	.st9{display:inline;fill:none;stroke:#D4D2CC;stroke-width:2;stroke-linecap:round;stroke-miterlimit:10;}
	.st10{fill:#F6862A;}
	.st11{fill:#D4D2CC;stroke:#FFFFFF;stroke-linecap:round;stroke-linejoin:round;stroke-miterlimit:10;}
	.st12{fill:none;stroke:#FFFFFF;stroke-linecap:round;stroke-linejoin:round;stroke-miterlimit:10;}
	.st13{fill:#43ACE1;}
	.st14{fill:#FFFFFF;}
	.st15{fill:#D4D2CC;}
</style>
<g id="Layer_1" class="st0">
	<path class="st1" d="M289,202c0,4.6-3.9,8.2-8.6,8l-175-7.7c-4.7-0.2-8.6-4.1-8.6-8.7L97.2,44c0-4.6,3.9-8.2,8.6-8l175,7.7
		c4.7,0.2,8.6,4.1,8.6,8.7"/>
	<path class="st2" d="M283.6,191.4c-12.5-8.7-38.5-12.4-70.6-14.4V32.6c44.9,2.9,77.5,11.9,77.5,22.4c0,3.1-2.6,6-6.9,8.7l0,0V208
		l0,0c4.3-2,6.4-5.6,6.9-7.9V55"/>
	<path class="st3" d="M286.5,197.9c0,2.3,0.4,3.9-2.9,6l-81.9,2.3l11.5-27.8C255.3,180.5,286.5,188.4,286.5,197.9z"/>
	<path class="st3" d="M255.4,205.9c0,7.2-24.4,13.1-54.5,13.1c-30.1,0-54.5-5.9-54.5-13.1c0-7.3,24.4-13.1,54.5-13.1
		C231,192.7,255.4,198.6,255.4,205.9z"/>
	<line class="st4" x1="202.3" y1="30.7" x2="202.3" y2="178.2"/>
	<path class="st3" d="M206.6,37.3c0-0.9-2.2-1.3-2.8-1.3h-0.9c-0.6,0-2.7,0.4-2.7,1.3v58c0,0.9,2.1,2.7,2.7,2.7h0.9
		c0.6,0,2.8-1.8,2.8-2.7V37.3z"/>
	<path class="st3" d="M206.6,111.9c0-0.9,0-1.1-0.7-1.1h-3.1c-0.6,0-2.7,0.2-2.7,1.1v58c0,0.9,2.1,0.8,2.7,0.8h0.9
		c0.6,0,2.8,0.1,2.8-0.8V111.9z"/>
	<path class="st3" d="M118.9,137.3c0-0.9,2.6-0.8,2-0.8h-3.1c-0.6,0-1-0.1-1,0.8v41.6c0,0.9,0.4,2.6,1,2.6h3.1c0.6,0-2-1.7-2-2.6
		V137.3z"/>
	<line class="st4" x1="116.8" y1="37" x2="116.8" y2="186.7"/>
	<path class="st3" d="M123.2,49.2c0-0.9,0.6-2.6-0.7-2.6h-6.1c-1.3,0-3.9,1.7-3.9,2.6v41.6c0,0.9,2.7,0.8,3.9,0.8h6.1
		c1.3,0,0.7,0.1,0.7-0.8V49.2z"/>
	<path class="st3" d="M283.6,191.4c-12.5-8.7-38.5-12.4-70.6-14.4V32.6c44.9,2.9,77.5,11.9,77.5,22.4c0,3.1-2.6,6-6.9,8.7l0,0V208
		l0,0c4.3-2,6.4-5.6,6.9-7.9V55"/>
	<polygon class="st5" points="264,58 269,53 267.2,49.2 262.2,54.1 	"/>
	<polygon class="st5" points="267.2,49.2 250.9,44.2 245.8,49.2 262.2,54.1 	"/>
	<polygon class="st5" points="245.8,49.2 247.7,53 264,58 262.2,54.1 	"/>
	<polygon class="st5" points="264,164 269,159 267.2,155.2 262.2,160.2 	"/>
	<polygon class="st5" points="267.2,155.2 250.9,150.2 245.9,155.2 262.2,160.2 	"/>
	<polygon class="st5" points="245.9,155.2 247.7,159 264,164 262.2,160.2 	"/>
	<polygon class="st5" points="261.7,145.7 268.3,142.7 267.6,138.4 261,141.4 	"/>
	<polygon class="st5" points="267.6,138.4 251.3,133.4 244.7,136.4 261,141.4 	"/>
	<polygon class="st5" points="244.7,136.4 245.4,140.7 261.7,145.7 261,141.4 	"/>
	<polygon class="st5" points="261.7,109.7 268.3,106.7 267.6,102.4 261,105.3 	"/>
	<polygon class="st5" points="267.6,102.4 251.3,97.4 244.7,100.4 261,105.3 	"/>
	<polygon class="st5" points="244.7,100.4 245.4,104.7 261.7,109.7 261,105.3 	"/>
	<polygon class="st3" points="201.8,207.3 186.7,223.3 172.4,221.8 172.4,200.2 	"/>
	<path class="st1" d="M215,185.3c0,4.9-0.9,9.7-2,10.8l-40.8,41.4c-1.1,1.1-2-1.9-2-6.8l-0.4-158.1c0-4.9,0.9-9.7,2-10.8l40.8-41.4
		c1.1-1.1,2,1.9,2,6.8L215,185.3z"/>
	<g class="st6">
		<defs>
			<polygon id="SVGID_1_" points="279.6,229.5 169.2,229.5 170.7,133.3 281.1,133.3 			"/>
		</defs>
		<clipPath id="SVGID_2_">
			<use xlink:href="#SVGID_1_"  style="overflow:visible;"/>
		</clipPath>
		<path class="st7" d="M249.4,194.4c0-5.9-20.8-10.7-49.2-10.7c-28.4,0-49.2,4.8-49.2,10.7c0,1.4,0,6.6,0,8
			c0,5.9,20.8,10.7,49.2,10.7c28.4,0,49.2-4.8,49.2-10.7C249.4,200.9,249.4,195.8,249.4,194.4z"/>
		<path class="st7" d="M255.4,188.3c0,7.2-24.4,13.1-54.5,13.1c-30.1,0-54.5-5.9-54.5-13.1c0-7.3,24.4-13.1,54.5-13.1
			C231,175.2,255.4,181.1,255.4,188.3z"/>
	</g>
	<g class="st6">
		<path class="st8" d="M231.5,110.8c1-1.5,0.7-3.2-0.8-5.2l-11.5-14.2l-0.4-0.3l-9.6-2l-0.6-2.4l-0.1-0.1l-0.1-0.1
			c-0.5-0.3-0.9-0.5-1.1-0.6v-0.7l0.8-3.5l0.6-0.9l0.4-1.3v-0.4l-0.2-0.5l-0.3-0.3l-0.1-1.2l-0.4-1.9l0.1-1.2l-0.3-0.6l-0.6-0.7
			c-0.3-0.8-0.7-1.1-1.1-1.1l-0.5,0.1c-0.2,0-0.3-0.2-0.4-0.6h-0.4l-0.3,0.1l-0.6-0.2l-1.2-0.3c-0.3,0-0.6,0.1-0.9,0.3l-0.8,0.3
			l-0.8-0.4c-0.1,0-0.3,0.1-0.5,0.3l-0.5,0.3l-0.3-0.2l-1,0.4l-0.7,0.4l-0.5-0.3c-0.7,0.5-1,0.9-1,1c-0.3,0,0.1,1.6,0.8,1.8h0.1
			l0.1,0.7c-0.4,0.8-0.5,1.4-0.5,1.8l0.3,0.9l0.3,1.1l-0.2,1.5v0.5l1.1,2.1l0.1,0.8c0.4,1.4,0.8,2.2,1.2,2.4h0.2l-0.1,0.3l-0.3-0.1
			c-0.2,0-0.7,0.4-1.3,1.1l-0.2,0.2c-0.1,0.1-0.1,0.3,0,0.4l-0.6-0.2l-7.5-0.4l-1,1.9c-7.1,10.2-11,15.7-12,16.6
			c-0.7,4.8-0.4,7,0.9,6.5c-0.6,0.3-1,0.4-1.1,0.5l0.1,0.7c0.1,0.3,0.7,0.5,1.7,0.8l-0.1,0.1c-0.9,0.1-1.4,0.3-1.4,0.4l0.1,0.3
			l0.1,0.2l0.4,0.3l0.1,0.1l0.3,0.2l0.5,0.2l0.4,0.1c-1,4-1.8,8.2-2.5,12.7l-0.1,0.4l1.4-0.2l13.8-2.6c-0.3,2.2-0.9,4.5-1.7,7l0,0
			l0,0c0,0,0,0,0,0l-0.2,0.7l0.1-0.1c-1.3,8.4-3.2,17.3-5.8,26.6l-3,11l-1.6,0.7l-0.5,3.7l-2.7,2.9v4.3l-4.6,3.6
			c-0.5,1.4,0.8,2,3.9,2l8.9-2.9v-2l3.3-2.6l0.2-0.5c5.7-15.4,9.8-27.1,12.3-35.2l1.8-6.4l2,0.1v0.8l2.3,40.9l1.7,1.7l0.5,2
			c0.1,0.4,0.5,0.9,1.3,1.4l1.6,1.3l1.7,2.9c3.6,1.2,5.7,1.1,6.5-0.3l-3.6-8.5l0.2-0.5l1.7-4.4l-2.7-35.8l-0.1-0.9l-0.9-11.5
			l-0.1-1.1l5.9,1.6h0.2v2.3c2.2-1,4.3-2,6.5-3l-1.7-8.4l0.4-0.3c1.3-0.9,1.9-1.5,1.7-1.7c-0.7-0.4-1.3-0.6-1.7-0.6
			c0.9-0.2,1.2-0.6,1-1.3v-0.1l-0.5-0.2l0.2-0.1L231.5,110.8z"/>
	</g>
	<path class="st3" d="M97,41.3c0,4.1,0.2,17.6,0.2,17.6c12.8,9,39.9,12.4,64.3,13.7c5.7,0.3,6.6,2.2,6.6,2.9v146.2
		c0,1.2-0.9,1.3-2.1,1.2c-45.6-3.1-75.6-12.2-75.6-22.8c0,0,0-112.8,0-150.2C90.5,42.1,97,41.3,97,41.3z"/>
	<path class="st4" d="M97,41.3c-6.4,1-6.7,6.2-6.5,9.6C91.1,61.2,120,69.8,164.8,73"/>
	<path class="st4" d="M173.5,59.5L173.5,59.5c5.3,0,7.5,4.5,7.5,10l1.1,151.3c0.6,12.6-2.1,11.1-4,11.1"/>
	<path class="st3" d="M178.8,72.7c0-0.9,0.7-1.7,1.6-1.7h3.2c0.9,0,1.6,0.8,1.6,1.7v61.6c0,0.9-0.7,1.7-1.6,1.7h-3.2
		c-0.9,0-1.6-0.8-1.6-1.7V72.7z"/>
	<path class="st3" d="M178.8,155.5c0-0.9,0.7-1.7,1.6-1.7h3.2c0.9,0,1.6,0.8,1.6,1.7v61.6c0,0.9-0.7,1.7-1.6,1.7h-3.2
		c-0.9,0-1.6-0.8-1.6-1.7V155.5z"/>
	<path class="st3" d="M264.3,65.6c0-0.9-0.6-1.9-1.2-1.9h-2c-0.6,0-1,1-1,1.9v58c0,0.9-0.1,2.2,0.6,2.2h3.1c0.6,0,0.6-1.3,0.6-2.2
		V65.6z"/>
	<path class="st3" d="M264.3,140.3c0-0.9,0-1.6-0.6-1.6h-3.1c-0.6,0-0.6,0.7-0.6,1.6v58c0,0.9-0.3,2.4,0.3,2.4h3.1
		c0.6,0,0.9-1.5,0.9-2.4V140.3z"/>
	<line class="st4" x1="260.1" y1="42.8" x2="260.1" y2="209.1"/>
	<line class="st9" x1="105.8" y1="36" x2="280.8" y2="43.7"/>
	<path class="st9" d="M280.8,43.7c0.5,0,2.3,0.3,2.7,0.5"/>
	<path class="st3" d="M290.5,55v145c-0.5,2.3-2.6,5.9-6.9,7.9l0,0V63.8l0,0C287.9,61.1,290.5,58.1,290.5,55"/>
</g>
<g id="Layer_2">
	<g>
		<path class="st10" d="M274.7,43c0-0.7-3,0.2-3.2,0.2c1.1-5.1,1.1-10,0-15.5c-0.7-3.3-1.2-5.6-3.3-8.5c-1-1.4-2.5-2.9-4.2-3.7
			c-4.4-2-8.6-4.5-13.2-6.6c-4.9-2.2-13.6-2-18.3,0.2c-4.5,2.1-8.3,3.4-12,6.8c-6.5,5.8-8.5,12.3-9.3,20.8
			c-0.3,3.3,0.9,7.6,0.2,10.7c-3.7-0.4,1.1,9.1,1.8,11c0.9,2.5,1.1,12.8,5.4,10.9c1.3,2.5,3.5,12.8,6.5,13.2
			c0.3,4.9,0.8,9.4,1.2,14.2c0.3,3.5,1.3,5.6,0.3,9.2c-0.4,1.4-1.1,3.1-0.9,4.6c-1.3-0.1-2.2,0.5-2.4,1.8c-2.2,0.8-4.8,0.6-6.9,1.2
			c-7.8,2.1-14.5,5.5-21.3,9.9c-8.9,5.8-4.3,16.7-7.6,25.4c-3.2,8.7-3,16.6-3,25.7c0,4.1-0.2,7.7-1.5,11.5c-1.3,4-0.3,2.6,2.1,5.3
			c0,5.1-1.2,10.1-2.5,15c-1.2,4.5-1.5,9-2.9,13.4c-3,9.7-8,18.9-9,29.1c-1,9.6-1.6,19.3-2.6,28.7c-0.4,3.8-0.9,11.8-3.6,14.8
			c0.2,4.2-3.8,9.9-4.6,14.1c-0.6,3.3,0.5,7,1.5,10.2c1,3.1,2.1,6.5,3.6,9.5c1,1.9,3.4,4.2,3.4,6.4c0,2.6-0.5,3.2,0.4,5.9
			c0.9,2.6,1.8,5.2,2.8,7.8c2.3,6.2,2.8,12.8,4.3,19.2c1.8,7.8,4,15.8,6,23.5c2.1,7.9,4.7,15.7,6.7,23.7c1.8,7.3,2.1,13.8,5.8,20.6
			c1.3,2.5,3.8,4.8,4,7.6c0.3,4.3-1.7,7.9,0.3,12.2c1.5,3.3,3,6.4,3.3,10.4c2.9,0.6,3.2,2.3,3.8,4.7c0.4,1.6,0.5,1.9,1,2.9
			c0.8,1.3,2.2,2.2,2,3.6c-0.2,1.8-2.7,2.3-2.5,4.2c0.2,1.9,1,0.6,1.6,1.8c0.5,1.1,0.5,2.2,1.1,3.3c2.1,3.8,0.4,7.7,0.9,12
			c0.7,6.6,3,13.1,4.5,19.6c1.6,7.4,4,14.5,5.6,21.7c1.3,6.1,0.6,10.8-1.1,16.7c-1.5,5.3-4.1,12.3-3.6,17.9c1.5,1.4,3.4,2.5,4.4,4.2
			c0.3-0.4-0.6,0.3,0.3,0.6c0.5,1.6,0,3-0.3,4.6c-0.5,2.2-0.3,3.6,0,5.8c0.4,2.4,0.5,3.7-0.8,5.8c-1,1.6-2.2,2.1-2.5,4.1
			c0.5,0.4,0.7,1.2,1.1,1.5c-1.8,0.3-5.6,2.2-4.8,4.2c-2-0.5-4.3,2.9-5.8,4.1c-3,2.3-5,5.3-8.7,7c-3.6,1.6-7.9,2.3-11.4,3.9
			c-3.5,1.7-6.4,3.5-10.5,4.4c-2.7,0.6-5.3,0.6-7,3.1c-1,1.4-0.9,2.9-2.1,4.2c2.2,5.2,11,8.8,16.2,9.3c8.2,0.9,16.3-1.6,24.2-3.3
			c4-0.9,7.4-1.8,10.8-4c3.1-2,6.4-5.1,10-5.8c1.5-0.3,3.4-0.5,4.9-0.6c1.2-0.1,3.6-0.2,3,0.6c0.3-0.3,2.1,1,2.3,1.1
			c1.3,0.7,0.9,1,2.8,1.3c2.6,0.5,5.9,0.2,8.6,0c3.9-0.2,8.1-0.8,11.5-2.9c4.5-2.8,3.3-6.8,3.1-11.6c-0.1-1.8,0.5-6.4-0.9-7.4
			c3.5-3.5-2.4-8.1,1.7-11.4c-0.5-1.5,0.1-4.2-2.1-4.4c0-1.6,1.2-3.2,0.9-4.8c-0.2-1.2-1.2-2.4-1.5-3.5c-0.5-1.9-0.3-1.3-0.2-3.1
			c0.2-4.5,0-8.4-0.4-12.9c-0.3-4,1.1-8.2,0.9-12.3c-0.1-3-0.7-5.9-0.9-9c-0.2-3.8-0.3-8-0.8-11.8c-0.5-3.7-1.5-7.5-1.6-11.1
			c-0.1,2.8,2.7,6.4,3.7,9c1.3,3.3,2.1,5.4,2.2,9c0.2,5.8,2.7,11,3.2,16.6c0.4,3.9-0.8,7.4-0.5,11.4c0.1,2.2,0.5,4.3,0.6,6.5
			c0.4,8-1.1,15.8-1.2,23.8c0,3,0.9,7.1,0.3,9.8c-0.5,2.2-2.3,4.4-1.8,6.8c0.5,2.3,3.5,6.4,4.8,8.3c1.9,2.8,2,2.4,0.6,4.8
			c-1.1,1.9-2.2,2.4-1.8,5c0.4,2.8,1.9,8,3.6,10c0.3-0.7,0.5-0.5,0.6-1.4c-0.3,3,0.3,5.3-0.5,8.3c-0.5,2-1,3.9-1.3,5.9
			c-1.1,7.1-1.9,14.3-2.9,21.5c-0.6,4.1-2.7,12.8,2.7,14.7c2.8,1,7.7,0.8,10.7,0.6c3.4-0.2,7.2-0.4,10.4-1.5
			c6.2-2.1,13.9-7.3,16.6-13.3c1.2-2.6,1.1-4.8,0.9-7.6c-0.1-1.3,0.2-3-0.3-4.2c-0.4-1.1-1.7-1.7-2.2-2.7c-0.8-1.5-0.7-1.7-0.4-3.9
			c0.4-2.5,0.5-5.1,0.5-7.6c0-1.9-0.3-8-2.6-8.3c0,0.1,0-0.9,0-0.8c0.4,0.2,1,0.4,1.4,0.6c1.7-1.1,0.5-2.5,0.6-3.9
			c0.2-2.1,0.8-2.5,1.8-4.4c1.8-3.3,0.2-6.2,0.3-10c0.1-1.9,0.4-1.6,0.7-3.2c0.3-1.5,0.2-3.3,0.2-5c0-4.7-0.4-8.9-1.1-13.5
			c-0.7-4.8,0.2-10,0.2-14.9c0-3.9-0.2-8,0.4-11.7c1-6.6,0.4-12.6,0.2-19.2c-0.1-2.7-0.7-5.2-0.9-7.8c-0.2-2.3,0.5-4.8,0-7.1
			c-0.3-1.8-1.7-3.3-2.1-5.2c-0.4-2-0.1-4.3-0.3-6.3c-0.4-4.1-0.6-8.6-1.5-12.6c-0.6-2.9-1.8-5.2-3.8-7.4c2.9-2.3,1.3-3.3,1.3-6.1
			c-0.1-2.9,1.1-3.4-1.1-6c-1.3-1.6-3.4-3.3-4.2-5.5c-1.1-2.9,0.2-5.7-0.6-8.4c-0.4-1.3-1.5-1.6-1.9-2.7c-0.6-1.4-0.4-2.7-0.5-4.3
			c-0.7-0.1-1.8-0.2-2.4,0c-0.9-1.7,2.9-4,2.7-6c-0.3-2.6-1.6-4.9-2.8-7.2c-2.8-5-3.6-7.5-3.1-13.2c0.2-2-0.4-4.5,0.2-6.3
			c1-3,3.1-4.2,3.7-7.7c0.6-3.6,0.9-6.3-0.3-9.8c-0.8-2.3-2-5-1.8-7.6c0.2-2.9,2.5-10.6,0.6-12.6c-1.6-1.6,0.1-4.1,0.6-6.4
			c0.7-3.3-0.5-6.9,0-10c3.1-0.8,2.5-5.5,2-7.8c-0.4-2-1.1-3.4-1.7-5.3c-1.1-3.2,0.1-5.4,0.5-8.4c0.3-2.5,0.9-6.5,0.6-8.9
			c-0.2-2.7-1.5-5-1.5-7.8c0-2.6,0.2-3.8-0.6-6.2c-0.7-2.2-1.4-4.5-1.5-6.8c-0.3-4.7,1.4-10.3,0.6-14.9c-0.3-0.1-0.5,0-0.8-0.1
			c-0.5-1.1,0-2.1,1.1-2.7c-0.3-1-0.3-2.2,0.1-3.2c1.4-4.1,6.1-11.3,9-15c4.8-6.2,9.3-12.8,13.4-19.6c5.6-9.4,11.1-19.2,14.9-29.2
			c0.7-1.9,1.5-3.3,1.5-5c0-1.9-1.9-3.8-1.4-5.3c-0.3-0.1-0.6-0.1-0.9-0.1c0-3.9,1.8-5.2,2.3-9c0.6-4.4,0.5-8.2-0.2-12.4
			c-0.7-4.2,0.4-8.3,0.2-12.6c-0.1-3.1,0.2-6.2-0.1-9.2c-0.3-2.9-0.6-6.2-1.3-8.8c0.4,0,1-0.1,1.4-0.1c-0.3-2.9-0.1-5.7-0.3-8.6
			c-0.1-2.5,0.5-4.5,0.6-6.9c0.2-2.9-0.9-5.5-1.2-8.2c-0.6-5.1,0.1-10.3-1.4-15.1c-1.4-4.5-2.2-9-3.4-13.5c-0.8-3-1.1-6-1.8-8.9
			c-0.5-2.2-2.4-4.7-3.8-6.4c-1.7-2.1-4.1-3.8-6.4-4.9c-3.4-1.6-6.7-4.1-10.5-4.8c-3.6-0.7-6.4-2.2-9.6-3.8c-3.3-1.6-6.9-2.4-10.3-4
			c-1.8-0.8-3.1-2.3-3.5-4.4c-2.4-0.1-5.1,0.6-7.2-0.5c-1.7-0.8-3.3-3.1-4.4-4.6c-2.4-3.1-1.5-7.8-1.5-11.6c0-4.6,0.4-7.6,1.8-11.4
			c1-2.6,0.5-5.1,0.7-8.1c2.2,0.3,3.6-2.1,4.1-3.9c0.4-1.1,0.1-2.2,0.3-3.4c0.2-1.3,0.8-2.2,1.1-3.4c0.4-1.8,0-3.8,0.4-5.7
			C274.4,47.9,274.9,45.6,274.7,43z"/>
	</g>
</g>
<g id="Layer_3" class="st0">
	<g id="vMGmOm_1_" class="st6">
		
			<image style="overflow:visible;" width="828" height="1002" id="vMGmOm_2_" xlink:href="70970C21828F6C28.png"  transform="matrix(0.5 0 0 0.5 33 -86.1968)">
		</image>
	</g>
</g>
<g id="Layer_4">
	<path class="st11" d="M177.3,67.7c2.2-12.2-8.4-19.1-16.9-23.6c-20.6-10.6-22.4-9.8-24.6-9.3c-2.2,0.5-4.1,1.2-4.1,1.2l-1.4,5.5
		l9.4,33.4l-4.7,56.4l-4.7,28.9c0,0,2.5,1.5,4.7,2.2c2.2,0.7,6.2,5,8,5c1.8,0,1.8-1.8,2.6-4c0,0,0.9-0.4,2.4-1.2
		c1.4-0.7,4.6-2.3,7.4-4.3l0,0c1-0.7,1.9,3.2,2.6,2.4c0.7-0.7,2.5-6.2,2.5-6.2l0,0c1.1-2.2,1.5-5,2.1-7.3c0.8-3.1,4-24.6,6.9-38.6
		c2.1-2.2,4.1-6.1,5.2-10.7c1.1-4.5,1-8.5,0-11c-0.1-0.4-0.3-0.8-0.4-1.1C174.3,85.5,175.1,79.8,177.3,67.7z"/>
	<path class="st12" d="M145.7,163.4c7.5-3,8.3-8.1,10.6-16.5c1.1-3.9,6.2-30.8,7.6-38.1c-1.5-2.2-1.8-6.7-0.6-12
		c0.9-3.9,2.5-7.4,4.3-9.7c0.1-0.7,0.6-6,2.5-16.9c2.1-11.7-9.3-17.6-12.4-19.6c-3.2-2.1-21.7-11.5-21.8-15.9"/>
	<path class="st13" d="M78.2,135.8c0-0.1,0-0.1,0-0.2"/>
	<path class="st11" d="M151.3,65.5c1.4-8.4-2.1-13.8-6.8-16.7C139.8,46,130,40.1,131.7,36l-1.4,1.9c-3.6,4.1-11.9,15.5-19.9,31.6
		c-1.7,3.5-3.5,7.3-5.1,11.3c-4.8,11.6-9.1,24.9-11.4,39.3c3,12.2,7.5,27.8,10.2,29.4c2.8,1.7,22.8,10.1,26.1,10.6
		c3.3,0.6,13.3,0.3,15.3-10.1c2.1-10.4,3.7-18.4,3.9-19.4c0-2.9,0.7-3.9-1.1-9.3c-1.8-5.4-2.8-9.1-3.2-13.3
		c-0.4-4.1-1.2-4.8,0.3-11.9C147,89.4,149.9,73.9,151.3,65.5z M128.2,126.4c-0.9,2.3-4.5,3.5-5.4,2.9c-0.9-0.6-5.9-10.8-5.9-10.8
		l5.9-31.9c2.2-1,4.5-2.3,6.5-1.1c2.1,1.2,4.3,7.2,4.3,9.8C133.6,97.9,129.1,124,128.2,126.4z"/>
	<g>
		<path class="st14" d="M-42.7,147.4c-0.5,0-0.9,0-1.4-0.1c-4.5-0.6-6.1-5.5-7.5-9.4l-0.2-0.4c-0.3-0.8-0.7-1.4-1.1-2.1
			c-0.4-0.7-0.9-1.4-1.1-2.2c-0.3-0.9-0.3-1.8-0.2-2.7c0-0.7,0.1-1.3-0.1-1.9c-0.1-0.6-0.4-1.1-0.6-1.7c-0.3-0.6-0.5-1.3-0.7-2
			c-0.2-1.1-0.6-2.2-0.9-3.3c-0.9-3.1-1.9-6.2-0.7-9.4l0.2-0.7c1.2-3.1,1.6-4.3,5-6.2c2.4-1.3,4.4-2.1,7.7-2.8
			c4.7-1,9.7-1.6,14.6-2.2c1.9-0.2,3.8-0.4,5.6-0.7c1.6-0.2,3.5-1.1,5.5-2.1c2.6-1.2,5.2-2.5,7.5-2.5c1.6,0,2.9,0.7,3.8,2
			c0.2,0.3,0.8,0.6,3.1,0.6c0.6,0,1.2,0,1.8,0c0.5,0,1.1,0,1.5,0c0.5,0,0.8,0,1.1,0.1C1,97.7,1.8,97.9,2.6,98
			c2.7,0.4,5.3,0.8,8.1,0.9c3,0.1,6.2,0.3,9.4,0.3c5,0,9.1-0.3,12.5-1c2.2-0.4,4.4-0.6,6.5-0.8c1.8-0.1,3.7-0.3,5.5-0.6
			c1.8-0.3,3.7-0.7,5.4-1.2c1.7-0.4,3.5-0.8,5.3-1.1c1.5-0.2,2.9-0.7,4.3-1.1c2-0.6,4.1-1.3,6.3-1.3h0.4c4.4,0,7.6-0.2,11.6-2.2
			c3.7-1.9,6.9-4.6,10-7.3l0.6-0.5c0.9-0.8,2-1.9,3.1-3.1c2.9-3.1,6.3-6.7,9.7-7c0.1,0,0.3,0,0.4,0c0.9,0,1.7,0.3,2.4,0.6
			c0.3,0.1,0.6,0.3,1,0.3c1,0.3,2,0.5,3,0.7c0.1,0,0.2,0,0.3,0.1l0.4,0.2l-0.2,0.4c-1,2.1-1.8,4-2.6,6l-0.1,0.2l-0.2,0.1
			c-0.2,0.1-0.5,0.1-0.8,0.1c-0.2,0-0.4,0-0.6,0c0.7,0.9,1.5,1.5,2.8,1.7c0.7,0.1,1.5,0.1,2.3,0.1c0.7,0,1.4,0,2.1,0.1
			c5.1,0.5,9.6,1.3,13.6,2.5l0.1,0c0.6,0.2,1,0.3,1.6,0.6c0.1,0.1,0.2,0.1,0.4,0.1c0.3,0.1,0.7,0.2,0.9,0.5c0.4,0.4,0.6,1.3,0.7,1.6
			c0.3,1.4,0.4,3,0.5,4.6l0,0.2c0,0.4,0,0.8-0.2,1.3c-0.1,0.2-0.2,0.4-0.4,0.6c-0.2,0.3-0.4,0.5-0.3,0.7c0,0.1,0.2,0.2,0.4,0.4
			c0.2,0.2,0.6,0.5,0.7,0.9l0,0.1c0.2,0.6,0.4,1.3,0.4,1.9c0,0.9-0.1,2-0.3,2.9c-0.2,0.8-0.5,1.9-1.1,2.7c-0.1,0.2-0.3,0.3-0.5,0.4
			c-0.1,0.1-0.2,0.2-0.3,0.2c-0.1,0.2,0,0.5,0.2,1c0.1,0.3,0.3,0.6,0.3,0.9c0.2,1-0.1,2-0.2,2.8c-0.3,1.4-0.6,2.8-1.7,3.8
			c-0.6,0.6-0.9,1-0.9,1.7c0.1,0.8,0.1,1.9-0.1,2.8c-0.3,1-0.7,2.2-1.2,3c-0.5,0.8-1.4,1.4-2.5,1.6c-1.8,0.3-3.7,0.4-5.6,0.4
			c-2.3,0.1-4.7,0.2-7,0.8c-1.8,0.5-3.4,1.2-5,1.9c-2.6,1.1-5,2.2-8.2,2.2c0,0,0,0,0,0c-0.5,0-1,0-1.5-0.1c-4.6-0.5-9-2.3-13.2-4.1
			l-1.4-0.6c-0.4-0.2-0.7-0.2-1.1-0.2c-0.7,0-1.4,0.3-2.1,0.6c-0.7,0.3-1.3,0.6-2.1,0.7c-0.9,0.1-1.9,0.2-2.9,0.3
			c-2,0.2-4.1,0.4-5.9,1.1c-2.6,0.9-5.5,2.2-7.7,3.2c-6.2,2.7-12.6,5-18.9,7.3c-2.6,0.9-5.3,1.9-7.9,2.9c-7.5,2.8-15.5,5.1-24,6.8
			c-3.2,0.7-6.6,1-10.6,1c-2.7,0-5.5-0.1-8.3-0.3l-0.8,0c-2.1-0.1-4.2-0.2-6.3-0.4c-3.8-0.3-7.7-0.5-11.6-0.5c-0.9,0-1.8,0-2.7,0
			c-2,0.1-2.6,0.1-4.6,0.9C-39.4,147-41.1,147.4-42.7,147.4z"/>
		<path class="st15" d="M101.8,72.5c1.2,0,2.1,0.6,3.2,0.9c1,0.3,2,0.5,3.1,0.7c0.1,0,0.1,0,0.1,0c-0.9,1.9-1.8,3.9-2.7,6
			c-0.2,0.1-0.4,0.1-0.7,0.1c-0.4,0-0.8-0.1-1.1-0.1c-0.1,0-0.1,0-0.2,0c0,0.1,0,0.3,0.1,0.4c0.9,1.3,1.9,2.1,3.4,2.3
			c1.5,0.2,2.9,0.1,4.4,0.2c4.6,0.4,9.1,1.1,13.5,2.4c0.6,0.2,1.1,0.3,1.6,0.6c0.3,0.2,0.9,0.3,1.2,0.5c0.2,0.3,0.5,1,0.6,1.4
			c0.3,1.4,0.4,3,0.4,4.5c0,0.5,0.1,0.8-0.1,1.3c-0.2,0.5-0.9,1-0.7,1.7c0.1,0.6,0.9,0.7,1,1.3c0.2,0.6,0.4,1.3,0.4,1.9
			c0,0.9-0.1,1.9-0.3,2.8c-0.2,0.8-0.5,1.8-1,2.5c-0.2,0.3-0.6,0.4-0.8,0.7c-0.4,0.7,0.4,1.5,0.5,2.2c0.1,0.9,0,1.8-0.2,2.7
			c-0.3,1.3-0.5,2.6-1.6,3.6c-0.7,0.6-1.1,1.2-1,2.1c0.1,0.9,0.1,1.8-0.1,2.7c-0.3,1-0.7,2.1-1.2,2.9c-0.4,0.8-1.3,1.2-2.1,1.4
			c-4.1,0.7-8.5,0.1-12.6,1.2c-4.9,1.3-8.1,4.1-13.1,4.1c-0.5,0-0.9,0-1.4-0.1c-5.1-0.5-9.8-2.7-14.4-4.7c-0.4-0.2-0.9-0.3-1.3-0.3
			c-1.5,0-2.7,1-4.3,1.3c-2.9,0.4-6.1,0.4-8.9,1.4c-2.6,0.9-5.2,2.1-7.7,3.2C49,132,40.1,135,31.1,138.4c-7.7,2.9-15.9,5.1-23.9,6.8
			c-3.6,0.7-7,1-10.5,1c-3,0-6-0.2-9.1-0.3c-6-0.3-11.9-0.9-17.9-0.9c-0.9,0-1.8,0-2.7,0c-2,0.1-2.7,0.1-4.7,0.9
			c-1.6,0.6-3.2,1.1-5,1.1c-0.4,0-0.9,0-1.3-0.1c-4.3-0.6-5.9-5.7-7.3-9.5c-0.6-1.6-1.8-2.8-2.3-4.3c-0.5-1.5,0-3-0.3-4.5
			c-0.3-1.2-1-2.4-1.3-3.7c-0.9-4.1-3.2-8.3-1.7-12.5c1.3-3.6,1.5-4.7,5-6.6c2.5-1.4,4.5-2.1,7.6-2.7c6.5-1.4,13.6-2,20.1-2.8
			c3.6-0.5,9-4.6,13-4.6c1.4,0,2.5,0.5,3.4,1.8c0.4,0.6,1.9,0.8,3.5,0.8c1.2,0,2.4-0.1,3.3-0.1c0.4,0,0.7,0,1,0
			c3.6,0.5,7,1.1,10.6,1.3c3,0.1,6.2,0.3,9.4,0.3c4.3,0,8.7-0.2,12.6-1c4-0.8,8-0.7,12-1.3c3.7-0.6,7.1-1.7,10.7-2.3
			c3.7-0.6,6.8-2.4,10.5-2.4c0,0,0,0,0,0c0.1,0,0.3,0,0.4,0c4.4,0,7.7-0.1,11.8-2.2c3.9-2,7.3-5,10.6-7.9c3.4-2.9,8-9.5,12.6-10
			C101.6,72.5,101.7,72.5,101.8,72.5 M101.8,71.5L101.8,71.5c-0.1,0-0.3,0-0.5,0c-3.6,0.4-7,4-10.1,7.2c-1.1,1.2-2.2,2.3-3.1,3.1
			l-0.6,0.5c-3.1,2.7-6.3,5.4-9.9,7.3c-3.9,2-6.9,2.1-11.4,2.1l-0.4,0c-2.3,0-4.4,0.7-6.5,1.3c-1.3,0.4-2.7,0.9-4.2,1.1
			c-1.8,0.3-3.6,0.7-5.3,1.1c-1.7,0.4-3.6,0.8-5.4,1.1c-1.8,0.3-3.7,0.4-5.5,0.6c-2.2,0.2-4.4,0.3-6.6,0.8c-3.4,0.7-7.5,1-12.4,1
			c-3.2,0-6.4-0.1-9.4-0.3c-2.7-0.1-5.3-0.5-8.1-0.9c-0.8-0.1-1.7-0.2-2.5-0.4c-0.3,0-0.7-0.1-1.1-0.1c-0.5,0-1,0-1.5,0
			c-0.6,0-1.2,0-1.8,0c-2.2,0-2.6-0.3-2.7-0.4c-1-1.5-2.4-2.2-4.2-2.2c-2.4,0-5.1,1.3-7.7,2.5c-2,1-3.9,1.9-5.4,2
			c-1.8,0.2-3.6,0.5-5.6,0.7c-4.9,0.6-9.9,1.2-14.7,2.2c-3.4,0.7-5.4,1.5-7.9,2.9c-3.6,2-4,3.3-5.2,6.5l-0.2,0.7
			c-1.3,3.4-0.3,6.6,0.7,9.8c0.3,1.1,0.7,2.2,0.9,3.3c0.2,0.7,0.4,1.4,0.7,2.1c0.2,0.6,0.5,1.1,0.6,1.6c0.1,0.5,0.1,1.1,0.1,1.7
			c0,0.9-0.1,1.9,0.3,2.8c0.3,0.8,0.7,1.6,1.2,2.3c0.4,0.7,0.8,1.3,1.1,2l0.2,0.4c1.3,3.8,3.2,9.1,7.9,9.7c0.5,0.1,1,0.1,1.5,0.1
			c1.7,0,3.4-0.4,5.3-1.2c1.9-0.8,2.4-0.8,4.4-0.9c0.9,0,1.8,0,2.7,0c3.8,0,7.7,0.3,11.5,0.5c2.1,0.1,4.2,0.3,6.3,0.4l0.8,0
			c2.9,0.1,5.6,0.3,8.4,0.3c4,0,7.4-0.3,10.7-1c8.5-1.7,16.6-4,24.1-6.8c2.6-1,5.3-2,7.9-2.9c6.2-2.2,12.6-4.6,18.9-7.3
			c2.3-1,5.1-2.2,7.7-3.1c1.8-0.6,3.8-0.8,5.8-1c1-0.1,1.9-0.2,2.9-0.3c0.8-0.1,1.6-0.4,2.2-0.7c0.7-0.3,1.3-0.5,1.9-0.5
			c0.3,0,0.6,0.1,0.9,0.2c0.5,0.2,0.9,0.4,1.4,0.6c4.2,1.8,8.6,3.7,13.4,4.2c0.5,0.1,1,0.1,1.5,0.1c3.3,0,5.9-1.2,8.4-2.3
			c1.5-0.7,3.1-1.4,4.9-1.9c2.2-0.6,4.5-0.7,6.9-0.7c1.8-0.1,3.8-0.1,5.6-0.4c1.2-0.2,2.3-0.9,2.8-1.9c0.5-0.9,1-2.1,1.3-3.2
			c0.3-1,0.2-2.1,0.2-3c0-0.4,0.1-0.7,0.7-1.3c1.2-1.2,1.6-2.7,1.8-4c0.2-0.8,0.4-2,0.2-3.1c-0.1-0.4-0.2-0.8-0.4-1.1
			c-0.1-0.1-0.2-0.4-0.2-0.5c0,0,0.1,0,0.1-0.1c0.2-0.1,0.4-0.3,0.6-0.5c0.7-0.9,1-2,1.2-2.9c0.2-1,0.4-2.1,0.3-3.1
			c0-0.7-0.3-1.4-0.4-2l0-0.1c-0.2-0.6-0.6-0.9-0.9-1.1c0,0-0.1-0.1-0.2-0.1c0-0.1,0.1-0.2,0.2-0.3c0.1-0.2,0.3-0.4,0.4-0.7
			c0.2-0.6,0.2-1,0.2-1.5l0-0.2c-0.1-1.6-0.2-3.2-0.5-4.7c0-0.1-0.3-1.3-0.8-1.8c-0.3-0.4-0.8-0.5-1.2-0.6c-0.1,0-0.2-0.1-0.3-0.1
			c-0.6-0.3-1.1-0.5-1.7-0.6l-0.1,0c-4.1-1.2-8.5-2-13.7-2.5c-0.7-0.1-1.4-0.1-2.1-0.1c-0.8,0-1.5,0-2.2-0.1
			c-0.7-0.1-1.2-0.3-1.7-0.7c0.2,0,0.3-0.1,0.4-0.1l0.4-0.2l0.2-0.4c0.8-2,1.7-3.9,2.6-6l0.4-0.8l-0.7-0.5c-0.2-0.1-0.3-0.2-0.5-0.2
			c-1-0.2-2-0.4-2.9-0.7c-0.3-0.1-0.6-0.2-0.9-0.3C103.7,71.8,102.8,71.5,101.8,71.5L101.8,71.5z"/>
	</g>
	<path class="st12" d="M100.9,143.5c0,0,28.7-13,29.6-14.7s6.1-37.1,6.3-39.8c0.2-2.7-1.5-3.8-3.3-4.8c-1.9-1-12.1-4.9-12.1-4.9"/>
	<path class="st12" d="M174.3,70.5l-0.5,0.3c-1,0.6-1.6,1.6-1.8,2.7l-1.4,7.1c-0.1,0.5,0.5,0.8,0.8,0.5l1.4-0.7
		c0.8-0.6,0.9-1.6,1.1-2.6l1.1-6.8C175.2,70.6,174.7,70.3,174.3,70.5z"/>
	<path class="st12" d="M161.1,138.6l-0.5,0.3c-1,0.6-1.6,1.6-1.8,2.7l-1.4,7.1c-0.1,0.5,0.5,0.8,0.8,0.5l1.4-0.7
		c0.8-0.6,0.9-1.6,1.1-2.6l1.1-6.8C162,138.7,161.5,138.4,161.1,138.6z"/>
	<path class="st12" d="M171.7,97.5c-1.2,5.3-3.5,9.4-5.1,9.3c-1.6-0.2-1.9-4.6-0.7-9.8c1.2-5.3,3.5-9.4,5.1-9.3
		C172.6,87.8,172.9,92.2,171.7,97.5z"/>
	<path class="st12" d="M162.1,149.3c-0.8,3-2,7-14,12.9"/>
	<path class="st11" d="M110.5,69.6c-1.7,3.5-3.5,7.3-5.1,11.3"/>
</g>
</svg>
