<?xml version="1.0" encoding="utf-8"?>
<!-- Generator: Adobe Illustrator 19.0.0, SVG Export Plug-In . SVG Version: 6.00 Build 0)  -->
<svg version="1.1" id="Layer_19" xmlns="http://www.w3.org/2000/svg" xmlns:xlink="http://www.w3.org/1999/xlink" x="0px" y="0px"
	 viewBox="0 0 60 59.8" style="enable-background:new 0 0 60 59.8;" xml:space="preserve">
<style type="text/css">
	.st0{fill:#FFFFFF;}
	.st1{fill:#808285;}
	.st2{fill:none;stroke:#F6862B;stroke-width:2;}
	.st3{fill:none;stroke:#F6862B;}
	.st4{fill:#F6862B;}
	.st5{fill:none;stroke:#808285;}
</style>
<g>
	<path class="st0" d="M30.2,57.7c-15.2,0-27.5-12.3-27.5-27.5C2.7,15,15.1,2.7,30.2,2.7c15.1,0,27.5,12.3,27.5,27.5
		c0,7.3-2.8,14.2-8,19.4C44.5,54.8,37.6,57.7,30.2,57.7z"/>
	<path class="st1" d="M30.1,2.4v0.8c15,0,27,12.1,27,27c0,7.2-2.7,14-7.8,19.1c-5.1,5.1-11.9,7.9-19.1,7.9c-14.9,0-27-12.1-27-27
		c0-14.9,12-27,27-27l-0.1-1 M30.3,2.4C30.3,2.4,30.3,2.4,30.3,2.4c-15.5,0-28,12.4-28,27.9s12.5,27.9,28,27.9s28-12.4,28-27.9
		C58.2,14.8,45.7,2.4,30.3,2.4L30.3,2.4z"/>
</g>
<line class="st2" x1="30.2" y1="30.2" x2="20" y2="19.9"/>
<line class="st3" x1="30.2" y1="30.2" x2="45.2" y2="15.3"/>
<g>
	<circle class="st4" cx="30.2" cy="30.2" r="2.3"/>
	<g>
		<path class="st0" d="M30.2,28.4c1,0,1.8,0.8,1.8,1.8S31.2,32,30.2,32s-1.8-0.8-1.8-1.8S29.3,28.4,30.2,28.4 M30.2,27.4
			c-1.5,0-2.8,1.3-2.8,2.8s1.3,2.8,2.8,2.8s2.8-1.3,2.8-2.8S31.8,27.4,30.2,27.4L30.2,27.4z"/>
	</g>
</g>
<line class="st5" x1="29.6" y1="6.4" x2="29.6" y2="9.4"/>
<line class="st5" x1="29.6" y1="49.4" x2="29.6" y2="52.4"/>
<line class="st5" x1="53.1" y1="29.9" x2="50.1" y2="29.9"/>
<line class="st5" x1="10.1" y1="29.9" x2="7.1" y2="29.9"/>
</svg>
