<?xml version="1.0" encoding="utf-8"?>
<!-- Generator: Adobe Illustrator 19.0.0, SVG Export Plug-In . SVG Version: 6.00 Build 0)  -->
<svg version="1.1" id="Layer_1" xmlns="http://www.w3.org/2000/svg" xmlns:xlink="http://www.w3.org/1999/xlink" x="0px" y="0px"
	 viewBox="0 0 364 738" style="enable-background:new 0 0 364 738;" xml:space="preserve">
<style type="text/css">
	.st0{fill:#FFFFFF;}
	.st1{fill:none;stroke:#F5852A;stroke-width:3;stroke-miterlimit:10;}
	.st2{fill:none;stroke:#F5852A;stroke-miterlimit:10;}
	.st3{fill:none;stroke:#F5852A;stroke-width:2;stroke-miterlimit:10;}
	.st4{clip-path:url(#SVGID_2_);fill:#F5852A;}
	.st5{clip-path:url(#SVGID_4_);fill:#F5852A;}
	.st6{clip-path:url(#SVGID_6_);fill:#F5852A;}
	.st7{clip-path:url(#SVGID_8_);fill:#F5852A;}
	.st8{clip-path:url(#SVGID_10_);fill:#F5852A;}
	.st9{clip-path:url(#SVGID_12_);fill:#F5852A;}
	.st10{clip-path:url(#SVGID_14_);fill:#F5852A;}
	.st11{clip-path:url(#SVGID_16_);fill:#F5852A;}
	.st12{clip-path:url(#SVGID_18_);fill:#F5852A;}
	.st13{clip-path:url(#SVGID_20_);fill:#F5852A;}
</style>
<g>
	<path class="st0" d="M348.6,249.1c-1-5,0-74,0-74s2-52-16-79c-21.8-32.8-31-42-107-70s-106-25-110-24s-16,9-21,13
		c-4.9,3.9-5,5.9-6.9,10.7c0-0.1-0.1-0.2-0.1-0.2c-22,78.5-50,155.5-65,258.5s-23,188-21,206c0.5,4.7,1.2,9.6,2.1,14.6l-0.1,0.4
		c4,34,24,102,29,119c5,17,12,32,17,36c5,4,36,18,36,18s61,25,77,29c16,4,28,11,34,17c6,6,10,10,14,11c4,1,11,4,12-3c1-7,4-11,6-14
		c10,0,11-4,15-6c3.6-1.8,35.2-13.5,53-19.4c-0.6,0.2-1,0.4-1,0.4c6,4,15,8,19,6c3.8-1.9,4-16.4,4-17.9c4.3-4.3,7.4-9.5,11-15.1
		c7-11,10-36,11-62c1-26,4-170,4-192c0-22,1-41,2-48c12-23,15-38,16-61C363.6,280.1,349.6,254.1,348.6,249.1z M128.6,504.1
		c-11-16-23-38-24-46s5-90,20-147c2,8,6,31,6,83S128.6,504.1,128.6,504.1z M313.6,686.1c-0.8,0.3-1.8,0.7-2.9,1.2
		c3.1-1.8,5.7-3.8,7.9-6C318.5,681.8,318,684.3,313.6,686.1z"/>
	<path class="st1" d="M87.6,25.6c4.1,11.7,15.5,18,31,26.5s21,9.5,31.5,21.5s19.5,36.5,21.5,55.5s1,107,1,107s-1,100-1,106
		s6,50,15,75s19,55,23,77s4,28,4,57v65c0,14-4,51-23,71s-31,10-39,8s-86-33-92-36s-12-5-20-26s-32.6-94.8-38-143c-2-18,6-103,21-206
		S65.6,104.1,87.6,25.6z"/>
	<path class="st1" d="M124.6,311.1c2,8,6,31,6,83s-2,110-2,110c-11-16-23-38-24-46S109.6,368.1,124.6,311.1z"/>
	<path class="st1" d="M87.6,26.1c2-5,2-7,7-11s17-12,21-13s34-4,110,24s85.2,37.2,107,70c18,27,16,79,16,79s-1,69,0,74s15,31,14,54
		c-1,23-4,38-16,61c-1,7-2,26-2,48c0,22-3,166-4,192c-1,26-4,51-11,62c-7,11-12,20-28,25c-16,5-54,19-58,21c-4,2-5,6-15,6
		c-2,3-5,7-6,14c-1,7-8,4-12,3c-4-1-8-5-14-11c-6-6-18-13-34-17c-16-4-77-29-77-29s-31-14-36-18c-5-4-12-19-17-36
		c-5-17-25-85-29-119"/>
	<path class="st1" d="M116.6,2.1c-5,2-8,7,7,15s77,36,92,44c15,8,28,19,44,46s17,63,17,84s-2,66-2,70s-18,32-18,62s8,47,15,59
		c3,5,2,20,2,22s-3,176-3,176s4,78-8,104c-12,26-22,30-22,30"/>
	<polyline class="st2" points="206.6,661.1 212.6,668.1 258.6,691.1 	"/>
	<polyline class="st2" points="205.6,663.1 212.6,670.1 258.6,693.1 	"/>
	<path class="st2" d="M92.6,17.1c-2,3-1,4,3,8s17,14,37,24s31,28,38,43c7,15,9,35,10,50s1,175,1,199c0,24,2,33,4,42c2,9,26,84,29,96
		s7,30,7,54s-1,87-1,100s-8,38-19,54c-11,16-32,21-45,18"/>
	<path class="st3" d="M124.6,310.1c-2-10-8-25-20-29"/>
	<path class="st2" d="M118.6,295.1c-4,6-9,14-12,38s-15,108-15,130s2,23,7,36s13,29,15,33s5,8,5,8"/>
	<path class="st3" d="M128.6,504.1c-1,11-2,31-10,37s-27,21-31,23s-11,3-16-6"/>
	<path class="st3" d="M130.6,397.1c0,52,0,123-2,133s-5,17-20,28s-31,23-38,23s-13-8-16-15s-29-92-33-103s-5-26-3-48s10-113,18-139
		s19-24,22-24s48,10,55,14c7,4,17,5,18,41S130.6,345.1,130.6,397.1z"/>
	<path class="st2" d="M35.6,620.1c15-12,37-28,59-43s40-23,40-50s3-290,3-307s-4-33-18-48s-35-27-48-43s-8-18-8-20"/>
	<path class="st2" d="M172.6,137.1l7-8c0,0,26-19,63-45"/>
	<path class="st2" d="M172.6,140.1l7-8c0,0,29-21,66-47"/>
	<path class="st1" d="M295.6,693.1c6,4,15,8,19,6s4-18,4-18s0,3-5,5S295.6,693.1,295.6,693.1z"/>
	<path class="st2" d="M329.6,667.1c-6,0-15-1-18,0s-38,13-40,15s-8,3-12,10"/>
	<path class="st3" d="M280.6,587.1c0,7-1,39,1,44s3,11,17,5s15-6,17-8s7-8,7-17s1-40-3-44s-14-3-23,1S280.6,580.1,280.6,587.1z"/>
	<path class="st2" d="M280.4,615c0.1,7.5,0.4,14,1.2,16c2,5,4,5,13,2s14-6,16-8s6-4,6-11s2-41-2-44s-11-2-20,2
		c-6.5,2.9-10.9,5.7-12.8,9.7c3.5,2.3,6.8,9.5,6.8,17.3c0,9.4-3.9,16-8,16C280.6,615.1,280.5,615.1,280.4,615z"/>
	<path class="st2" d="M288.6,574.1c5-1,7-2,9,6s5,26,4,37c-1,4-20,9-20,9"/>
	<path class="st3" d="M291.6,204.1c0,11-0.5,18,1,22c1.5,4,4,7,12,6s22-4,24-9c2-5,3-7,4-18s1-36-3-39s-12-3-21-1s-13,3-15,12
		S291.6,193.1,291.6,204.1z"/>
	<path class="st2" d="M291.6,201.1c0-10,3-25,8-27s17-5,21-3s3,6,3,15s-1,27-3,30s-25,10-28,4C291.6,213.1,291.6,211.1,291.6,201.1z
		"/>
	<path class="st2" d="M291.7,199.4c0,0.6,0,1.1,0,1.7c0,10,0,9,1,16c1,6,22-1,24-4s3-16,3-25s2-14-2-16s-13,0-18,2
		c-1.3,0.5-2.5,2-3.6,4c0.2,0,0.4,0,0.6,0c3.9,0,7,5.6,7,12.5c0,6.9-3.1,12.5-7,12.5C294.7,203.1,292.9,201.6,291.7,199.4z"/>
	<path class="st2" d="M294.6,200.1c2.2,0,4-3.1,4-7c0-3.9-1.8-7-4-7c-2.2,0-3,3.1-3,7C291.6,196.9,292.4,200.1,294.6,200.1z"/>
	<path class="st2" d="M268.5,336.3c0.1,1.1,0.1,1.8,0.1,1.8s1,3,3,3s9,4,18-11s7-34,5-39s-6-10-9-11c-2.9-1-5.8,0.8-7.8,2.8
		c0.3,0.4,0.5,0.8,0.8,1.2c1,2-4,17-6,19c-1.4,1.4-2.4,1.8-3.1,1.6c-0.7,3.2-1.5,6.2-1.9,7.4c-0.1,0.2-0.1,0.6-0.2,1
		c0.1,0,0.1,0,0.2,0c2,0,3,1,3,6s0,14-2,17C268.6,336.1,268.5,336.2,268.5,336.3z"/>
	<path class="st2" d="M273.6,280.1c2,0,4,2,5,4s-4,17-6,19s-3,2-4,1s-4-4-3-9S271.6,280.1,273.6,280.1z"/>
	<path class="st2" d="M267.6,313.1c2,0,3,1,3,6s0,14-2,17s-2,2-4,2s-4-3-4-11S265.6,313.1,267.6,313.1z"/>
	<path class="st2" d="M283.6,264.1c-2,3-2,14,0,14s9-9,10-13s0-8-1-9S285.6,261.1,283.6,264.1z"/>
	<path class="st2" d="M305.6,248.1c-2,3-6,13-4,16s6,0,8-2s9-13,7-16S307.6,245.1,305.6,248.1z"/>
	<path class="st2" d="M331.6,248.1c-4,0-13,12-13,17s6,5,7,5s12-7,12-13S333.6,248.1,331.6,248.1z"/>
	<path class="st2" d="M343.6,268.1c-2,1-9,4-11,11s2,10,6,10s9-2,11-4s3-5,3-8s-3-8-4-9S345.6,267.1,343.6,268.1z"/>
	<path class="st2" d="M271.7,342.7c-1.8,0-5.6,6.4-5.9,10.7c-0.2,2.6,6.2,24.2,11,10.2c2.1-6.1,0.1-9.2-1.3-15.1
		C275.4,348.5,273.5,342.7,271.7,342.7z"/>
	<path class="st2" d="M280.2,377.4c0,4.8,18.5,21.4,11.6-8.8c-0.6-2.5-2.1-4.8-5.7-7C282.4,359.5,280.2,365.5,280.2,377.4z"/>
	<path class="st2" d="M303.5,364.3c-3.2,0.6-6.2,4.4-3.5,15.2s5.1,9.2,5.1,9.2s10.3-0.5,10.8-4.2S312.9,362.8,303.5,364.3z"/>
	<path class="st2" d="M318.3,355.8c2.2-3.1,5.6-6.3,12.1-2.2c6.8,4.3,7,10.9,7,11.9s-6.9,10.8-8.2,11.7c-1.4,0.9-2.4,1.3-5.2-2.4
		S314.2,361.4,318.3,355.8z"/>
	<path class="st2" d="M332.5,331c0,0,2.6-5.4,7.9-4.6s11.9,4.9,11.9,7.8s-4.8,15.9-5.8,16.6s-2.7,0.9-4.4,0.1
		c-1.6-0.8-10-5.6-10.8-11.1S332.5,331,332.5,331z"/>
	<path class="st2" d="M353.5,296.3c2.1,0.3,3.6,1.9,3.6,4.3c0,2.5-0.3,10.9-0.3,10.9s0.3,5.9-5.8,6.5c-6.1,0.7-12.9-0.1-14.1-5.9
		c-1.2-5.8,0-11.4,4.2-13.7S351.5,296,353.5,296.3z"/>
	<path class="st2" d="M275.8,296.9c2.2,4.7,2,11,0.5,16.1c-1.4,5.2-3.6,6.9-5.8,7.9"/>
	<g>
		<defs>
			<path id="SVGID_1_" d="M198.8,273.1c0.9-0.4,1.7-0.9,2.6-1.3c10.2-4.8,20.6-7.5,32.5-8.6c10.6-1,21-1,40.8-0.1l0.1-2
				c-19.9-0.9-30.3-1-41.1,0.1c-13.2,1.3-24.5,4.4-35.9,10.1L198.8,273.1z"/>
		</defs>
		<clipPath id="SVGID_2_">
			<use xlink:href="#SVGID_1_"  style="overflow:visible;"/>
		</clipPath>
		<rect x="192.9" y="255.5" class="st4" width="86.9" height="22.7"/>
	</g>
	<path class="st2" d="M277.9,404.5c0.5-4.6,4.7-9.4,10.6-9.4s12.3,2.3,21.3,0.3c8.9-2,16.2-12.3,23.9-11.2s7.6,12.4,7.6,15.8
		s-0.8,52.9-0.8,52.9l-3.4,139.9c0,0-1.2,37.9-2.5,46.5s-6.2,34.8-21.9,45.1s-65,24.7-65,24.7l14.3-22c0,0,8.4-13.7,10.9-35.4
		s3.6-206.4,3.6-206.4S277.4,409.1,277.9,404.5z"/>
	<path class="st2" d="M219.1,736c0,0-2.8,1.6-2.8-8.3s-0.4-42.4-0.4-45.4"/>
	<path class="st2" d="M228.3,716.8c0,0-4.5-14.9-5.5-20.9"/>
	<path class="st2" d="M315,262.7c-0.8,8.8,7.8,9.7,12.2,6.7"/>
	<path class="st2" d="M329.9,275.9c-3.9,10.5,2.3,15.7,12.1,12.8"/>
	<path class="st2" d="M335.6,298.8c-5.9,5.1-3.5,19,9,19.3"/>
	<path class="st2" d="M332.9,325.7c-5.7,5.3-5.4,12.8,1.2,19.2"/>
	<path class="st2" d="M318,350.7c-6.7,8.3-2.9,12.9,4.5,22.1"/>
	<path class="st2" d="M300.3,381c-2.7-9.3-4.7-16.3,1.7-19.1"/>
	<path class="st2" d="M288.1,363c-4.2-3.3-5.9-2.8-7.3-2.8"/>
	<path class="st2" d="M299.1,262.4c0,4.4,4.4,6.7,9.5,0.7"/>
	<path class="st2" d="M117.6,2.8c0,0-3.8,4.2,4.7,9.6c8.6,5.4,35.5,20,35.5,20"/>
	<line class="st2" x1="244.4" y1="83.6" x2="316.7" y2="74"/>
	<line class="st2" x1="245.5" y1="85.6" x2="317.9" y2="76.1"/>
	<path class="st2" d="M290,175.1c0,0,1.1-9.7,7.2-12.1c6.1-2.4,25.9-4.5,28.8-4.5c2.9,0,7.6,2,8.7,6.2"/>
	<g>
		<defs>
			<path id="SVGID_3_" d="M252.1,69.9c3,2,6,4.1,8.8,6.5c2,1.7,3.9,3.4,5.5,5.1c10.1,10.7,18.5,24.1,23.7,40
				c2.6,8.1,4.5,16.2,5.8,23.9c0.4,2.7,0.8,5.1,1,7.2c0.1,0.7,0.3,3.6,0.3,3.7l2.9-1.5c0-0.1-0.1-1.8-0.2-2.6
				c-0.2-2.2-0.6-4.7-1-7.4c-1.3-7.8-3.2-16-5.9-24.3c-5.3-16.3-14-30.1-24.4-41.1c-1.7-1.8-3.6-3.6-5.8-5.4c-2.9-2.4-6-4.7-9.1-6.7
				c-1.1-0.7-5.9,0-5.9,0S251.1,69.2,252.1,69.9z"/>
		</defs>
		<use xlink:href="#SVGID_3_"  style="overflow:visible;fill:#F5852A;"/>
		<clipPath id="SVGID_4_">
			<use xlink:href="#SVGID_3_"  style="overflow:visible;"/>
		</clipPath>
		<rect x="242.8" y="62.1" class="st5" width="62.3" height="99.2"/>
	</g>
	<g>
		<defs>
			<path id="SVGID_5_" d="M268.6,66.9c1.1,0.7,2.4,1.6,3.8,2.6c4,2.9,7.9,6.2,11.6,9.9c1.7,1.7,3.3,3.5,4.8,5.3
				c9.8,11.8,17.9,27.5,21.3,41.8c1.5,6.4,2.6,12.3,3.4,17.6c0.3,1.8,0.4,3.5,0.6,4.9c0,0.5,0.1,0.9,0.1,1.3c0,0.2,0.1,0.5,0.1,0.6
				h3c0,0-0.1-1.7-0.2-2.2c-0.1-1.4-0.3-3.1-0.6-5c-0.7-5.4-1.8-11.4-3.4-17.9c-3.6-14.8-11.8-30.9-21.9-43c-1.6-1.9-3.2-3.7-5-5.5
				c-3.8-3.8-7.9-7.2-11.9-10.2c-1.4-1-0.6-0.3-1.8-1.1c-0.4-0.3-5.2,0-5.2,0C267.3,66.1,268.2,66.7,268.6,66.9z"/>
		</defs>
		<use xlink:href="#SVGID_5_"  style="overflow:visible;fill:#F5852A;"/>
		<clipPath id="SVGID_6_">
			<use xlink:href="#SVGID_5_"  style="overflow:visible;"/>
		</clipPath>
		<rect x="262.2" y="60.9" class="st6" width="60.1" height="94.9"/>
	</g>
	<g>
		<defs>
			<path id="SVGID_7_" d="M284.7,64.1c1.4,0.7,2.9,1.6,4.6,2.7c4.8,3.1,9.5,6.9,14,11.7c1.8,1.9,3.4,3.9,5,6
				c10.9,14.4,18.2,31.3,20.9,46.3c1.1,6.1,2.4,16,3,22.1c0.9,1.2,3.5,4.3,3.5,4.3c0-0.1,0-0.3,0-0.6c0-0.5-0.1-1-0.2-1.6
				c-0.2-1.8-0.4-3.8-0.6-5.9c-0.7-6.2-1.6-12.6-2.7-18.8c-2.7-15.5-10.3-32.8-21.4-47.6c-1.6-2.2-3.4-4.1-5.2-6.2
				c-5.6-6.6-15-12.3-15-12.3S284.2,63.8,284.7,64.1z"/>
		</defs>
		<use xlink:href="#SVGID_7_"  style="overflow:visible;fill:#F5852A;"/>
		<clipPath id="SVGID_8_">
			<use xlink:href="#SVGID_7_"  style="overflow:visible;"/>
		</clipPath>
		<rect x="279.6" y="58.9" class="st7" width="61" height="103.2"/>
	</g>
	<g>
		<defs>
			<path id="SVGID_9_" d="M293.3,398.6c-0.1,0.3-0.3,0.6-0.4,1c-0.4,1.1-0.9,2.3-1.3,3.7c-1.1,3.6-1.8,7.2-1.9,10.5
				c0,0.2,0,0.4,0,0.6c0,3.3-0.7,31.4-1.8,76.1c0,1.5,0,1.5-0.1,3c-0.4,16.3-0.8,33.5-1.3,50.7c-0.2,6-0.3,11.6-0.4,16.5
				c0,1.7-0.1,3.3-0.1,4.6c0,1.3,0,3.7,0,3.7l3-2c0-0.3,0-0.3,0-1.6c0-1.3,0.1-2.9,0.1-4.6c0.1-5,0.3-10.5,0.4-16.5
				c0.4-17.1,0.9-34.4,1.3-50.7c0-1.5,0-1.5,0.1-3c1.1-44.9,1.8-72.9,1.8-76.2c0.1-3.6,0.7-6.9,1.8-10.2c0.4-1.2,0.8-2.4,1.2-3.4
				c0.1-0.4,0.3-0.7,0.4-1c0.1-0.2,0.5-1.2,0.6-1.2l-3.1-0.4C293.4,398.3,293.3,398.4,293.3,398.6z"/>
		</defs>
		<use xlink:href="#SVGID_9_"  style="overflow:visible;fill:#F5852A;"/>
		<clipPath id="SVGID_10_">
			<use xlink:href="#SVGID_9_"  style="overflow:visible;"/>
		</clipPath>
		<rect x="281" y="393.2" class="st8" width="20.6" height="180.8"/>
	</g>
	<g>
		<defs>
			<path id="SVGID_11_" d="M309.9,397c-0.1,0.4-0.3,0.8-0.4,1.2c-0.5,1.3-0.9,2.8-1.3,4.5c-1.2,4.7-2,9.5-2,14.2
				c0,4.4-0.5,30.5-1.3,71.2c0,1.4-0.1,2.8-0.1,4.3c-0.3,15.1-0.6,31-0.9,46.8c-0.1,5.5-0.2,10.6-0.3,15.2c0,1.6-0.1,3-0.1,4.2
				c0,1.2,0,1.9,0,2.1l3-0.6c0-0.3,0-0.3,0-1.5c0-1.2,0.1-2.6,0.1-4.2c0.1-4.6,0.2-9.7,0.3-15.2c0.3-15.8,0.6-31.7,0.9-46.8
				c0-1.4,0.1-2.9,0.1-4.3c0.8-40.8,1.3-66.9,1.3-71.3c0-4.4,0.7-9,1.9-13.4c0.4-1.6,0.8-3,1.3-4.2c0.2-0.4,0.3-0.8,0.4-1.2
				c0.1-0.2,0.5-1.3,0.5-1.4C313.1,396.7,309.9,396.8,309.9,397z"/>
		</defs>
		<use xlink:href="#SVGID_11_"  style="overflow:visible;fill:#F5852A;"/>
		<clipPath id="SVGID_12_">
			<use xlink:href="#SVGID_11_"  style="overflow:visible;"/>
		</clipPath>
		<rect x="298.4" y="391.7" class="st9" width="19.7" height="174"/>
	</g>
	<g>
		<defs>
			<path id="SVGID_13_" d="M328.7,387.3c-0.1,0.4-0.3,0.9-0.5,1.5c-0.5,1.6-1,3.3-1.5,5.2c-0.9,3.3-1.5,6.5-1.9,9.5
				c-0.2,1.8-0.3,3.4-0.3,5c0,4-0.7,32.3-2,77c0,1.2-0.1,2.5-0.1,3.8c-0.5,16.4-1,33.7-1.4,50.9c-0.2,6-0.3,11.6-0.5,16.6
				c-0.1,1.7-0.1,3.3-0.1,4.6c0,1.3,0,1.3,0,1.6l3.2,3.5c0-0.3-0.2-3.7-0.1-5c0-1.3,0.1-2.9,0.1-4.6c0.1-5,0.3-10.6,0.5-16.6
				c0.5-17.2,1-34.5,1.4-50.9c0-1.3,0.1-2.5,0.1-3.8c1.3-44.8,2-73.1,2-77.1c0-1.4,0.1-3,0.3-4.6c0.3-2.9,1-6,1.8-9.1
				c0.5-1.8,1-3.5,1.4-5c0.2-0.5,0.3-1,0.5-1.4c0.1-0.2,0.4-1.4,0.5-1.5C332,386.8,328.8,387,328.7,387.3z"/>
		</defs>
		<use xlink:href="#SVGID_13_"  style="overflow:visible;fill:#F5852A;"/>
		<clipPath id="SVGID_14_">
			<use xlink:href="#SVGID_13_"  style="overflow:visible;"/>
		</clipPath>
		<rect x="315.3" y="381.8" class="st10" width="21.7" height="189.7"/>
	</g>
	<g>
		<defs>
			<path id="SVGID_15_" d="M257.3,708.2c0.3-0.2,0.6-0.4,0.9-0.7c1-0.7,2-1.6,3.2-2.6c3.3-2.8,6.5-6.1,9.6-9.8
				c4.8-5.8,8.5-12,11-18.7c3.1-8.5,5.3-16.6,6.7-24c0.5-2.6,0.9-4.9,1.1-7c0.1-0.7,0.2-1.3,0.2-1.9c0-0.3,0-0.8,0-0.9H287
				c0,0.1,0,0.3-0.1,0.6c0,0.5-0.1,1.1-0.2,1.8c-0.2,2-0.6,4.2-1.1,6.8c-1.4,7.3-3.5,15.2-6.6,23.6c-2.3,6.3-5.9,12.3-10.5,17.8
				c-2.9,3.5-6.1,6.7-9.2,9.4c-1.1,0.9-2.1,1.8-3,2.5c-0.3,0.2-0.6,0.4-0.8,0.6c-0.1,0.1-0.2,0.2-0.3,0.2l1.7,2.5
				C257,708.4,257.1,708.4,257.3,708.2z"/>
		</defs>
		<use xlink:href="#SVGID_15_"  style="overflow:visible;fill:#F5852A;"/>
		<clipPath id="SVGID_16_">
			<use xlink:href="#SVGID_15_"  style="overflow:visible;"/>
		</clipPath>
		<rect x="250.2" y="637.8" class="st11" width="44.7" height="75.7"/>
	</g>
	<g>
		<defs>
			<path id="SVGID_17_" d="M275.2,701.6c0.2-0.2,0.5-0.5,0.9-0.8c0.9-0.8,1.9-1.8,3-2.8c3.1-3,6.2-6.3,9.2-9.8
				c5.5-6.6,9.6-13.1,11.8-19.4c2.5-7.3,4.5-14.5,5.9-21.5c0.5-2.4,0.9-4.7,1.2-6.6c0.1-0.7,0.2-1.3,0.3-1.8c0-0.3,0-1.8,0-2l-2.9,1
				c0,0.1,0,0.3-0.1,0.6c-0.1,0.5-0.2,1.1-0.3,1.8c-0.3,1.9-0.7,4.1-1.2,6.5c-1.4,6.8-3.3,14-5.8,21.1c-2.1,5.9-6,12.1-11.2,18.5
				c-2.8,3.4-5.9,6.7-8.9,9.6c-1.1,1-2.1,1.9-2.9,2.7c-0.3,0.3-0.6,0.5-0.8,0.7c-0.1,0.1-0.2,0.2-0.3,0.2l1.9,2.3
				C274.9,701.8,275,701.7,275.2,701.6z"/>
		</defs>
		<use xlink:href="#SVGID_17_"  style="overflow:visible;fill:#F5852A;"/>
		<clipPath id="SVGID_18_">
			<use xlink:href="#SVGID_17_"  style="overflow:visible;"/>
		</clipPath>
		<rect x="267.9" y="631.9" class="st12" width="44.4" height="74.9"/>
	</g>
	<g>
		<defs>
			<path id="SVGID_19_" d="M289.9,696c0.2-0.2,1.5-0.3,1.8-0.5c0.9-0.6,1.9-1.4,2.9-2.2c3-2.4,6-5.2,8.8-8.1
				c4.4-4.7,7.9-9.6,10.2-14.6c6.1-13.6,10.1-29.3,11.2-49.1l-3.3,4.8c-1.4,16.4-4.6,29.8-10.6,43.1c-2.1,4.7-5.4,9.3-9.6,13.8
				c-2.7,2.9-5.6,5.5-8.5,7.9c-1,0.8-2,1.7-2.8,2.3c-0.3,0.2-0.3,1.1-0.5,1.3C289.2,694.7,289.7,696.1,289.9,696z"/>
		</defs>
		<use xlink:href="#SVGID_19_"  style="overflow:visible;fill:#F5852A;"/>
		<clipPath id="SVGID_20_">
			<use xlink:href="#SVGID_19_"  style="overflow:visible;"/>
		</clipPath>
		<rect x="284.3" y="616.4" class="st13" width="45.4" height="84.7"/>
	</g>
</g>
</svg>
