<?xml version="1.0" encoding="utf-8"?>
<!-- Generator: Adobe Illustrator 19.0.0, SVG Export Plug-In . SVG Version: 6.00 Build 0)  -->
<svg version="1.1" id="Layer_19" xmlns="http://www.w3.org/2000/svg" xmlns:xlink="http://www.w3.org/1999/xlink" x="0px" y="0px"
	 viewBox="0 0 60.9 58.6" style="enable-background:new 0 0 60.9 58.6;" xml:space="preserve">
<style type="text/css">
	.st0{fill:#FFFFFF;}
	.st1{fill:none;stroke:#F6862B;stroke-linecap:round;stroke-linejoin:round;}
	.st2{fill:none;stroke:#808285;stroke-linecap:round;stroke-linejoin:round;}
</style>
<polygon class="st0" points="46.5,1.5 12.1,6.9 3.1,29.9 1.6,47.6 9.1,55.1 25.8,57.5 48.3,47.6 59.4,29.3 "/>
<polygon class="st1" points="30.6,8.4 12.1,18.8 33.6,20.6 "/>
<polyline class="st2" points="1.6,47.6 9.1,55.1 25.8,57.5 "/>
<polyline class="st2" points="47.4,34.6 59.4,29.3 48.3,47.6 "/>
<polyline class="st2" points="29.4,36.8 47.4,34.6 21,32 1.6,47.6 12.1,18.8 21,32 33.6,20.6 47.4,34.6 30.6,8.4 59.4,29.3 
	46.5,1.5 30.6,8.4 12.1,6.9 12.1,18.8 "/>
<polyline class="st2" points="46.5,1.5 12.1,6.9 3.1,29.9 "/>
<polyline class="st1" points="25.8,57.5 47.4,34.6 48.3,47.6 25.8,57.5 29.4,36.8 21,32 25.8,57.5 1.6,47.6 3.1,29.9 12.1,18.8 
	1.6,47.6 21,32 12.1,18.8 "/>
<line class="st1" x1="47.4" y1="34.6" x2="29.4" y2="36.8"/>
</svg>
