<?xml version="1.0" encoding="utf-8"?>
<!-- Generator: Adobe Illustrator 19.0.0, SVG Export Plug-In . SVG Version: 6.00 Build 0)  -->
<svg version="1.1" id="Layer_1" xmlns="http://www.w3.org/2000/svg" xmlns:xlink="http://www.w3.org/1999/xlink" x="0px" y="0px"
	 viewBox="0 0 47.7 135.2" style="enable-background:new 0 0 47.7 135.2;" xml:space="preserve">
<style type="text/css">
	.st0{clip-path:url(#SVGID_2_);fill:#818384;}
	.st1{clip-path:url(#SVGID_2_);fill:#D2D3D4;}
	.st2{clip-path:url(#SVGID_2_);fill:#F6872A;}
</style>
<g>
	<defs>
		<rect id="SVGID_1_" width="47.7" height="135.2"/>
	</defs>
	<clipPath id="SVGID_2_">
		<use xlink:href="#SVGID_1_"  style="overflow:visible;"/>
	</clipPath>
	<path class="st0" d="M44.1,109.8c-4.2-2.8-11.7-4.7-20.2-4.7s-16,1.9-20.2,4.7H0v15.3c0,5.5,10.7,10,23.8,10
		c13.2,0,23.8-4.5,23.8-10v-15.3H44.1z"/>
	<path class="st1" d="M47.7,109.8c0,5.5-10.7,10-23.8,10c-13.2,0-23.8-4.5-23.8-10c0-5.5,10.7-10,23.8-10
		C37,99.8,47.7,104.3,47.7,109.8"/>
	<path class="st2" d="M28.9,6.1c0-0.1-0.5,0-0.5,0c0.2-0.9,0.2-1.7,0-2.7c-0.1-0.6-0.2-1-0.6-1.5c-0.2-0.2-0.4-0.5-0.7-0.6
		c-0.8-0.3-1.5-0.8-2.3-1.1c-0.8-0.4-2.3-0.3-3.1,0c-0.8,0.4-1.4,0.6-2.1,1.2c-1.1,1-1.5,2.1-1.6,3.6c-0.1,0.6,0.2,1.3,0,1.8
		c-0.6-0.1,0.2,1.6,0.3,1.9c0.2,0.4,0.2,2.2,0.9,1.9c0.2,0.4,0.6,2.2,1.1,2.3c0,0.8,0.1,1.6,0.2,2.4c0,0.6,0.2,1,0.1,1.6
		c-0.1,0.2-0.2,0.5-0.2,0.8c-0.2,0-0.4,0.1-0.4,0.3c-0.4,0.1-0.8,0.1-1.2,0.2c-1.3,0.4-2.5,0.9-3.7,1.7c-1.5,1-0.7,2.9-1.3,4.4
		c-0.6,1.5-0.5,2.8-0.5,4.4c0,0.7,0,1.3-0.3,2c-0.2,0.7-0.1,0.4,0.4,0.9c0,0.9-0.2,1.7-0.4,2.6c-0.2,0.8-0.3,1.5-0.5,2.3
		c-0.5,1.7-1.4,3.2-1.5,5c-0.2,1.6-0.3,3.3-0.4,4.9c-0.1,0.7-0.2,2-0.6,2.5c0,0.7-0.7,1.7-0.8,2.4c-0.1,0.6,0.1,1.2,0.3,1.7
		c0.2,0.5,0.4,1.1,0.6,1.6c0.2,0.3,0.6,0.7,0.6,1.1c0,0.4-0.1,0.5,0.1,1c0.1,0.4,0.3,0.9,0.5,1.3c0.4,1.1,0.5,2.2,0.7,3.3
		c0.3,1.3,0.7,2.7,1,4c0.4,1.4,0.8,2.7,1.2,4.1c0.3,1.2,0.4,2.4,1,3.5c0.2,0.4,0.6,0.8,0.7,1.3c0.1,0.7-0.3,1.4,0,2.1
		c0.3,0.6,0.5,1.1,0.6,1.8c0.5,0.1,0.6,0.4,0.7,0.8c0.1,0.3,0.1,0.3,0.2,0.5c0.1,0.2,0.4,0.4,0.4,0.6c0,0.3-0.5,0.4-0.4,0.7
		c0,0.3,0.2,0.1,0.3,0.3c0.1,0.2,0.1,0.4,0.2,0.6c0.4,0.7,0.1,1.3,0.1,2.1c0.1,1.1,0.5,2.2,0.8,3.4c0.3,1.3,0.7,2.5,1,3.7
		c0.2,1,0.1,1.9-0.2,2.9c-0.2,0.9-0.7,2.1-0.6,3.1c0.3,0.2,0.6,0.4,0.8,0.7c0-0.1-0.1,0.1,0,0.1c0.1,0.3,0,0.5,0,0.8
		c-0.1,0.4-0.1,0.6,0,1c0.1,0.4,0.1,0.6-0.1,1c-0.2,0.3-0.4,0.4-0.4,0.7c0.1,0.1,0.1,0.2,0.2,0.3c-0.3,0-1,0.4-0.8,0.7
		c-0.3-0.1-0.7,0.5-1,0.7c-0.5,0.4-0.8,0.9-1.5,1.2c-0.6,0.3-1.4,0.4-1.9,0.7c-0.6,0.3-1.1,0.6-1.8,0.7c-0.5,0.1-0.9,0.1-1.2,0.5
		c-0.2,0.2-0.2,0.5-0.4,0.7c0.4,0.9,1.9,1.5,2.8,1.6c1.4,0.2,2.8-0.3,4.1-0.6c0.7-0.2,1.3-0.3,1.9-0.7c0.5-0.3,1.1-0.9,1.7-1
		c0.3-0.1,0.6-0.1,0.8-0.1c0.6,0,0.9,0.4,1.4,0.5c0.5,0.1,1,0,1.5,0c0.7,0,1.4-0.1,2-0.5c0.8-0.5,0.6-1.2,0.5-2
		c0-0.3,0.1-1.1-0.1-1.3c0.6-0.6-0.4-1.4,0.3-1.9c-0.1-0.3,0-0.7-0.4-0.8c0-0.3,0.2-0.6,0.2-0.8c0-0.2-0.2-0.4-0.3-0.6
		c-0.1-0.3-0.1-0.2,0-0.5c0-0.8,0-1.4-0.1-2.2C26.8,95,27,94.2,27,93.5c0-0.5-0.1-1-0.2-1.5c0-0.6,0-1.4-0.1-2
		c-0.1-0.6-0.2-1.3-0.3-1.9c0,0.5,0.5,1.1,0.6,1.5c0.2,0.6,0.4,0.9,0.4,1.5c0,1,0.5,1.9,0.6,2.9c0.1,0.7-0.1,1.3-0.1,1.9
		c0,0.4,0.1,0.7,0.1,1.1c0.1,1.4-0.2,2.7-0.2,4.1c0,0.5,0.2,1.2,0,1.7c-0.1,0.4-0.4,0.8-0.3,1.2c0.1,0.4,0.6,1.1,0.8,1.4
		c0.3,0.5,0.3,0.4,0.1,0.8c-0.2,0.3-0.4,0.4-0.3,0.9c0.1,0.5,0.3,1.4,0.6,1.7c0.1-0.1,0.1-0.1,0.1-0.2c-0.1,0.5,0,0.9-0.1,1.4
		c-0.1,0.3-0.2,0.7-0.2,1c-0.2,1.2-0.3,2.5-0.5,3.7c-0.1,0.7-0.5,2.2,0.5,2.5c0.5,0.2,1.3,0.1,1.8,0.1c0.6,0,1.2-0.1,1.8-0.3
		c1.1-0.4,2.4-1.2,2.8-2.3c0.2-0.4,0.2-0.8,0.2-1.3c0-0.2,0-0.5,0-0.7c-0.1-0.2-0.3-0.3-0.4-0.5c-0.1-0.3-0.1-0.3-0.1-0.7
		c0.1-0.4,0.1-0.9,0.1-1.3c0-0.3-0.1-1.4-0.5-1.4c0,0,0-0.2,0-0.1c0.1,0,0.2,0.1,0.2,0.1c0.3-0.2,0.1-0.4,0.1-0.7
		c0-0.4,0.1-0.4,0.3-0.7c0.3-0.6,0-1.1,0.1-1.7c0-0.3,0.1-0.3,0.1-0.6c0.1-0.3,0-0.6,0-0.9c0-0.8-0.1-1.5-0.2-2.3
		c-0.1-0.8,0-1.7,0-2.6c0-0.7,0-1.4,0.1-2c0.2-1.1,0.1-2.2,0-3.3c0-0.5-0.1-0.9-0.2-1.3c0-0.4,0.1-0.8,0-1.2
		c-0.1-0.3-0.3-0.6-0.4-0.9c-0.1-0.3,0-0.7-0.1-1.1c-0.1-0.7-0.1-1.5-0.3-2.2c-0.1-0.5-0.3-0.9-0.6-1.3c0.5-0.4,0.2-0.6,0.2-1
		c0-0.5,0.2-0.6-0.2-1c-0.2-0.3-0.6-0.6-0.7-0.9c-0.2-0.5,0-1-0.1-1.4c-0.1-0.2-0.2-0.3-0.3-0.5c-0.1-0.2-0.1-0.5-0.1-0.7
		c-0.1,0-0.3,0-0.4,0c-0.2-0.3,0.5-0.7,0.5-1c0-0.4-0.3-0.8-0.5-1.2c-0.5-0.9-0.6-1.3-0.5-2.3c0-0.3-0.1-0.8,0-1.1
		c0.2-0.5,0.5-0.7,0.6-1.3c0.1-0.6,0.2-1.1-0.1-1.7c-0.1-0.4-0.3-0.9-0.3-1.3c0-0.5,0.4-1.8,0.1-2.2c-0.3-0.3,0-0.7,0.1-1.1
		c0.1-0.6-0.1-1.2,0-1.7c0.5-0.1,0.4-0.9,0.3-1.3c-0.1-0.3-0.2-0.6-0.3-0.9c-0.2-0.6,0-0.9,0.1-1.4c0.1-0.4,0.1-1.1,0.1-1.5
		c0-0.5-0.3-0.9-0.3-1.3c0-0.4,0-0.7-0.1-1.1c-0.1-0.4-0.2-0.8-0.3-1.2c0-0.8,0.2-1.8,0.1-2.5c0,0-0.1,0-0.1,0
		c-0.1-0.2,0-0.4,0.2-0.5c0-0.2,0-0.4,0-0.6c0.2-0.7,1.1-1.9,1.5-2.6c0.8-1.1,1.6-2.2,2.3-3.4c1-1.6,1.9-3.3,2.5-5
		c0.1-0.3,0.3-0.6,0.3-0.9c0-0.3-0.3-0.7-0.2-0.9c-0.1,0-0.1,0-0.2,0c0-0.7,0.3-0.9,0.4-1.5c0.1-0.8,0.1-1.4,0-2.1
		c-0.1-0.7,0.1-1.4,0-2.2c0-0.5,0-1.1,0-1.6c0-0.5-0.1-1.1-0.2-1.5c0.1,0,0.2,0,0.2,0c0-0.5,0-1,0-1.5c0-0.4,0.1-0.8,0.1-1.2
		c0-0.5-0.1-0.9-0.2-1.4c-0.1-0.9,0-1.8-0.2-2.6c-0.2-0.8-0.4-1.5-0.6-2.3c-0.1-0.5-0.2-1-0.3-1.5c-0.1-0.4-0.4-0.8-0.6-1.1
		c-0.3-0.4-0.7-0.7-1.1-0.8c-0.6-0.3-1.1-0.7-1.8-0.8c-0.6-0.1-1.1-0.4-1.6-0.7c-0.6-0.3-1.2-0.4-1.8-0.7c-0.3-0.1-0.5-0.4-0.6-0.8
		c-0.4,0-0.9,0.1-1.2-0.1c-0.3-0.1-0.6-0.5-0.8-0.8c-0.4-0.5-0.3-1.3-0.3-2c0-0.8,0.1-1.3,0.3-1.9c0.2-0.4,0.1-0.9,0.1-1.4
		c0.4,0.1,0.6-0.4,0.7-0.7c0.1-0.2,0-0.4,0.1-0.6c0-0.2,0.1-0.4,0.2-0.6c0.1-0.3,0-0.7,0.1-1C28.9,7,29,6.6,28.9,6.1"/>
</g>
</svg>
