<?xml version="1.0" encoding="utf-8"?>
<!-- Generator: Adobe Illustrator 19.0.0, SVG Export Plug-In . SVG Version: 6.00 Build 0)  -->
<svg version="1.1" id="Layer_19" xmlns="http://www.w3.org/2000/svg" xmlns:xlink="http://www.w3.org/1999/xlink" x="0px" y="0px"
	 viewBox="0 0 64.5 61.5" style="enable-background:new 0 0 64.5 61.5;" xml:space="preserve">
<style type="text/css">
	.st0{fill:#FFFFFF;stroke:#808285;stroke-linecap:round;stroke-linejoin:round;}
	.st1{fill:#F6862B;}
</style>
<path class="st0" d="M16.1,53.9c0.5-3.6,10.7-6.8,23.3-6.8s22.9,2.8,22.9,6.4V9.2L62,7.8L16.9,7.2l-0.6,2L16.1,53.9z"/>
<path class="st0" d="M18.2,14.5v42.2c0,0-2-2-2-3v-45v0.1c0-3.5,10.3-6.5,23-6.6c12.7,0,23,2.9,23,6.6s-10.3,6.6-23,6.6
	c-2.4,0-4.7-0.1-6.8-0.3l0,0.3v44.6c2.2,0.2,4.5,0.3,6.9,0.3c12.7,0,22.9-3,22.9-6.6V8.7"/>
<path class="st0" d="M16.2,8.7c0,0.9,0.7,1.8,2,2.7l0,0v45.3"/>
<path class="st1" d="M20.2,57.6c-0.7-0.4-1.2-0.8-1.5-1l0,0l0,0l-0.1-0.1l0,0l0.1-0.1l0.3-0.2l-2.8-9.4l-0.9-1.5L13,40l0.1-0.1
	l0-0.1l0.1-0.3l0.1-0.6l-0.2-0.4l-0.2-0.3l0.2-0.3c0.2-0.2,0.2-0.3,0.2-0.4l-0.1-0.5l-0.1-0.3l0,0l0.3-1c2,1.3,3,2,3.1,2h0.1
	c0,0.4,0.2,0.7,0.4,1l0.1,0.1l0.2,0.2l0.3,0.3l0.3,0l0-0.3l0.1,0l0.1,0l0.5-0.1l-0.1,0.7l0.2,0.1l0.6-1.4l-0.5-0.6
	c0.4,0,0.8,0.1,1,0.4l0.3,0.4l0.1,0.1l0.1-0.1l-0.2-0.6c-0.4-0.5-0.9-0.9-1.3-1.2L18,36.4l-0.2-0.1l-0.1-0.1L15,34
	c-0.3-0.3-0.6-0.7-0.9-1.2l0.1-1l-0.1-0.6c-0.4-1.8-0.8-3-1.2-3.7l-0.1-0.4L12.6,27l-0.4-0.2c0-0.1,0-0.2,0.2-0.5l0.1-0.2l0-0.3
	c0-0.1,0.1-0.1,0.2-0.2h0.9c0.3-0.2,0.4-0.5,0.1-0.8v0l0-0.1l0.1-0.1l0.1-0.1l-0.1-0.2l0.1-0.1l-0.1-0.3l0.4-0.1c0,0,0-0.1,0-0.2
	L14,23.2l-0.2-0.4l0.2-0.5l-0.3-0.6c0-0.2-0.1-0.4-0.2-0.5l0.1-0.3l0-0.1c-0.5-0.3-1.1-0.5-1.7-0.4l-1.4,0.2
	c-0.3,0.1-0.5,0.2-0.6,0.4c-0.4,0.3-0.6,0.6-0.6,1l0.5,1.7c0,0.2,0,0.4,0.1,0.6l0.3,0.5v0.9l-0.3-0.1l0.1,0l0,0l-0.3,0.7l0,0
	l-2.7,1.5l-2.8,6.7l-1.2,6L3,40.7l-0.6,0.6l-0.1,0.1c-0.3,0.3-0.3,0.5-0.2,0.8c0.1,0.2,0.2,0.3,0.3,0.4c0.1,0.2,0.2,0.4,0.4,0.6
	c0.1,0,0.1,0,0.2,0c0,0,0,0,0.1,0c0,0,0,0,0.1,0.1c0.1,0.1,0.1,0.2,0.2,0.4c0,0,0,0,0,0c0,0,0,0,0.1,0c0,0,0.1-0.1,0.1-0.1
	c0,0.1,0.1,0.2,0.1,0.2c0,0,0,0,0,0c0,0,0,0,0,0c0.2-0.1,0.4-0.2,0.5-0.4c-0.1,0-0.1-0.1-0.1-0.1c-0.1,0-0.1,0-0.2,0
	c-0.1-0.2,0-1,0.3-1c0,0-0.1,0.8-0.2,0.8c0.1,0,0.1,0,0.2,0c0,0,0,0,0,0c0,0,0.1-0.1,0.1-0.2c0.1-0.1,0.1-0.2,0.2-0.3
	c0-0.1,0-0.3,0-0.4c0-0.2,0.1-0.5,0-0.7c0,0-0.1-0.2-0.1-0.2L4.8,41l0.4-1.7l0.5-2c0-0.3,0.2-0.5,0.4-0.7c0.2-0.1,0.3-0.2,0.2-0.3
	c0-0.1-0.1-0.2-0.1-0.5l0.6-1.4l-0.5,7l1,0.6l0.1,1.2v5.5c-0.2,0-0.3,0.1-0.3,0.2l0.1,0.1l0.1,0.4L4,55.2l0,0l0.1,0.1l-0.4,0.8
	l-0.5,0.8c-0.2,0.3,0.2,0.5,1.1,0.8l0.3,0.1l0.1-0.1l0.2-0.2L5.1,58c0.7,0.4,1.4,0.7,2.2,0.8l0.1,0L9.2,59l0.3-0.1
	c0.1-0.1,0.1-0.2,0-0.3v0l-1.7-1.1c-0.3-0.2-0.5-0.4-0.7-0.7L7,56.3l3.6-6.3l0.8-4.5l1.9,2.7l2,8.7h0.6l0.2,1.8l1.3,0.2l0.1-0.4
	l0.3,0.3l0.2,0.2l0.1,0l0.4,0l1.5,0.1c1.1,0,1.6-0.2,1.6-0.6L21,58.1L20.2,57.6z"/>
</svg>
