<?xml version="1.0" encoding="utf-8"?>
<!-- Generator: Adobe Illustrator 19.0.0, SVG Export Plug-In . SVG Version: 6.00 Build 0)  -->
<svg version="1.1" xmlns="http://www.w3.org/2000/svg" xmlns:xlink="http://www.w3.org/1999/xlink" x="0px" y="0px"
	 viewBox="0 0 49.9 55" style="enable-background:new 0 0 49.9 55;" xml:space="preserve">
<style type="text/css">
	.st0{display:none;}
	.st1{display:inline;fill:#FFFFFF;stroke:#808285;}
	.st2{display:inline;opacity:0.6;fill:#FFFFFF;stroke:#808285;}
	.st3{display:inline;fill:none;stroke:#808285;stroke-dasharray:4,3;}
	.st4{display:inline;}
	.st5{fill:none;stroke:#F6862B;stroke-linecap:round;stroke-linejoin:round;}
	.st6{fill:#F6862B;}
	.st7{display:inline;fill:none;stroke:#F6862B;}
	.st8{fill:#FFFFFF;stroke:#808285;}
	.st9{fill:none;stroke:#808285;}
</style>
<g id="Layer_19" class="st0">
	<path class="st1" d="M-21.6,4.3v43c0,3.6-10.8,6.5-23.6,6.5s-23.4-3-23.4-6.6V4.3"/>
	<path class="st2" d="M-21.6,4.3v43c0,3.6-10.8,6.5-23.6,6.5s-23.4-3-23.4-6.6V4.3"/>
	<path class="st3" d="M-67.7,47.3c0-3.6,10.3-6.6,23.1-6.6s23.1,3,23.1,6.6"/>
	<ellipse class="st1" cx="-45.2" cy="4.4" rx="23.4" ry="6.5"/>
	<line class="st3" x1="-44.6" y1="1.1" x2="-44.6" y2="50.6"/>
	<g class="st4">
		<g>
			<line class="st5" x1="-75.6" y1="7.3" x2="-75.6" y2="44.3"/>
			<g>
				<polygon class="st6" points="-78.2,8.3 -75.7,4 -73.2,8.3 				"/>
			</g>
			<g>
				<polygon class="st6" points="-78.2,43.3 -75.7,47.7 -73.2,43.3 				"/>
			</g>
		</g>
	</g>
	<line class="st7" x1="-79.3" y1="3.7" x2="-70.4" y2="3.7"/>
	<line class="st7" x1="-79.3" y1="48" x2="-70.4" y2="48"/>
	<g class="st4">
		<g>
			<line class="st5" x1="-54.6" y1="1.4" x2="-35.3" y2="7.8"/>
			<g>
				<polygon class="st6" points="-54.7,4 -58,0.3 -53.2,-0.7 				"/>
			</g>
			<g>
				<polygon class="st6" points="-36.8,9.9 -31.9,8.9 -35.2,5.2 				"/>
			</g>
		</g>
	</g>
</g>
<g id="Layer_2">
	<path class="st8" d="M3.2,53.8h43.4c1,0,1.8-0.8,1.8-1.8v-5.8c0-1-0.2-1.9-0.5-2.8l-15-37.4c-0.3-0.8-1-1.2-1.8-1.2H18.8
		c-0.8,0-1.5,0.5-1.8,1.2L2,43.5c-0.4,0.9-0.5,1.9-0.5,2.8v5.8C1.4,53.1,2.2,53.8,3.2,53.8z"/>
	<path class="st9" d="M20.4,5.3c0-2.5,2-4.5,4.5-4.5s4.5,2,4.5,4.5"/>
	<g>
		<path class="st6" d="M24.1,37.4v-5.9c0-0.6,0-1-0.1-1.5c0-0.4-0.1-0.8-0.3-1c-0.1-0.3-0.3-0.5-0.6-0.6c-0.3-0.1-0.6-0.2-1-0.2
			c-0.6,0-1.2,0.2-1.6,0.6c-0.4,0.4-0.7,0.9-0.9,1.5v7.2h-1.7V26.9h1.2l0.3,1.3h0.1c0.4-0.4,0.8-0.8,1.3-1.1
			c0.5-0.3,1.1-0.4,1.9-0.4c0.7,0,1.2,0.1,1.7,0.4s0.8,0.7,1,1.4c0.3-0.5,0.8-1,1.3-1.3c0.6-0.3,1.2-0.5,1.9-0.5
			c0.6,0,1.1,0.1,1.5,0.2c0.4,0.1,0.7,0.4,1,0.7c0.3,0.3,0.5,0.8,0.6,1.4c0.1,0.6,0.2,1.3,0.2,2.2v6.3h-1.7v-6.3
			c0-0.5,0-0.9-0.1-1.3c0-0.4-0.1-0.7-0.3-0.9c-0.1-0.2-0.4-0.4-0.6-0.5c-0.3-0.1-0.6-0.2-1-0.2c-0.7,0-1.2,0.2-1.6,0.6
			c-0.4,0.4-0.7,1-0.8,1.7v7H24.1z"/>
	</g>
</g>
</svg>
