<?xml version="1.0" encoding="utf-8"?>
<!-- Generator: Adobe Illustrator 16.0.0, SVG Export Plug-In . SVG Version: 6.00 Build 0)  -->
<!DOCTYPE svg PUBLIC "-//W3C//DTD SVG 1.1//EN" "http://www.w3.org/Graphics/SVG/1.1/DTD/svg11.dtd">
<svg version="1.1" id="Layer_1" xmlns="http://www.w3.org/2000/svg" xmlns:xlink="http://www.w3.org/1999/xlink" x="0px" y="0px"
	 width="295px" height="83.375px" viewBox="0 0 295 83.375" enable-background="new 0 0 295 83.375" xml:space="preserve">
<g>
	<defs>
		<rect id="SVGID_1_" x="-274" y="-256.278" width="841.89" height="595.281"/>
	</defs>
	<clipPath id="SVGID_2_">
		<use xlink:href="#SVGID_1_"  overflow="visible"/>
	</clipPath>
	<path clip-path="url(#SVGID_2_)" fill-rule="evenodd" clip-rule="evenodd" fill="#F6862B" d="M36.961,33.25
		c-1.957-1.675-4.418-2.769-6.818-3.616c-2.387-0.845-4.841-1.474-7.25-2.248c-1.762-0.567-4.12-1.391-4.705-3.34
		c-0.727-2.428,0.813-4.762,3.093-5.607c4.331-1.606,9.319,0.613,12.673,3.275c1.003-1.961,5.758-11.311,5.758-11.311
		s-0.209-0.126-0.532-0.288C30.465,5.749,18.708,3.488,10.183,9.45c-3.599,2.517-5.955,6.415-6.775,10.714
		c-0.681,3.568-0.573,9.222,2.643,12.888c4.496,5.123,10.465,6.849,13.748,7.742c2.061,0.563,4.312,1.187,5.861,2.758
		c1.593,1.616,1.494,4.387,0.099,6.095c-1.388,1.698-3.551,2.276-5.664,2.317c-4.927,0.098-9.596-2.401-13.134-5.696
		c-1.114,2.105-6.075,11.483-6.075,11.483s0.957,1.049,3.197,2.348c3.092,1.792,6.588,3.133,10.051,3.732
		c5.065,0.876,10.887,0.73,15.796-0.885c4.383-1.442,8.32-5.041,10.256-9.214c2.017-4.345,2.536-10.052,1.018-14.623
		C40.436,36.794,38.791,34.815,36.961,33.25 M278.534,25.218l-8.862,16.861l-7.479-16.861h-15.681l15.409,32.636l-12.45,24.311
		h15.093l29.398-56.946H278.534z M83.342,28.823c-1.114-1.118-2.559-2.068-4.338-2.855c-1.78-0.783-4.005-1.174-6.676-1.174
		c-1.169,0-2.419,0.112-3.756,0.336c-1.334,0.221-2.642,0.729-3.92,1.514c-0.779,0.445-1.541,1.019-2.296,1.72
		c-0.749,0.702-1.376,1.358-1.874,1.974V1.939h-13.35V63.19h13.35V43.025c0-1.496,0.22-2.741,0.666-3.739
		c0.443-0.998,0.974-1.771,1.585-2.327c0.777-0.665,1.597-1.096,2.463-1.288c0.859-0.197,1.654-0.291,2.376-0.291
		c0.669,0,1.391,0.084,2.171,0.254c0.777,0.166,1.47,0.611,2.085,1.336c0.777,0.838,1.251,1.914,1.417,3.228
		c0.169,1.312,0.251,2.665,0.251,4.062V63.19h13.348V39.326c0-1.789-0.165-3.569-0.499-5.333
		C86.01,32.229,85.01,30.507,83.342,28.823 M122.588,29.189c-0.394-0.441-0.926-0.94-1.596-1.495
		c-0.673-0.555-1.471-1.079-2.396-1.58c-0.922-0.502-1.986-0.917-3.19-1.25c-1.205-0.331-2.56-0.496-4.072-0.496
		c-2.688,0-5.207,0.471-7.559,1.414c-2.352,0.944-4.339,2.218-5.963,3.824c-1.509,1.497-2.855,3.483-4.031,5.948
		c-1.177,2.47-1.763,5.449-1.763,8.941c0,2.829,0.446,5.326,1.343,7.488c0.894,2.161,2.237,4.214,4.031,6.154
		c2.295,2.386,4.621,3.966,6.97,4.74c2.352,0.777,4.537,1.165,6.553,1.165c0.895,0,1.874-0.083,2.938-0.251
		c1.064-0.165,2.115-0.443,3.148-0.829c1.039-0.39,2.031-0.931,2.983-1.623c0.95-0.691,1.819-1.565,2.604-2.619v4.074h13.438V25.612
		h-13.438V29.189z M122.208,47.894c-0.532,0.963-1.104,1.754-1.72,2.375c-1.737,1.754-3.752,2.629-6.049,2.629
		c-1.119,0-2.227-0.253-3.316-0.765c-1.092-0.507-2.001-1.101-2.73-1.779c-0.836-0.791-1.484-1.739-1.93-2.843
		c-0.451-1.099-0.673-2.218-0.673-3.348c0-0.963,0.21-2.005,0.629-3.139c0.421-1.131,1.104-2.15,2.06-3.053
		c0.949-0.959,1.957-1.611,3.024-1.95c1.062-0.339,2.013-0.507,2.855-0.507c1.452,0,2.672,0.252,3.651,0.76
		c0.98,0.513,1.777,1.076,2.396,1.697c1.062,1.02,1.762,2.08,2.099,3.181c0.334,1.103,0.504,2.105,0.504,3.011
		C123.008,45.689,122.74,46.934,122.208,47.894 M181.236,29.804c-1.512-1.506-3.391-2.787-5.63-3.849
		c-2.24-1.057-4.816-1.587-7.727-1.587c-2.801,0-5.121,0.53-6.969,1.587c-1.85,1.062-3.362,2.316-4.536,3.765v-4.101h-13.438v56.546
		h13.438V59.414c1.062,1.117,2.154,1.995,3.276,2.634c1.119,0.642,2.196,1.132,3.23,1.463c1.036,0.336,2.002,0.546,2.899,0.631
		c0.896,0.08,1.65,0.124,2.265,0.124c1.907,0,3.992-0.351,6.257-1.046c2.27-0.695,4.467-2.076,6.598-4.141
		c1.791-1.784,3.246-3.904,4.367-6.357c1.117-2.451,1.679-5.27,1.679-8.447c0-3.234-0.562-6.063-1.679-8.489
		C184.146,33.357,182.802,31.367,181.236,29.804 M172.417,47.771c-0.504,1.079-1.122,1.989-1.849,2.729
		c-1.569,1.707-3.557,2.558-5.963,2.558c-2.354,0-4.367-0.851-6.047-2.558c-0.73-0.739-1.347-1.649-1.847-2.729
		c-0.506-1.08-0.756-2.191-0.756-3.324c0-1.08,0.221-2.189,0.67-3.329c0.449-1.137,1.092-2.13,1.933-2.983
		c1.68-1.707,3.693-2.557,6.047-2.557c2.406,0,4.394,0.85,5.963,2.557c0.84,0.854,1.483,1.847,1.932,2.983
		c0.449,1.14,0.67,2.249,0.67,3.329C173.17,45.579,172.92,46.69,172.417,47.771 M237.448,1.072c-2.238,0-4.531,0.417-6.882,1.256
		c-2.349,0.842-4.393,2.408-6.126,4.703c-1.512,2.014-2.46,4.071-2.854,6.169c-0.39,2.102-0.585,4.156-0.585,6.171v6.293H216.3
		v10.999h4.701V63.19h13.424V36.663h9.398V25.664h-9.398v-5.287c0-0.949,0.072-2.041,0.21-3.275
		c0.142-1.229,0.575-2.235,1.303-3.022c0.278-0.334,0.726-0.655,1.342-0.963c0.617-0.308,1.427-0.463,2.436-0.463
		c0.389,0,0.947,0.071,1.678,0.21c0.727,0.141,1.562,0.491,2.517,1.049V2.328c-0.955-0.388-1.945-0.698-2.979-0.92
		C239.894,1.184,238.732,1.072,237.448,1.072 M202.052,22.629c2.067,0,3.808-0.746,5.221-2.24c1.413-1.492,2.123-3.334,2.123-5.515
		c0-2.184-0.71-4.023-2.123-5.518c-1.413-1.494-3.153-2.24-5.221-2.24c-2.069,0-3.81,0.746-5.22,2.24
		c-1.419,1.495-2.123,3.334-2.123,5.518c0,2.181,0.704,4.022,2.123,5.515C198.242,21.883,199.982,22.629,202.052,22.629
		 M192.122,45.212h2.876v17.115h13.242V45.212h2.876V25.218h-18.994V45.212z"/>
</g>
</svg>