<?xml version="1.0" encoding="utf-8"?>
<!-- Generator: Adobe Illustrator 18.1.1, SVG Export Plug-In . SVG Version: 6.00 Build 0)  -->
<svg version="1.1" xmlns="http://www.w3.org/2000/svg" xmlns:xlink="http://www.w3.org/1999/xlink" x="0px" y="0px" width="52.5px"
	 height="52.4px" viewBox="0 0 52.5 52.4" enable-background="new 0 0 52.5 52.4" xml:space="preserve">
<g id="Layer_3" display="none">
	<g>
		<defs>
			<circle id="SVGID_1_" cx="26.3" cy="26.3" r="25"/>
		</defs>
		<clipPath id="SVGID_2_" display="inline">
			<use xlink:href="#SVGID_1_"  overflow="visible"/>
		</clipPath>
		<g transform="matrix(1 0 0 1 -8.375177e-006 7.211565e-007)" display="inline" opacity="0.2" clip-path="url(#SVGID_2_)">
			
				<image overflow="visible" width="1002" height="1600" xlink:href="9179B31D.jpg"  transform="matrix(0.9999 0 0 0.9999 -491.75 -763.75)">
			</image>
		</g>
		<use xlink:href="#SVGID_1_"  display="inline" overflow="visible" fill="none" stroke="#F58527" stroke-miterlimit="10"/>
	</g>
	<g display="inline">
		<defs>
			<circle id="SVGID_3_" cx="26.3" cy="26.3" r="25"/>
		</defs>
		<clipPath id="SVGID_4_">
			<use xlink:href="#SVGID_3_"  overflow="visible"/>
		</clipPath>
		<line clip-path="url(#SVGID_4_)" fill="none" stroke="#F3F3F3" stroke-miterlimit="10" x1="-82" y1="95" x2="68" y2="-44.5"/>
		<line clip-path="url(#SVGID_4_)" fill="none" stroke="#F3F3F3" stroke-miterlimit="10" x1="-77" y1="95" x2="73" y2="-44.5"/>
		<line clip-path="url(#SVGID_4_)" fill="none" stroke="#F3F3F3" stroke-miterlimit="10" x1="-72" y1="95" x2="78" y2="-44.5"/>
		<line clip-path="url(#SVGID_4_)" fill="none" stroke="#F3F3F3" stroke-miterlimit="10" x1="-67" y1="95" x2="83" y2="-44.5"/>
		<line clip-path="url(#SVGID_4_)" fill="none" stroke="#F3F3F3" stroke-miterlimit="10" x1="-62" y1="95" x2="88" y2="-44.5"/>
		<line clip-path="url(#SVGID_4_)" fill="none" stroke="#F3F3F3" stroke-miterlimit="10" x1="-57" y1="95" x2="93" y2="-44.5"/>
		<line clip-path="url(#SVGID_4_)" fill="none" stroke="#F3F3F3" stroke-miterlimit="10" x1="-52" y1="95" x2="98" y2="-44.5"/>
		<line clip-path="url(#SVGID_4_)" fill="none" stroke="#F3F3F3" stroke-miterlimit="10" x1="-47" y1="95" x2="103" y2="-44.5"/>
		<line clip-path="url(#SVGID_4_)" fill="none" stroke="#F3F3F3" stroke-miterlimit="10" x1="-42" y1="95" x2="108" y2="-44.5"/>
		<line clip-path="url(#SVGID_4_)" fill="none" stroke="#F3F3F3" stroke-miterlimit="10" x1="-37" y1="95" x2="113" y2="-44.5"/>
		<line clip-path="url(#SVGID_4_)" fill="none" stroke="#F3F3F3" stroke-miterlimit="10" x1="-31" y1="94" x2="119" y2="-45.5"/>
		<line clip-path="url(#SVGID_4_)" fill="none" stroke="#F3F3F3" stroke-miterlimit="10" x1="-26" y1="94" x2="124" y2="-45.5"/>
		<line clip-path="url(#SVGID_4_)" fill="none" stroke="#F3F3F3" stroke-miterlimit="10" x1="-21" y1="94" x2="129" y2="-45.5"/>
		<line clip-path="url(#SVGID_4_)" fill="none" stroke="#F3F3F3" stroke-miterlimit="10" x1="-16" y1="94" x2="134" y2="-45.5"/>
		<line clip-path="url(#SVGID_4_)" fill="none" stroke="#F3F3F3" stroke-miterlimit="10" x1="-11" y1="94" x2="139" y2="-45.5"/>
		<use xlink:href="#SVGID_3_"  overflow="visible" fill="none" stroke="#808080" stroke-miterlimit="10"/>
	</g>
	<g>
		<defs>
			<circle id="SVGID_5_" cx="26.3" cy="26.3" r="25"/>
		</defs>
		<clipPath id="SVGID_6_" display="inline">
			<use xlink:href="#SVGID_5_"  overflow="visible"/>
		</clipPath>
		
			<line display="inline" clip-path="url(#SVGID_6_)" fill="none" stroke="#FEE7D4" stroke-miterlimit="10" x1="-82" y1="95" x2="68" y2="-44.5"/>
		
			<line display="inline" clip-path="url(#SVGID_6_)" fill="none" stroke="#FEE7D4" stroke-miterlimit="10" x1="-77" y1="95" x2="73" y2="-44.5"/>
		
			<line display="inline" clip-path="url(#SVGID_6_)" fill="none" stroke="#FEE7D4" stroke-miterlimit="10" x1="-72" y1="95" x2="78" y2="-44.5"/>
		
			<line display="inline" clip-path="url(#SVGID_6_)" fill="none" stroke="#FEE7D4" stroke-miterlimit="10" x1="-67" y1="95" x2="83" y2="-44.5"/>
		
			<line display="inline" clip-path="url(#SVGID_6_)" fill="none" stroke="#FEE7D4" stroke-miterlimit="10" x1="-62" y1="95" x2="88" y2="-44.5"/>
		
			<line display="inline" clip-path="url(#SVGID_6_)" fill="none" stroke="#FEE7D4" stroke-miterlimit="10" x1="-57" y1="95" x2="93" y2="-44.5"/>
		
			<line display="inline" clip-path="url(#SVGID_6_)" fill="none" stroke="#FEE7D4" stroke-miterlimit="10" x1="-52" y1="95" x2="98" y2="-44.5"/>
		
			<line display="inline" clip-path="url(#SVGID_6_)" fill="none" stroke="#FEE7D4" stroke-miterlimit="10" x1="-47" y1="95" x2="103" y2="-44.5"/>
		
			<line display="inline" clip-path="url(#SVGID_6_)" fill="none" stroke="#FEE7D4" stroke-miterlimit="10" x1="-42" y1="95" x2="108" y2="-44.5"/>
		
			<line display="inline" clip-path="url(#SVGID_6_)" fill="none" stroke="#FEE7D4" stroke-miterlimit="10" x1="-37" y1="95" x2="113" y2="-44.5"/>
		
			<line display="inline" clip-path="url(#SVGID_6_)" fill="none" stroke="#FEE7D4" stroke-miterlimit="10" x1="-31" y1="94" x2="119" y2="-45.5"/>
		
			<line display="inline" clip-path="url(#SVGID_6_)" fill="none" stroke="#FEE7D4" stroke-miterlimit="10" x1="-26" y1="94" x2="124" y2="-45.5"/>
		
			<line display="inline" clip-path="url(#SVGID_6_)" fill="none" stroke="#FEE7D4" stroke-miterlimit="10" x1="-21" y1="94" x2="129" y2="-45.5"/>
		
			<line display="inline" clip-path="url(#SVGID_6_)" fill="none" stroke="#FEE7D4" stroke-miterlimit="10" x1="-16" y1="94" x2="134" y2="-45.5"/>
		
			<line display="inline" clip-path="url(#SVGID_6_)" fill="none" stroke="#FEE7D4" stroke-miterlimit="10" x1="-11" y1="94" x2="139" y2="-45.5"/>
		<use xlink:href="#SVGID_5_"  display="inline" overflow="visible" fill="none" stroke="#F88528" stroke-miterlimit="10"/>
	</g>
	<g>
		<path display="inline" fill="#FFFFFF" d="M26.3,50.3c-13.2,0-24-10.8-24-24s10.8-24,24-24s24,10.8,24,24S39.5,50.3,26.3,50.3z"/>
		<path display="inline" fill="#F88528" d="M26.3,3.3c12.7,0,23,10.3,23,23s-10.3,23-23,23s-23-10.3-23-23S13.6,3.3,26.3,3.3
			 M26.3,1.3c-13.8,0-25,11.2-25,25s11.2,25,25,25s25-11.2,25-25S40.1,1.3,26.3,1.3L26.3,1.3z"/>
	</g>
	<line display="inline" fill="none" stroke="#808080" stroke-miterlimit="10" x1="24.3" y1="24.3" x2="28.3" y2="28.3"/>
	<line display="inline" fill="none" stroke="#808080" stroke-miterlimit="10" x1="28.3" y1="24.3" x2="24.3" y2="28.3"/>
	<line fill="none" stroke="#F88528" stroke-miterlimit="10" x1="28.3" y1="24.3" x2="24.3" y2="28.3"/>
	<line fill="none" stroke="#F88528" stroke-miterlimit="10" x1="24.3" y1="24.3" x2="28.3" y2="28.3"/>
</g>
<g id="Layer_2" display="none">
	<g display="inline">
		<defs>
			<ellipse id="SVGID_7_" cx="26.3" cy="26.3" rx="25" ry="17.5"/>
		</defs>
		<clipPath id="SVGID_8_">
			<use xlink:href="#SVGID_7_"  overflow="visible"/>
		</clipPath>
		<line clip-path="url(#SVGID_8_)" fill="none" stroke="#FEE7D4" stroke-miterlimit="10" x1="-82" y1="95" x2="68" y2="-44.5"/>
		<line clip-path="url(#SVGID_8_)" fill="none" stroke="#FEE7D4" stroke-miterlimit="10" x1="-77" y1="95" x2="73" y2="-44.5"/>
		<line clip-path="url(#SVGID_8_)" fill="none" stroke="#FEE7D4" stroke-miterlimit="10" x1="-72" y1="95" x2="78" y2="-44.5"/>
		<line clip-path="url(#SVGID_8_)" fill="none" stroke="#FEE7D4" stroke-miterlimit="10" x1="-67" y1="95" x2="83" y2="-44.5"/>
		<line clip-path="url(#SVGID_8_)" fill="none" stroke="#FEE7D4" stroke-miterlimit="10" x1="-62" y1="95" x2="88" y2="-44.5"/>
		<line clip-path="url(#SVGID_8_)" fill="none" stroke="#FEE7D4" stroke-miterlimit="10" x1="-57" y1="95" x2="93" y2="-44.5"/>
		<line clip-path="url(#SVGID_8_)" fill="none" stroke="#FEE7D4" stroke-miterlimit="10" x1="-52" y1="95" x2="98" y2="-44.5"/>
		<line clip-path="url(#SVGID_8_)" fill="none" stroke="#FEE7D4" stroke-miterlimit="10" x1="-47" y1="95" x2="103" y2="-44.5"/>
		<line clip-path="url(#SVGID_8_)" fill="none" stroke="#FEE7D4" stroke-miterlimit="10" x1="-42" y1="95" x2="108" y2="-44.5"/>
		<line clip-path="url(#SVGID_8_)" fill="none" stroke="#FEE7D4" stroke-miterlimit="10" x1="-37" y1="95" x2="113" y2="-44.5"/>
		<line clip-path="url(#SVGID_8_)" fill="none" stroke="#FEE7D4" stroke-miterlimit="10" x1="-31" y1="94" x2="119" y2="-45.5"/>
		<line clip-path="url(#SVGID_8_)" fill="none" stroke="#FEE7D4" stroke-miterlimit="10" x1="-26" y1="94" x2="124" y2="-45.5"/>
		<line clip-path="url(#SVGID_8_)" fill="none" stroke="#FEE7D4" stroke-miterlimit="10" x1="-21" y1="94" x2="129" y2="-45.5"/>
		<line clip-path="url(#SVGID_8_)" fill="none" stroke="#FEE7D4" stroke-miterlimit="10" x1="-16" y1="94" x2="134" y2="-45.5"/>
		<line clip-path="url(#SVGID_8_)" fill="none" stroke="#FEE7D4" stroke-miterlimit="10" x1="-11" y1="94" x2="139" y2="-45.5"/>
		<use xlink:href="#SVGID_7_"  overflow="visible" fill="none" stroke="#F88528" stroke-miterlimit="10"/>
	</g>
	<g display="inline">
		<defs>
			<ellipse id="SVGID_9_" cx="26.3" cy="26.3" rx="25" ry="17.5"/>
		</defs>
		<clipPath id="SVGID_10_">
			<use xlink:href="#SVGID_9_"  overflow="visible"/>
		</clipPath>
		<line clip-path="url(#SVGID_10_)" fill="none" stroke="#F3F3F3" stroke-miterlimit="10" x1="-82" y1="95" x2="68" y2="-44.5"/>
		<line clip-path="url(#SVGID_10_)" fill="none" stroke="#F3F3F3" stroke-miterlimit="10" x1="-77" y1="95" x2="73" y2="-44.5"/>
		<line clip-path="url(#SVGID_10_)" fill="none" stroke="#F3F3F3" stroke-miterlimit="10" x1="-72" y1="95" x2="78" y2="-44.5"/>
		<line clip-path="url(#SVGID_10_)" fill="none" stroke="#F3F3F3" stroke-miterlimit="10" x1="-67" y1="95" x2="83" y2="-44.5"/>
		<line clip-path="url(#SVGID_10_)" fill="none" stroke="#F3F3F3" stroke-miterlimit="10" x1="-62" y1="95" x2="88" y2="-44.5"/>
		<line clip-path="url(#SVGID_10_)" fill="none" stroke="#F3F3F3" stroke-miterlimit="10" x1="-57" y1="95" x2="93" y2="-44.5"/>
		<line clip-path="url(#SVGID_10_)" fill="none" stroke="#F3F3F3" stroke-miterlimit="10" x1="-52" y1="95" x2="98" y2="-44.5"/>
		<line clip-path="url(#SVGID_10_)" fill="none" stroke="#F3F3F3" stroke-miterlimit="10" x1="-47" y1="95" x2="103" y2="-44.5"/>
		<line clip-path="url(#SVGID_10_)" fill="none" stroke="#F3F3F3" stroke-miterlimit="10" x1="-42" y1="95" x2="108" y2="-44.5"/>
		<line clip-path="url(#SVGID_10_)" fill="none" stroke="#F3F3F3" stroke-miterlimit="10" x1="-37" y1="95" x2="113" y2="-44.5"/>
		<line clip-path="url(#SVGID_10_)" fill="none" stroke="#F3F3F3" stroke-miterlimit="10" x1="-31" y1="94" x2="119" y2="-45.5"/>
		<line clip-path="url(#SVGID_10_)" fill="none" stroke="#F3F3F3" stroke-miterlimit="10" x1="-26" y1="94" x2="124" y2="-45.5"/>
		<line clip-path="url(#SVGID_10_)" fill="none" stroke="#F3F3F3" stroke-miterlimit="10" x1="-21" y1="94" x2="129" y2="-45.5"/>
		<line clip-path="url(#SVGID_10_)" fill="none" stroke="#F3F3F3" stroke-miterlimit="10" x1="-16" y1="94" x2="134" y2="-45.5"/>
		<line clip-path="url(#SVGID_10_)" fill="none" stroke="#F3F3F3" stroke-miterlimit="10" x1="-11" y1="94" x2="139" y2="-45.5"/>
		<use xlink:href="#SVGID_9_"  overflow="visible" fill="none" stroke="#808080" stroke-miterlimit="10"/>
	</g>
	<g>
		<path display="inline" fill="#FFFFFF" d="M26.3,42.8c-13.2,0-24-7.4-24-16.5S13,9.8,26.3,9.8s24,7.4,24,16.5S39.5,42.8,26.3,42.8z
			"/>
		<path display="inline" fill="#808080" d="M26.3,10.8c12.7,0,23,7,23,15.5s-10.3,15.5-23,15.5s-23-7-23-15.5S13.6,10.8,26.3,10.8
			 M26.3,8.8c-13.8,0-25,7.8-25,17.5s11.2,17.5,25,17.5s25-7.8,25-17.5S40.1,8.8,26.3,8.8L26.3,8.8z"/>
	</g>
	<line display="inline" fill="none" stroke="#808080" stroke-miterlimit="10" x1="24.3" y1="24.3" x2="28.3" y2="28.3"/>
	<line display="inline" fill="none" stroke="#808080" stroke-miterlimit="10" x1="28.3" y1="24.3" x2="24.3" y2="28.3"/>
	<line display="inline" fill="none" stroke="#F88528" stroke-miterlimit="10" x1="28.3" y1="24.3" x2="24.3" y2="28.3"/>
	<line display="inline" fill="none" stroke="#F88528" stroke-miterlimit="10" x1="24.3" y1="24.3" x2="28.3" y2="28.3"/>
</g>
<g id="Layer_4">
	<g display="none">
		<defs>
			<path id="SVGID_11_" d="M45.2,51.3H7.3c-3.3,0-6-2.7-6-6V7.3c0-3.3,2.7-6,6-6h37.9c3.3,0,6,2.7,6,6v37.9
				C51.3,48.5,48.5,51.3,45.2,51.3z"/>
		</defs>
		<clipPath id="SVGID_12_" display="inline">
			<use xlink:href="#SVGID_11_"  overflow="visible"/>
		</clipPath>
		
			<line display="inline" clip-path="url(#SVGID_12_)" fill="none" stroke="#FEE7D4" stroke-miterlimit="10" x1="-82" y1="95" x2="68" y2="-44.5"/>
		
			<line display="inline" clip-path="url(#SVGID_12_)" fill="none" stroke="#FEE7D4" stroke-miterlimit="10" x1="-34" y1="46" x2="116" y2="-93.5"/>
		
			<line display="inline" clip-path="url(#SVGID_12_)" fill="none" stroke="#FEE7D4" stroke-miterlimit="10" x1="-77" y1="95" x2="73" y2="-44.5"/>
		
			<line display="inline" clip-path="url(#SVGID_12_)" fill="none" stroke="#FEE7D4" stroke-miterlimit="10" x1="-72" y1="95" x2="78" y2="-44.5"/>
		
			<line display="inline" clip-path="url(#SVGID_12_)" fill="none" stroke="#FEE7D4" stroke-miterlimit="10" x1="-67" y1="95" x2="83" y2="-44.5"/>
		
			<line display="inline" clip-path="url(#SVGID_12_)" fill="none" stroke="#FEE7D4" stroke-miterlimit="10" x1="-62" y1="95" x2="88" y2="-44.5"/>
		
			<line display="inline" clip-path="url(#SVGID_12_)" fill="none" stroke="#FEE7D4" stroke-miterlimit="10" x1="-57" y1="95" x2="93" y2="-44.5"/>
		
			<line display="inline" clip-path="url(#SVGID_12_)" fill="none" stroke="#FEE7D4" stroke-miterlimit="10" x1="-52" y1="95" x2="98" y2="-44.5"/>
		
			<line display="inline" clip-path="url(#SVGID_12_)" fill="none" stroke="#FEE7D4" stroke-miterlimit="10" x1="-47" y1="95" x2="103" y2="-44.5"/>
		
			<line display="inline" clip-path="url(#SVGID_12_)" fill="none" stroke="#FEE7D4" stroke-miterlimit="10" x1="-42" y1="95" x2="108" y2="-44.5"/>
		
			<line display="inline" clip-path="url(#SVGID_12_)" fill="none" stroke="#FEE7D4" stroke-miterlimit="10" x1="-37" y1="95" x2="113" y2="-44.5"/>
		
			<line display="inline" clip-path="url(#SVGID_12_)" fill="none" stroke="#FEE7D4" stroke-miterlimit="10" x1="-31" y1="94" x2="119" y2="-45.5"/>
		
			<line display="inline" clip-path="url(#SVGID_12_)" fill="none" stroke="#FEE7D4" stroke-miterlimit="10" x1="-26" y1="94" x2="124" y2="-45.5"/>
		
			<line display="inline" clip-path="url(#SVGID_12_)" fill="none" stroke="#FEE7D4" stroke-miterlimit="10" x1="-21" y1="94" x2="129" y2="-45.5"/>
		
			<line display="inline" clip-path="url(#SVGID_12_)" fill="none" stroke="#FEE7D4" stroke-miterlimit="10" x1="-16" y1="94" x2="134" y2="-45.5"/>
		
			<line display="inline" clip-path="url(#SVGID_12_)" fill="none" stroke="#FEE7D4" stroke-miterlimit="10" x1="-11" y1="94" x2="139" y2="-45.5"/>
		
			<line display="inline" clip-path="url(#SVGID_12_)" fill="none" stroke="#FEE7D4" stroke-miterlimit="10" x1="-34" y1="120" x2="116" y2="-19.5"/>
		
			<line display="inline" clip-path="url(#SVGID_12_)" fill="none" stroke="#FEE7D4" stroke-miterlimit="10" x1="-34" y1="41" x2="116" y2="-98.5"/>
		
			<line display="inline" clip-path="url(#SVGID_12_)" fill="none" stroke="#FEE7D4" stroke-miterlimit="10" x1="-34" y1="124" x2="116" y2="-15.5"/>
		<use xlink:href="#SVGID_11_"  display="inline" overflow="visible" fill="none" stroke="#F88528" stroke-miterlimit="10"/>
	</g>
	<g>
		<defs>
			<path id="SVGID_13_" d="M45.2,51.3H7.3c-3.3,0-6-2.7-6-6V7.3c0-3.3,2.7-6,6-6h37.9c3.3,0,6,2.7,6,6v37.9
				C51.3,48.5,48.5,51.3,45.2,51.3z"/>
		</defs>
		<clipPath id="SVGID_14_">
			<use xlink:href="#SVGID_13_"  overflow="visible"/>
		</clipPath>
		<line clip-path="url(#SVGID_14_)" fill="none" stroke="#F3F3F3" stroke-miterlimit="10" x1="-82" y1="95" x2="68" y2="-44.5"/>
		<line clip-path="url(#SVGID_14_)" fill="none" stroke="#F3F3F3" stroke-miterlimit="10" x1="-34" y1="46" x2="116" y2="-93.5"/>
		<line clip-path="url(#SVGID_14_)" fill="none" stroke="#F3F3F3" stroke-miterlimit="10" x1="-77" y1="95" x2="73" y2="-44.5"/>
		<line clip-path="url(#SVGID_14_)" fill="none" stroke="#F3F3F3" stroke-miterlimit="10" x1="-72" y1="95" x2="78" y2="-44.5"/>
		<line clip-path="url(#SVGID_14_)" fill="none" stroke="#F3F3F3" stroke-miterlimit="10" x1="-67" y1="95" x2="83" y2="-44.5"/>
		<line clip-path="url(#SVGID_14_)" fill="none" stroke="#F3F3F3" stroke-miterlimit="10" x1="-62" y1="95" x2="88" y2="-44.5"/>
		<line clip-path="url(#SVGID_14_)" fill="none" stroke="#F3F3F3" stroke-miterlimit="10" x1="-57" y1="95" x2="93" y2="-44.5"/>
		<line clip-path="url(#SVGID_14_)" fill="none" stroke="#F3F3F3" stroke-miterlimit="10" x1="-52" y1="95" x2="98" y2="-44.5"/>
		<line clip-path="url(#SVGID_14_)" fill="none" stroke="#F3F3F3" stroke-miterlimit="10" x1="-47" y1="95" x2="103" y2="-44.5"/>
		<line clip-path="url(#SVGID_14_)" fill="none" stroke="#F3F3F3" stroke-miterlimit="10" x1="-42" y1="95" x2="108" y2="-44.5"/>
		<line clip-path="url(#SVGID_14_)" fill="none" stroke="#F3F3F3" stroke-miterlimit="10" x1="-37" y1="95" x2="113" y2="-44.5"/>
		<line clip-path="url(#SVGID_14_)" fill="none" stroke="#F3F3F3" stroke-miterlimit="10" x1="-31" y1="94" x2="119" y2="-45.5"/>
		<line clip-path="url(#SVGID_14_)" fill="none" stroke="#F3F3F3" stroke-miterlimit="10" x1="-26" y1="94" x2="124" y2="-45.5"/>
		<line clip-path="url(#SVGID_14_)" fill="none" stroke="#F3F3F3" stroke-miterlimit="10" x1="-21" y1="94" x2="129" y2="-45.5"/>
		<line clip-path="url(#SVGID_14_)" fill="none" stroke="#F3F3F3" stroke-miterlimit="10" x1="-16" y1="94" x2="134" y2="-45.5"/>
		<line clip-path="url(#SVGID_14_)" fill="none" stroke="#F3F3F3" stroke-miterlimit="10" x1="-11" y1="94" x2="139" y2="-45.5"/>
		<line clip-path="url(#SVGID_14_)" fill="none" stroke="#F3F3F3" stroke-miterlimit="10" x1="-34" y1="120" x2="116" y2="-19.5"/>
		<line clip-path="url(#SVGID_14_)" fill="none" stroke="#F3F3F3" stroke-miterlimit="10" x1="-34" y1="41" x2="116" y2="-98.5"/>
		<line clip-path="url(#SVGID_14_)" fill="none" stroke="#F3F3F3" stroke-miterlimit="10" x1="-34" y1="124" x2="116" y2="-15.5"/>
		<use xlink:href="#SVGID_13_"  overflow="visible" fill="none" stroke="#808080" stroke-miterlimit="10"/>
	</g>
	<g display="none">
		<line display="inline" fill="none" stroke="#FEE7D4" stroke-miterlimit="10" x1="-82" y1="95" x2="68" y2="-44.5"/>
		<line display="inline" fill="none" stroke="#FEE7D4" stroke-miterlimit="10" x1="-34" y1="46" x2="116" y2="-93.5"/>
		<line display="inline" fill="none" stroke="#FEE7D4" stroke-miterlimit="10" x1="-77" y1="95" x2="73" y2="-44.5"/>
		<line display="inline" fill="none" stroke="#FEE7D4" stroke-miterlimit="10" x1="-72" y1="95" x2="78" y2="-44.5"/>
		<line display="inline" fill="none" stroke="#FEE7D4" stroke-miterlimit="10" x1="-67" y1="95" x2="83" y2="-44.5"/>
		<line display="inline" fill="none" stroke="#FEE7D4" stroke-miterlimit="10" x1="-62" y1="95" x2="88" y2="-44.5"/>
		<line display="inline" fill="none" stroke="#FEE7D4" stroke-miterlimit="10" x1="-57" y1="95" x2="93" y2="-44.5"/>
		<line display="inline" fill="none" stroke="#FEE7D4" stroke-miterlimit="10" x1="-52" y1="95" x2="98" y2="-44.5"/>
		<line display="inline" fill="none" stroke="#FEE7D4" stroke-miterlimit="10" x1="-47" y1="95" x2="103" y2="-44.5"/>
		<line display="inline" fill="none" stroke="#FEE7D4" stroke-miterlimit="10" x1="-42" y1="95" x2="108" y2="-44.5"/>
		<line display="inline" fill="none" stroke="#FEE7D4" stroke-miterlimit="10" x1="-37" y1="95" x2="113" y2="-44.5"/>
		<line display="inline" fill="none" stroke="#FEE7D4" stroke-miterlimit="10" x1="-31" y1="94" x2="119" y2="-45.5"/>
		<line display="inline" fill="none" stroke="#FEE7D4" stroke-miterlimit="10" x1="-26" y1="94" x2="124" y2="-45.5"/>
		<line display="inline" fill="none" stroke="#FEE7D4" stroke-miterlimit="10" x1="-21" y1="94" x2="129" y2="-45.5"/>
		<line display="inline" fill="none" stroke="#FEE7D4" stroke-miterlimit="10" x1="-16" y1="94" x2="134" y2="-45.5"/>
		<line display="inline" fill="none" stroke="#FEE7D4" stroke-miterlimit="10" x1="-11" y1="94" x2="139" y2="-45.5"/>
		<line display="inline" fill="none" stroke="#FEE7D4" stroke-miterlimit="10" x1="-34" y1="120" x2="116" y2="-19.5"/>
		<line display="inline" fill="none" stroke="#FEE7D4" stroke-miterlimit="10" x1="-34" y1="41" x2="116" y2="-98.5"/>
		<line display="inline" fill="none" stroke="#FEE7D4" stroke-miterlimit="10" x1="-34" y1="124" x2="116" y2="-15.5"/>
	</g>
	<g display="none">
		<path display="inline" fill="#FFFFFF" d="M7.3,50.3c-2.8,0-5-2.3-5-5V7.3c0-2.8,2.3-5,5-5h37.9c2.8,0,5,2.3,5,5v37.9
			c0,2.8-2.3,5-5,5H7.3z"/>
		<path display="inline" fill="#808080" d="M45.2,3.3c2.2,0,4,1.8,4,4v37.9c0,2.2-1.8,4-4,4H7.3c-2.2,0-4-1.8-4-4V7.3
			c0-2.2,1.8-4,4-4H45.2 M45.2,1.3H7.3c-3.3,0-6,2.7-6,6v37.9c0,3.3,2.7,6,6,6h37.9c3.3,0,6-2.7,6-6V7.3C51.3,4,48.5,1.3,45.2,1.3
			L45.2,1.3z"/>
	</g>
	<line fill="none" stroke="#808080" stroke-miterlimit="10" x1="24.3" y1="24.3" x2="28.3" y2="28.3"/>
	<line fill="none" stroke="#808080" stroke-miterlimit="10" x1="28.3" y1="24.3" x2="24.3" y2="28.3"/>
	<line display="none" fill="none" stroke="#F88528" stroke-miterlimit="10" x1="28.3" y1="24.3" x2="24.3" y2="28.3"/>
	<line display="none" fill="none" stroke="#F88528" stroke-miterlimit="10" x1="24.3" y1="24.3" x2="28.3" y2="28.3"/>
</g>
<g id="Layer_5" display="none">
	<g display="inline">
		<line fill="none" stroke="#FEE7D4" stroke-miterlimit="10" x1="-82" y1="95" x2="68" y2="-44.5"/>
		<line fill="none" stroke="#FEE7D4" stroke-miterlimit="10" x1="-77" y1="95" x2="73" y2="-44.5"/>
		<line fill="none" stroke="#FEE7D4" stroke-miterlimit="10" x1="-72" y1="95" x2="78" y2="-44.5"/>
		<line fill="none" stroke="#FEE7D4" stroke-miterlimit="10" x1="-67" y1="95" x2="83" y2="-44.5"/>
		<line fill="none" stroke="#FEE7D4" stroke-miterlimit="10" x1="-62" y1="95" x2="88" y2="-44.5"/>
		<line fill="none" stroke="#FEE7D4" stroke-miterlimit="10" x1="-57" y1="95" x2="93" y2="-44.5"/>
		<line fill="none" stroke="#FEE7D4" stroke-miterlimit="10" x1="-52" y1="95" x2="98" y2="-44.5"/>
		<line fill="none" stroke="#FEE7D4" stroke-miterlimit="10" x1="-47" y1="95" x2="103" y2="-44.5"/>
		<line fill="none" stroke="#FEE7D4" stroke-miterlimit="10" x1="-42" y1="95" x2="108" y2="-44.5"/>
		<line fill="none" stroke="#FEE7D4" stroke-miterlimit="10" x1="-37" y1="95" x2="113" y2="-44.5"/>
		<line fill="none" stroke="#FEE7D4" stroke-miterlimit="10" x1="-31" y1="94" x2="119" y2="-45.5"/>
		<line fill="none" stroke="#FEE7D4" stroke-miterlimit="10" x1="-26" y1="94" x2="124" y2="-45.5"/>
		<line fill="none" stroke="#FEE7D4" stroke-miterlimit="10" x1="-21" y1="94" x2="129" y2="-45.5"/>
		<line fill="none" stroke="#FEE7D4" stroke-miterlimit="10" x1="-16" y1="94" x2="134" y2="-45.5"/>
		<line fill="none" stroke="#FEE7D4" stroke-miterlimit="10" x1="-11" y1="94" x2="139" y2="-45.5"/>
	</g>
</g>
</svg>
