<?xml version="1.0" encoding="utf-8"?>
<!-- Generator: Adobe Illustrator 16.2.0, SVG Export Plug-In . SVG Version: 6.00 Build 0)  -->
<!DOCTYPE svg PUBLIC "-//W3C//DTD SVG 1.1//EN" "http://www.w3.org/Graphics/SVG/1.1/DTD/svg11.dtd">
<svg version="1.1" id="Слой_1" xmlns="http://www.w3.org/2000/svg" xmlns:xlink="http://www.w3.org/1999/xlink" x="0px" y="0px"
	 width="45px" height="45px" viewBox="0 0 45 45" enable-background="new 0 0 45 45" xml:space="preserve">
<rect x="-505.297" y="-631.042" fill="none" width="1100.279" height="1342.54"/>
<path fill="#FFFFFF" d="M17.752,28.165c-1.874,0-3.398,1.523-3.398,3.396s1.524,3.396,3.398,3.396c1.873,0,3.397-1.523,3.397-3.396
	S19.625,28.165,17.752,28.165z M17.776,33.526c-1.062,0-1.922-0.859-1.922-1.922c0-1.061,0.86-1.922,1.922-1.922
	s1.922,0.861,1.922,1.922C19.698,32.667,18.838,33.526,17.776,33.526z M26.309,28.165c-1.873,0-3.396,1.523-3.396,3.396
	s1.522,3.396,3.396,3.396s3.397-1.523,3.397-3.396S28.182,28.165,26.309,28.165z M26.338,33.526c-1.061,0-1.922-0.859-1.922-1.922
	c0-1.061,0.861-1.922,1.922-1.922c1.063,0,1.922,0.861,1.922,1.922C28.26,32.667,27.4,33.526,26.338,33.526z M36.662,11.497
	l-3.547,0.887l-3.028,14.137H13.046l-4.708-8.238l4.96-1.24l0.365,1.455l-3.04,0.76l3.293,5.764h14.958l2.971-13.865l4.454-1.113
	L36.662,11.497z"/>
</svg>
