<?xml version="1.0" encoding="utf-8"?>
<!-- Generator: Adobe Illustrator 16.0.0, SVG Export Plug-In . SVG Version: 6.00 Build 0)  -->
<!DOCTYPE svg PUBLIC "-//W3C//DTD SVG 1.1//EN" "http://www.w3.org/Graphics/SVG/1.1/DTD/svg11.dtd">
<svg version="1.1" id="Layer_1" xmlns="http://www.w3.org/2000/svg" xmlns:xlink="http://www.w3.org/1999/xlink" x="0px" y="0px"
	 width="45px" height="45px" viewBox="0 0 45 45" enable-background="new 0 0 45 45" xml:space="preserve">
<g>
	<g>
		<path fill="#FFFFFF" d="M21.258,24.133c-1.395-0.983-2.663-2.426-2.686-2.87c0-0.809,0.072-1.195,1.891-2.604
			c2.353-1.834,3.647-4.244,3.647-6.79c0-2.31-0.708-4.359-1.916-5.8h0.934c0.195,0,0.384-0.062,0.542-0.174l2.607-1.881
			c0.324-0.232,0.461-0.645,0.336-1.023c-0.125-0.376-0.475-0.633-0.872-0.633h-11.67c-1.276,0-2.575,0.224-3.849,0.661
			C5.969,4.48,2.995,8.09,2.995,11.796c0,5.248,4.084,9.227,9.542,9.354c-0.106,0.415-0.159,0.824-0.159,1.229
			c0,0.806,0.205,1.575,0.629,2.314c-0.048,0.002-0.097,0.002-0.15,0.002c-5.202,0-9.9,2.542-11.683,6.325
			C0.709,32.005,0.471,33,0.471,33.983c0,0.953,0.247,1.874,0.73,2.736c1.12,1.996,3.527,3.548,6.781,4.364
			c1.678,0.424,3.483,0.639,5.355,0.639c1.684,0,3.287-0.218,4.772-0.645c4.626-1.338,7.615-4.729,7.615-8.646
			C25.725,28.675,24.515,26.428,21.258,24.133z M9.021,11.654c-0.254-1.923,0.151-3.65,1.113-4.743
			c0.621-0.706,1.434-1.079,2.348-1.079l0.104,0.001c2.58,0.077,5.047,2.938,5.503,6.382c0.254,1.928-0.176,3.741-1.151,4.847
			c-0.621,0.707-1.423,1.08-2.375,1.08h-0.043C11.992,18.067,9.473,15.094,9.021,11.654z M13.314,38.036
			c-3.812,0-6.796-2.33-6.796-5.301c0-2.734,3.486-5.131,7.458-5.131h0.108c0.865,0.009,1.708,0.137,2.505,0.381
			c0.271,0.185,0.535,0.364,0.788,0.535c1.839,1.249,3.056,2.073,3.396,3.397c0.077,0.333,0.117,0.666,0.117,0.987
			C20.889,36.312,18.341,38.036,13.314,38.036z M43.552,18.341H36.92v-6.605c0-0.506-0.412-0.916-0.918-0.916h-1.889
			c-0.509,0-0.92,0.409-0.92,0.916v6.605H26.56c-0.503,0-0.916,0.412-0.916,0.916v1.882c0,0.505,0.413,0.914,0.916,0.914h6.634
			v6.607c0,0.505,0.411,0.914,0.92,0.914h1.889c0.506,0,0.918-0.409,0.918-0.914v-6.607h6.632c0.506,0,0.919-0.409,0.919-0.914
			v-1.882C44.471,18.753,44.058,18.341,43.552,18.341z"/>
	</g>
</g>
<g>
</g>
<g>
</g>
<g>
</g>
<g>
</g>
<g>
</g>
<g>
</g>
<g>
</g>
<g>
</g>
<g>
</g>
<g>
</g>
<g>
</g>
<g>
</g>
<g>
</g>
<g>
</g>
<g>
</g>
</svg>
