<?xml version="1.0" encoding="utf-8"?>
<!-- Generator: Adobe Illustrator 16.0.0, SVG Export Plug-In . SVG Version: 6.00 Build 0)  -->
<!DOCTYPE svg PUBLIC "-//W3C//DTD SVG 1.1//EN" "http://www.w3.org/Graphics/SVG/1.1/DTD/svg11.dtd">
<svg version="1.1" id="Слой_1" xmlns="http://www.w3.org/2000/svg" xmlns:xlink="http://www.w3.org/1999/xlink" x="0px" y="0px"
	 width="45px" height="45px" viewBox="0 0 45 45" enable-background="new 0 0 45 45" xml:space="preserve">
<rect x="-505.297" y="-631.042" fill="none" width="1100.279" height="1342.54"/>
<path fill="#FFFFFF" d="M38.75,23.215c0-3.796-3.079-6.875-6.875-6.875c-3.146,0-5.792,2.113-6.609,5H7.5v3.75h1.25v2.5h2.5v-2.5
	h1.25v1.251h2.501V25.09h1.249v2.5h2.5v-2.5h6.516c0.817,2.886,3.465,5,6.609,5C35.671,30.09,38.75,27.012,38.75,23.215z M35,23.215
	c0,1.726-1.398,3.125-3.125,3.125s-3.125-1.399-3.125-3.125c0-1.727,1.398-3.125,3.125-3.125S35,21.488,35,23.215z"/>
</svg>
