<?xml version="1.0" encoding="utf-8"?>
<!-- Generator: Adobe Illustrator 16.2.0, SVG Export Plug-In . SVG Version: 6.00 Build 0)  -->
<!DOCTYPE svg PUBLIC "-//W3C//DTD SVG 1.1//EN" "http://www.w3.org/Graphics/SVG/1.1/DTD/svg11.dtd">
<svg version="1.1" id="Слой_1" xmlns="http://www.w3.org/2000/svg" xmlns:xlink="http://www.w3.org/1999/xlink" x="0px" y="0px"
	 width="32.375px" height="36.875px" viewBox="0 0 32.375 36.875" enable-background="new 0 0 32.375 36.875" xml:space="preserve">
<path fill-rule="evenodd" clip-rule="evenodd" fill="#0C0E0F" d="M31,26.966c-0.82,1.815-1.213,2.627-2.268,4.232
	c-1.473,2.242-3.548,5.033-6.121,5.058c-2.286,0.021-2.873-1.487-5.976-1.471c-3.102,0.018-3.749,1.497-6.036,1.476
	c-2.572-0.023-4.54-2.544-6.013-4.786c-4.119-6.269-4.55-13.625-2.009-17.535C4.383,11.16,7.23,9.533,9.908,9.533
	c2.727,0,4.441,1.494,6.695,1.494c2.187,0,3.519-1.497,6.671-1.497c2.383,0,4.907,1.298,6.707,3.539
	C24.087,16.3,25.045,24.716,31,26.966"/>
<path fill-rule="evenodd" clip-rule="evenodd" fill="#0C0E0F" d="M20.884,7.026c1.145-1.47,2.015-3.545,1.699-5.667
	c-1.871,0.129-4.059,1.319-5.337,2.871c-1.16,1.408-2.117,3.497-1.745,5.526C17.544,9.82,19.657,8.601,20.884,7.026"/>
</svg>
