<?xml version="1.0" encoding="utf-8"?>
<!-- Generator: Adobe Illustrator 18.1.1, SVG Export Plug-In . SVG Version: 6.00 Build 0)  -->
<svg version="1.1" id="Layer_1" xmlns="http://www.w3.org/2000/svg" xmlns:xlink="http://www.w3.org/1999/xlink" x="0px" y="0px"
	 viewBox="0 0 841.9 595.3" enable-background="new 0 0 841.9 595.3" xml:space="preserve">
<g>
	<g>
		<path id="SVGID_1_" fill="#FFFFFF" d="M412,166.7v23.8l-23.8-3C301.9,175.6,227.5,136.9,165,71.4l-29.8-32.7l-11.9,23.8
			c-17.9,53.6-6,110.1,29.8,148.8c17.9,20.8,14.9,23.8-17.9,11.9c-11.9-6-20.8-8.9-20.8-6c-3,3,8.9,47.6,17.9,65.5
			c11.9,23.8,38.7,50.6,65.5,62.5l20.8,11.9h-26.8c-26.8,0-26.8,0-23.8,11.9c8.9,32.7,47.6,65.5,89.3,83.3l29.8,11.9l-26.8,14.9
			c-38.7,23.8-83.3,35.7-128,35.7c-20.8,0-38.7,3-38.7,3c0,6,56.6,32.7,92.3,44.6c101.2,32.7,220.3,17.9,309.5-35.7
			c62.5-38.7,128-119.1,157.7-193.5c14.9-41.7,32.7-113.1,32.7-148.8c0-23.8,0-26.8,26.8-53.6c14.9-14.9,29.8-32.7,32.7-38.7
			c6-8.9,3-8.9-20.8,0c-41.7,14.9-44.6,11.9-26.8-8.9c14.9-14.9,32.7-44.6,32.7-53.6c0-3-6,0-14.9,6c-8.9,6-26.8,11.9-41.7,17.9
			l-26.8,8.9l-23.8-17.9c-11.9-8.9-29.8-17.9-41.7-20.8c-23.8-6-62.5-6-83.3,3C444.8,44.6,406.1,101.2,412,166.7
			C412,166.7,406.1,101.2,412,166.7z"/>
	</g>
</g>
</svg>
