<?xml version="1.0" encoding="utf-8"?>
<!-- Generator: Adobe Illustrator 16.2.0, SVG Export Plug-In . SVG Version: 6.00 Build 0)  -->
<!DOCTYPE svg PUBLIC "-//W3C//DTD SVG 1.1//EN" "http://www.w3.org/Graphics/SVG/1.1/DTD/svg11.dtd">
<svg version="1.1" id="Слой_1" xmlns="http://www.w3.org/2000/svg" xmlns:xlink="http://www.w3.org/1999/xlink" x="0px" y="0px"
	 width="45px" height="45px" viewBox="0 0 45 45" enable-background="new 0 0 45 45" xml:space="preserve">
<rect x="-505.297" y="-631.042" fill="none" width="1100.279" height="1342.54"/>
<path fill="#FFFFFF" d="M15.332,16.22c1.183,3.902,3.763,7.104,7.168,7.104c3.406,0,5.986-3.2,7.168-7.104
	c1.271-0.081,2.292-2.226,2.292-3.934c0-1.38-0.67-2.051-1.595-2.272c-0.122-3.049-1.03-4.547-1.871-5.39
	c0.294-0.136,0.656-0.221,1.102-0.221c-0.803-0.8-2.009-1.395-3.211-1.686C26.334,2.395,26.527,1.95,27.23,1.25
	c-8.179-0.693-12.396,3.491-12.599,8.765c-0.924,0.224-1.591,0.894-1.591,2.271C13.041,13.994,14.06,16.139,15.332,16.22z
	 M28.334,22.535L22.5,30.418l-5.834-7.883c-6.707,0.979-11.508,5.517-11.508,5.517L22.5,44l17.343-15.948
	C39.843,28.052,35.041,23.516,28.334,22.535z"/>
</svg>
