<?xml version="1.0" encoding="utf-8"?>
<!-- Generator: Adobe Illustrator 19.0.0, SVG Export Plug-In . SVG Version: 6.00 Build 0)  -->
<svg version="1.1" id="Layer_1" xmlns="http://www.w3.org/2000/svg" xmlns:xlink="http://www.w3.org/1999/xlink" x="0px" y="0px"
	 viewBox="0 0 117.1 75.1" style="enable-background:new 0 0 117.1 75.1;" xml:space="preserve">
<style type="text/css">
	.st0{fill:#FFFFFF;stroke:#818385;stroke-miterlimit:10;}
	.st1{fill:#FFFFFF;stroke:#818385;stroke-linecap:round;stroke-linejoin:round;stroke-miterlimit:10;}
	.st2{fill:#D2D3D4;}
	.st3{fill:none;stroke:#FFFFFF;stroke-width:0.3;stroke-miterlimit:10;}
	.st4{clip-path:url(#SVGID_2_);}
	.st5{fill:#F6872A;}
</style>
<g>
	<path class="st0" d="M97.3,56.3c0,0.8-0.7,1.5-1.5,1.5h-76c-0.8,0-1.5-0.7-1.5-1.5v-53c0-0.8,0.7-1.5,1.5-1.5h76
		c0.8,0,1.5,0.7,1.5,1.5V56.3z"/>
	<path class="st0" d="M94.3,50.3c0,0.8-0.7,1.5-1.5,1.5h-70c-0.8,0-1.5-0.7-1.5-1.5v-44c0-0.8,0.7-1.5,1.5-1.5h70
		c0.8,0,1.5,0.7,1.5,1.5V50.3z"/>
	<path class="st0" d="M115.3,71.6c0,0.7-0.5,1.2-1.2,1.2H2.5c-0.7,0-1.2-0.5-1.2-1.2V71c0-0.7,0.5-1.2,1.2-1.2h111.6
		c0.7,0,1.2,0.5,1.2,1.2V71.6z"/>
	<polygon class="st1" points="114.8,70.2 1.7,70.2 18.7,55.8 97.4,55.8 	"/>
	<g>
		<polygon class="st2" points="69.9,68.3 45.3,68.3 46.7,65.3 68.3,65.3 		"/>
		<polygon class="st2" points="94.8,57.3 22.4,57.3 14.9,64.3 102,64.3 		"/>
		<path class="st3" d="M99.6,61.8"/>
		<path class="st3" d="M16.6,61.8"/>
		<line class="st3" x1="20.7" y1="58.5" x2="96.7" y2="58.5"/>
		<line class="st3" x1="18.4" y1="60" x2="98.7" y2="60"/>
		<line class="st3" x1="17" y1="62.1" x2="100.5" y2="62.1"/>
		<line class="st3" x1="26.1" y1="56.7" x2="20.1" y2="64.6"/>
		<line class="st3" x1="29.3" y1="57" x2="24.4" y2="64.6"/>
		<line class="st3" x1="33" y1="56.7" x2="28.4" y2="64.6"/>
		<line class="st3" x1="35.8" y1="56.7" x2="32.3" y2="64.8"/>
		<line class="st3" x1="39.1" y1="56.7" x2="36.2" y2="64.8"/>
		<line class="st3" x1="42.5" y1="57" x2="40.3" y2="64.6"/>
		<line class="st3" x1="45.8" y1="57" x2="44.3" y2="64.6"/>
		<line class="st3" x1="49.1" y1="57" x2="47.9" y2="64.6"/>
		<line class="st3" x1="52.3" y1="57" x2="51.2" y2="64.6"/>
		<line class="st3" x1="55.4" y1="57" x2="54.9" y2="64.6"/>
		<line class="st3" x1="90.7" y1="56.7" x2="96.7" y2="64.6"/>
		<line class="st3" x1="87.5" y1="57" x2="92.4" y2="64.6"/>
		<line class="st3" x1="83.9" y1="56.7" x2="88.4" y2="64.6"/>
		<line class="st3" x1="81" y1="56.7" x2="84.5" y2="64.8"/>
		<line class="st3" x1="77.7" y1="56.7" x2="80.7" y2="64.8"/>
		<line class="st3" x1="74.4" y1="57" x2="76.5" y2="64.6"/>
		<line class="st3" x1="71" y1="57" x2="72.5" y2="64.6"/>
		<line class="st3" x1="67.7" y1="57" x2="68.9" y2="64.6"/>
		<line class="st3" x1="64.5" y1="57" x2="65.6" y2="64.6"/>
		<line class="st3" x1="61.5" y1="57" x2="61.9" y2="64.6"/>
		<line class="st3" x1="58.4" y1="57.3" x2="58.4" y2="64.3"/>
	</g>
</g>
<g>
	<defs>
		<rect id="SVGID_1_" x="17" y="4.8" width="77.3" height="45.5"/>
	</defs>
	<clipPath id="SVGID_2_">
		<use xlink:href="#SVGID_1_"  style="overflow:visible;"/>
	</clipPath>
	<g class="st4">
		<path class="st5" d="M63.2,14.3c0-0.1-0.5,0-0.5,0c0.2-0.9,0.2-1.7,0-2.7c-0.1-0.6-0.2-1-0.6-1.5c-0.2-0.2-0.4-0.5-0.7-0.6
			c-0.8-0.3-1.5-0.8-2.3-1.1c-0.8-0.4-2.3-0.3-3.1,0c-0.8,0.4-1.4,0.6-2.1,1.2c-1.1,1-1.5,2.1-1.6,3.6c-0.1,0.6,0.2,1.3,0,1.8
			c-0.6-0.1,0.2,1.6,0.3,1.9c0.2,0.4,0.2,2.2,0.9,1.9c0.2,0.4,0.6,2.2,1.1,2.3c0,0.8,0.1,1.6,0.2,2.4c0,0.6,0.2,1,0.1,1.6
			c-0.1,0.2-0.2,0.5-0.2,0.8c-0.2,0-0.4,0.1-0.4,0.3c-0.4,0.1-0.8,0.1-1.2,0.2c-1.3,0.4-2.5,0.9-3.7,1.7c-1.5,1-0.7,2.9-1.3,4.4
			c-0.6,1.5-0.5,2.8-0.5,4.4c0,0.7,0,1.3-0.3,2c-0.2,0.7-0.1,0.4,0.4,0.9c0,0.9-0.2,1.7-0.4,2.6c-0.2,0.8-0.3,1.5-0.5,2.3
			c-0.5,1.7-1.4,3.2-1.5,5c-0.2,1.6-0.3,3.3-0.4,4.9c-0.1,0.7-0.2,2-0.6,2.5c0,0.7-0.7,1.7-0.8,2.4c-0.1,0.6,0.1,1.2,0.3,1.7
			c0.2,0.5,0.4,1.1,0.6,1.6c0.2,0.3,0.6,0.7,0.6,1.1c0,0.4-0.1,0.5,0.1,1c0.2,0.4,0.3,0.9,0.5,1.3c0.4,1.1,0.5,2.2,0.7,3.3
			c0.3,1.3,0.7,2.7,1,4c0.4,1.4,0.8,2.7,1.2,4.1c0.3,1.2,0.4,2.4,1,3.5c0.2,0.4,0.6,0.8,0.7,1.3c0.1,0.7-0.3,1.4,0.1,2.1
			c0.3,0.6,0.5,1.1,0.6,1.8c0.5,0.1,0.6,0.4,0.7,0.8c0.1,0.3,0.1,0.3,0.2,0.5c0.1,0.2,0.4,0.4,0.4,0.6c0,0.3-0.5,0.4-0.4,0.7
			c0,0.3,0.2,0.1,0.3,0.3c0.1,0.2,0.1,0.4,0.2,0.6c0.4,0.7,0.1,1.3,0.1,2.1c0.1,1.1,0.5,2.2,0.8,3.4c0.3,1.3,0.7,2.5,1,3.7
			c0.2,1,0.1,1.9-0.2,2.9c-0.2,0.9-0.7,2.1-0.6,3.1c0.3,0.2,0.6,0.4,0.8,0.7c0-0.1-0.1,0.1,0,0.1c0.1,0.3,0,0.5,0,0.8
			c-0.1,0.4-0.1,0.6,0,1c0.1,0.4,0.1,0.6-0.1,1c-0.2,0.3-0.4,0.4-0.4,0.7c0.1,0.1,0.1,0.2,0.2,0.3c-0.3,0-1,0.4-0.8,0.7
			c-0.3-0.1-0.7,0.5-1,0.7c-0.5,0.4-0.8,0.9-1.5,1.2c-0.6,0.3-1.4,0.4-1.9,0.7c-0.6,0.3-1.1,0.6-1.8,0.7c-0.5,0.1-0.9,0.1-1.2,0.5
			c-0.2,0.2-0.2,0.5-0.4,0.7c0.4,0.9,1.9,1.5,2.8,1.6c1.4,0.2,2.8-0.3,4.1-0.6c0.7-0.1,1.3-0.3,1.9-0.7c0.5-0.3,1.1-0.9,1.7-1
			c0.3-0.1,0.6-0.1,0.8-0.1c0.2,0,0.6,0,0.5,0.1c0-0.1,0.4,0.2,0.4,0.2c0.2,0.1,0.2,0.2,0.5,0.2c0.5,0.1,1,0,1.5,0
			c0.7,0,1.4-0.1,2-0.5c0.8-0.5,0.6-1.2,0.5-2c0-0.3,0.1-1.1-0.1-1.3c0.6-0.6-0.4-1.4,0.3-1.9c-0.1-0.3,0-0.7-0.4-0.8
			c0-0.3,0.2-0.6,0.2-0.8c0-0.2-0.2-0.4-0.3-0.6c-0.1-0.3-0.1-0.2,0-0.5c0-0.8,0-1.4-0.1-2.2c-0.1-0.7,0.2-1.4,0.2-2.1
			c0-0.5-0.1-1-0.2-1.5c0-0.6,0-1.4-0.1-2c-0.1-0.6-0.3-1.3-0.3-1.9c0,0.5,0.5,1.1,0.6,1.5c0.2,0.6,0.4,0.9,0.4,1.5
			c0,1,0.5,1.9,0.6,2.9c0.1,0.7-0.1,1.3-0.1,1.9c0,0.4,0.1,0.7,0.1,1.1c0.1,1.4-0.2,2.7-0.2,4.1c0,0.5,0.2,1.2,0,1.7
			c-0.1,0.4-0.4,0.8-0.3,1.2c0.1,0.4,0.6,1.1,0.8,1.4c0.3,0.5,0.3,0.4,0.1,0.8c-0.2,0.3-0.4,0.4-0.3,0.9c0.1,0.5,0.3,1.4,0.6,1.7
			c0.1-0.1,0.1-0.1,0.1-0.2c-0.1,0.5,0,0.9-0.1,1.4c-0.1,0.3-0.2,0.7-0.2,1c-0.2,1.2-0.3,2.5-0.5,3.7c-0.1,0.7-0.5,2.2,0.5,2.5
			c0.5,0.2,1.3,0.1,1.8,0.1c0.6,0,1.2-0.1,1.8-0.3c1.1-0.4,2.4-1.2,2.8-2.3c0.2-0.4,0.2-0.8,0.2-1.3c0-0.2,0-0.5,0-0.7
			c-0.1-0.2-0.3-0.3-0.4-0.5c-0.1-0.3-0.1-0.3-0.1-0.7c0.1-0.4,0.1-0.9,0.1-1.3c0-0.3-0.1-1.4-0.5-1.4c0,0,0-0.2,0-0.1
			c0.1,0,0.2,0.1,0.2,0.1c0.3-0.2,0.1-0.4,0.1-0.7c0-0.4,0.1-0.4,0.3-0.7c0.3-0.6,0-1.1,0.1-1.7c0-0.3,0.1-0.3,0.1-0.6
			c0.1-0.3,0-0.6,0-0.9c0-0.8-0.1-1.5-0.2-2.3c-0.1-0.8,0-1.7,0-2.6c0-0.7,0-1.4,0.1-2c0.2-1.1,0.1-2.2,0-3.3c0-0.5-0.1-0.9-0.2-1.3
			c0-0.4,0.1-0.8,0-1.2c-0.1-0.3-0.3-0.6-0.4-0.9c-0.1-0.3,0-0.7-0.1-1.1c-0.1-0.7-0.1-1.5-0.3-2.2c-0.1-0.5-0.3-0.9-0.6-1.3
			c0.5-0.4,0.2-0.6,0.2-1c0-0.5,0.2-0.6-0.2-1c-0.2-0.3-0.6-0.6-0.7-0.9c-0.2-0.5,0-1-0.1-1.4c-0.1-0.2-0.2-0.3-0.3-0.5
			c-0.1-0.2-0.1-0.5-0.1-0.7c-0.1,0-0.3,0-0.4,0c-0.2-0.3,0.5-0.7,0.5-1c0-0.4-0.3-0.8-0.5-1.2c-0.5-0.9-0.6-1.3-0.5-2.3
			c0-0.3-0.1-0.8,0-1.1c0.2-0.5,0.5-0.7,0.6-1.3c0.1-0.6,0.2-1.1-0.1-1.7c-0.1-0.4-0.3-0.9-0.3-1.3c0-0.5,0.4-1.8,0.1-2.2
			c-0.3-0.3,0-0.7,0.1-1.1c0.1-0.6-0.1-1.2,0-1.7c0.5-0.1,0.4-0.9,0.3-1.3c-0.1-0.3-0.2-0.6-0.3-0.9c-0.2-0.6,0-0.9,0.1-1.4
			c0.1-0.4,0.1-1.1,0.1-1.5c0-0.5-0.3-0.9-0.3-1.3c0-0.4,0-0.7-0.1-1.1c-0.1-0.4-0.2-0.8-0.3-1.2c0-0.8,0.2-1.8,0.1-2.5
			c0,0-0.1,0-0.1,0c-0.1-0.2,0-0.4,0.2-0.5c0-0.2-0.1-0.4,0-0.6c0.2-0.7,1.1-1.9,1.5-2.6c0.8-1.1,1.6-2.2,2.3-3.4
			c1-1.6,1.9-3.3,2.5-5c0.1-0.3,0.3-0.6,0.3-0.9c0-0.3-0.3-0.7-0.2-0.9c0,0-0.1,0-0.2,0c0-0.7,0.3-0.9,0.4-1.5
			c0.1-0.8,0.1-1.4,0-2.1c-0.1-0.7,0.1-1.4,0-2.2c0-0.5,0-1.1,0-1.6c0-0.5-0.1-1.1-0.2-1.5c0.1,0,0.2,0,0.2,0c0-0.5,0-1,0-1.5
			c0-0.4,0.1-0.8,0.1-1.2c0-0.5-0.1-0.9-0.2-1.4c-0.1-0.9,0-1.8-0.2-2.6c-0.2-0.8-0.4-1.5-0.6-2.3c-0.1-0.5-0.2-1-0.3-1.5
			c-0.1-0.4-0.4-0.8-0.6-1.1c-0.3-0.4-0.7-0.7-1.1-0.8c-0.6-0.3-1.1-0.7-1.8-0.8c-0.6-0.1-1.1-0.4-1.6-0.7c-0.6-0.3-1.2-0.4-1.8-0.7
			c-0.3-0.1-0.5-0.4-0.6-0.8c-0.4,0-0.9,0.1-1.2-0.1c-0.3-0.1-0.6-0.5-0.8-0.8c-0.4-0.5-0.3-1.3-0.3-2c0-0.8,0.1-1.3,0.3-1.9
			c0.2-0.4,0.1-0.9,0.1-1.4c0.4,0.1,0.6-0.4,0.7-0.7c0.1-0.2,0-0.4,0-0.6c0-0.2,0.1-0.4,0.2-0.6c0.1-0.3,0-0.7,0.1-1
			C63.2,15.1,63.3,14.7,63.2,14.3z"/>
	</g>
</g>
</svg>
