<?xml version="1.0" encoding="utf-8"?>
<!-- Generator: Adobe Illustrator 19.0.0, SVG Export Plug-In . SVG Version: 6.00 Build 0)  -->
<svg version="1.1" xmlns="http://www.w3.org/2000/svg" xmlns:xlink="http://www.w3.org/1999/xlink" x="0px" y="0px"
	 viewBox="0 0 67.4 62.7" style="enable-background:new 0 0 67.4 62.7;" xml:space="preserve">
<style type="text/css">
	.st0{display:none;}
	.st1{display:inline;fill:#FFFFFF;stroke:#808285;}
	.st2{display:inline;opacity:0.6;fill:#FFFFFF;stroke:#808285;}
	.st3{display:inline;fill:none;stroke:#808285;stroke-dasharray:4,3;}
	.st4{display:inline;}
	.st5{fill:none;stroke:#F6862B;stroke-width:2;}
	.st6{fill:#F6862B;}
	.st7{fill:#808285;}
</style>
<g id="Layer_19" class="st0">
	<path class="st1" d="M80.2,103.2v43c0,3.6-10.8,6.5-23.6,6.5s-23.4-3-23.4-6.6v-42.9"/>
	<path class="st2" d="M80.2,103.2v43c0,3.6-10.8,6.5-23.6,6.5s-23.4-3-23.4-6.6v-42.9"/>
	<path class="st3" d="M34.1,146.1c0-3.6,10.3-6.6,23.1-6.6s23.1,3,23.1,6.6"/>
	<ellipse class="st1" cx="56.6" cy="103.2" rx="23.4" ry="6.5"/>
	<line class="st3" x1="57.2" y1="99.9" x2="57.2" y2="149.4"/>
</g>
<g id="Layer_2" class="st0">
	<g id="_x39_d60t0_1_" class="st4">
		
			<image style="overflow:visible;" width="682" height="1023" id="_x39_d60t0_2_" xlink:href="21448E58311138A8.png"  transform="matrix(0.1554 0 0 0.1554 81.7278 49.1545)">
		</image>
	</g>
</g>
<g id="Layer_3">
	<g>
		<g>
			<path class="st5" d="M6.9,36.7c-3.5-1.5-5.5-3.2-5.5-5.1c0-5.1,14.3-9.1,32-9.1c2.9,0,5.7,0.1,8.4,0.3"/>
			<g>
				<polygon class="st6" points="40.3,26.6 47.6,23.4 41.2,18.7 				"/>
			</g>
		</g>
	</g>
	<path class="st7" d="M36.3,4.3c0-0.1-0.3,0-0.3,0c0.1-0.5,0.1-0.9,0-1.4c-0.1-0.3-0.1-0.5-0.3-0.8c-0.1-0.1-0.2-0.3-0.4-0.3
		c-0.4-0.2-0.8-0.4-1.2-0.6C33.8,1,33,1,32.6,1.2c-0.4,0.2-0.7,0.3-1.1,0.6c-0.6,0.5-0.8,1.1-0.8,1.9c0,0.3,0.1,0.7,0,0.9
		c-0.3,0,0.1,0.8,0.2,1c0.1,0.2,0.1,1.1,0.5,1c0.1,0.2,0.3,1.1,0.6,1.2C31.9,8.2,32,8.6,32,9c0,0.3,0.1,0.5,0,0.8
		c0,0.1-0.1,0.3-0.1,0.4c-0.1,0-0.2,0-0.2,0.2c-0.2,0.1-0.4,0.1-0.6,0.1c-0.7,0.2-1.3,0.5-1.9,0.9c-0.8,0.5-0.4,1.5-0.7,2.3
		c-0.3,0.8-0.3,1.5-0.3,2.3c0,0.4,0,0.7-0.1,1c-0.1,0.4,0,0.2,0.2,0.5c0,0.5-0.1,0.9-0.2,1.3C28,19.2,28,19.6,27.9,20
		c-0.3,0.9-0.7,1.7-0.8,2.6c-0.1,0.9-0.1,1.7-0.2,2.6c0,0.3-0.1,1.1-0.3,1.3c0,0.4-0.3,0.9-0.4,1.3c-0.1,0.3,0,0.6,0.1,0.9
		c0.1,0.3,0.2,0.6,0.3,0.8c0.1,0.2,0.3,0.4,0.3,0.6c0,0.2,0,0.3,0,0.5c0.1,0.2,0.2,0.5,0.2,0.7c0.2,0.6,0.3,1.1,0.4,1.7
		c0.2,0.7,0.4,1.4,0.5,2.1c0.2,0.7,0.4,1.4,0.6,2.1c0.2,0.6,0.2,1.2,0.5,1.8c0.1,0.2,0.3,0.4,0.4,0.7c0,0.4-0.2,0.7,0,1.1
		c0.1,0.3,0.3,0.6,0.3,0.9c0.3,0.1,0.3,0.2,0.3,0.4c0,0.1,0,0.2,0.1,0.3c0.1,0.1,0.2,0.2,0.2,0.3c0,0.2-0.2,0.2-0.2,0.4
		c0,0.2,0.1,0.1,0.1,0.2c0,0.1,0,0.2,0.1,0.3c0.2,0.3,0,0.7,0.1,1.1c0.1,0.6,0.3,1.2,0.4,1.7c0.1,0.7,0.4,1.3,0.5,1.9
		c0.1,0.5,0.1,1-0.1,1.5c-0.1,0.5-0.4,1.1-0.3,1.6c0.1,0.1,0.3,0.2,0.4,0.4c0,0-0.1,0,0,0.1c0,0.1,0,0.3,0,0.4c0,0.2,0,0.3,0,0.5
		c0,0.2,0,0.3-0.1,0.5c-0.1,0.1-0.2,0.2-0.2,0.4c0,0,0.1,0.1,0.1,0.1c-0.2,0-0.5,0.2-0.4,0.4c-0.2,0-0.4,0.3-0.5,0.4
		c-0.3,0.2-0.4,0.5-0.8,0.6c-0.3,0.1-0.7,0.2-1,0.4c-0.3,0.2-0.6,0.3-0.9,0.4c-0.2,0.1-0.5,0.1-0.6,0.3c-0.1,0.1-0.1,0.3-0.2,0.4
		c0.2,0.5,1,0.8,1.4,0.8c0.7,0.1,1.5-0.1,2.2-0.3c0.4-0.1,0.7-0.2,1-0.4c0.3-0.2,0.6-0.5,0.9-0.5c0.1,0,0.3,0,0.4-0.1
		c0.1,0,0.3,0,0.3,0.1c0,0,0.2,0.1,0.2,0.1c0.1,0.1,0.1,0.1,0.3,0.1c0.2,0,0.5,0,0.8,0c0.4,0,0.7-0.1,1-0.3c0.4-0.2,0.3-0.6,0.3-1
		c0-0.2,0-0.6-0.1-0.7c0.3-0.3-0.2-0.7,0.2-1c0-0.1,0-0.4-0.2-0.4c0-0.1,0.1-0.3,0.1-0.4c0-0.1-0.1-0.2-0.1-0.3c0-0.2,0-0.1,0-0.3
		c0-0.4,0-0.7,0-1.1c0-0.4,0.1-0.7,0.1-1.1c0-0.3-0.1-0.5-0.1-0.8c0-0.3,0-0.7-0.1-1c0-0.3-0.1-0.7-0.1-1c0,0.2,0.2,0.6,0.3,0.8
		c0.1,0.3,0.2,0.5,0.2,0.8c0,0.5,0.2,1,0.3,1.5c0,0.3-0.1,0.7,0,1c0,0.2,0,0.4,0.1,0.6c0,0.7-0.1,1.4-0.1,2.1c0,0.3,0.1,0.6,0,0.9
		c0,0.2-0.2,0.4-0.2,0.6c0,0.2,0.3,0.6,0.4,0.7c0.2,0.3,0.2,0.2,0.1,0.4c-0.1,0.2-0.2,0.2-0.2,0.4c0,0.2,0.2,0.7,0.3,0.9
		c0-0.1,0,0,0.1-0.1c0,0.3,0,0.5,0,0.7c0,0.2-0.1,0.3-0.1,0.5c-0.1,0.6-0.2,1.3-0.3,1.9c-0.1,0.4-0.2,1.1,0.2,1.3
		c0.2,0.1,0.7,0.1,1,0.1c0.3,0,0.6,0,0.9-0.1c0.6-0.2,1.2-0.6,1.5-1.2c0.1-0.2,0.1-0.4,0.1-0.7c0-0.1,0-0.3,0-0.4
		c0-0.1-0.2-0.2-0.2-0.2c-0.1-0.1-0.1-0.2,0-0.3c0-0.2,0-0.5,0-0.7c0-0.2,0-0.7-0.2-0.7c0,0,0-0.1,0-0.1c0,0,0.1,0,0.1,0.1
		c0.1-0.1,0-0.2,0.1-0.3c0-0.2,0.1-0.2,0.2-0.4c0.2-0.3,0-0.6,0-0.9c0-0.2,0-0.1,0.1-0.3c0-0.1,0-0.3,0-0.4c0-0.4,0-0.8-0.1-1.2
		c-0.1-0.4,0-0.9,0-1.3c0-0.3,0-0.7,0-1c0.1-0.6,0-1.1,0-1.7c0-0.2-0.1-0.5-0.1-0.7c0-0.2,0-0.4,0-0.6c0-0.2-0.2-0.3-0.2-0.5
		c0-0.2,0-0.4,0-0.6c0-0.4-0.1-0.8-0.1-1.1c-0.1-0.3-0.2-0.5-0.3-0.7c0.3-0.2,0.1-0.3,0.1-0.5c0-0.3,0.1-0.3-0.1-0.5
		c-0.1-0.1-0.3-0.3-0.4-0.5c-0.1-0.3,0-0.5-0.1-0.7c0-0.1-0.1-0.1-0.2-0.2c-0.1-0.1,0-0.2,0-0.4c-0.1,0-0.2,0-0.2,0
		c-0.1-0.2,0.3-0.4,0.2-0.5c0-0.2-0.1-0.4-0.3-0.6c-0.2-0.4-0.3-0.7-0.3-1.2c0-0.2,0-0.4,0-0.6c0.1-0.3,0.3-0.4,0.3-0.7
		c0.1-0.3,0.1-0.6,0-0.9c-0.1-0.2-0.2-0.4-0.2-0.7c0-0.3,0.2-0.9,0.1-1.1c-0.1-0.1,0-0.4,0.1-0.6c0.1-0.3,0-0.6,0-0.9
		c0.3-0.1,0.2-0.5,0.2-0.7c0-0.2-0.1-0.3-0.2-0.5c-0.1-0.3,0-0.5,0-0.8c0-0.2,0.1-0.6,0.1-0.8c0-0.2-0.1-0.4-0.1-0.7
		c0-0.2,0-0.3-0.1-0.5c-0.1-0.2-0.1-0.4-0.1-0.6c0-0.4,0.1-0.9,0.1-1.3c0,0,0,0-0.1,0c0-0.1,0-0.2,0.1-0.2c0-0.1,0-0.2,0-0.3
		c0.1-0.4,0.5-1,0.8-1.3c0.4-0.6,0.8-1.1,1.2-1.7c0.5-0.8,1-1.7,1.3-2.6c0.1-0.2,0.1-0.3,0.1-0.4c0-0.2-0.2-0.3-0.1-0.5
		c0,0-0.1,0-0.1,0c0-0.4,0.2-0.5,0.2-0.8c0-0.4,0-0.7,0-1.1c-0.1-0.4,0-0.7,0-1.1c0-0.3,0-0.5,0-0.8c0-0.3-0.1-0.6-0.1-0.8
		c0,0,0.1,0,0.1,0c0-0.3,0-0.5,0-0.8c0-0.2,0-0.4,0.1-0.6c0-0.3-0.1-0.5-0.1-0.7c-0.1-0.5,0-0.9-0.1-1.3c-0.1-0.4-0.2-0.8-0.3-1.2
		c-0.1-0.3-0.1-0.5-0.2-0.8c0-0.2-0.2-0.4-0.3-0.6c-0.2-0.2-0.4-0.3-0.6-0.4c-0.3-0.1-0.6-0.4-0.9-0.4c-0.3-0.1-0.6-0.2-0.9-0.3
		c-0.3-0.1-0.6-0.2-0.9-0.4c-0.2-0.1-0.3-0.2-0.3-0.4c-0.2,0-0.5,0.1-0.6,0c-0.1-0.1-0.3-0.3-0.4-0.4c-0.2-0.3-0.1-0.7-0.1-1
		c0-0.4,0-0.7,0.2-1c0.1-0.2,0-0.5,0.1-0.7c0.2,0,0.3-0.2,0.4-0.3c0-0.1,0-0.2,0-0.3c0-0.1,0.1-0.2,0.1-0.3c0-0.2,0-0.3,0-0.5
		C36.3,4.7,36.4,4.5,36.3,4.3z"/>
	<g>
		<g>
			<path class="st5" d="M58.6,25.9c4.3,1.6,6.9,3.5,6.9,5.7c0,5.1-14.3,9.1-32,9.1c-3.2,0-6.4-0.1-9.3-0.4"/>
			<g>
				<polygon class="st6" points="25.8,36.5 18.5,39.7 24.9,44.4 				"/>
			</g>
		</g>
	</g>
</g>
</svg>
